{"glyphs":{"0":{"ha":810,"x_min":0,"x_max":0,"o":"m 406 986 b 42 488 197 986 42 796 b 406 -12 42 178 197 -12 b 768 488 614 -12 768 178 b 406 986 768 796 614 986 z m 406 -6 b 250 488 292 -6 250 246 b 406 979 250 728 292 979 b 561 488 519 979 561 728 b 406 -6 561 246 519 -6 z "},"1":{"ha":460,"x_min":0,"x_max":0,"o":"m 344 160 l 344 972 l 336 972 l 28 872 l 28 865 b 139 826 122 892 139 881 l 139 160 b 51 7 139 57 131 7 l 51 0 l 432 0 l 432 7 b 344 160 353 7 346 57 z "},"2":{"ha":706,"x_min":0,"x_max":0,"o":"m 464 165 l 189 165 b 660 740 414 369 660 535 b 331 986 660 946 465 986 b 182 603 42 986 35 669 b 182 626 182 613 182 615 b 314 979 42 714 92 979 b 439 726 428 979 443 849 b 42 7 425 421 240 239 l 42 0 l 636 0 l 664 253 l 657 253 b 464 165 631 175 567 165 z "},"3":{"ha":728,"x_min":0,"x_max":0,"o":"m 363 518 b 621 767 510 539 621 640 b 311 986 621 939 450 986 b 164 603 22 986 13 667 b 164 626 164 613 164 615 b 294 979 19 710 72 979 b 422 761 399 979 422 882 b 283 518 422 639 399 518 b 231 518 261 518 254 518 l 231 508 b 313 508 258 508 301 508 b 467 253 422 508 472 418 b 278 -6 460 75 379 -6 b 42 75 197 -6 96 31 l 42 54 b 294 -12 124 11 204 -12 b 685 256 517 -12 675 75 b 363 518 694 429 547 522 z "},"4":{"ha":729,"x_min":0,"x_max":0,"o":"m 582 229 l 729 229 l 729 236 l 582 236 l 582 972 l 572 972 l 0 236 l 0 229 l 376 229 l 376 160 b 289 7 376 57 368 7 l 289 0 l 669 0 l 669 7 b 582 160 590 7 582 57 z m 7 236 l 376 713 l 376 236 z "},"5":{"ha":660,"x_min":0,"x_max":0,"o":"m 96 526 b 113 808 97 560 106 694 l 526 808 l 539 1057 l 532 1057 b 369 972 506 979 472 974 l 115 972 b 89 515 115 972 92 579 b 404 274 357 626 408 424 b 224 -6 400 94 338 -6 b 42 54 149 -6 92 14 l 42 33 b 240 -12 106 0 160 -12 b 617 276 411 -12 603 49 b 96 526 631 506 418 667 z "},"6":{"ha":735,"x_min":0,"x_max":0,"o":"m 415 -10 b 692 314 578 7 703 115 b 353 572 682 506 539 599 b 254 518 317 567 285 549 b 564 965 296 653 369 828 b 564 972 564 969 564 969 b 43 324 299 882 21 672 b 415 -10 60 61 247 -29 z m 349 565 b 494 289 451 581 488 438 b 401 -6 503 139 497 1 b 247 267 306 -11 261 92 b 349 565 235 442 257 551 z "},"7":{"ha":651,"x_min":0,"x_max":0,"o":"m 54 972 l 28 721 l 35 721 b 228 808 61 797 125 807 l 489 808 b 118 0 267 582 118 292 b 317 0 169 0 274 0 b 624 965 317 529 425 733 l 624 972 z "},"8":{"ha":771,"x_min":0,"x_max":0,"o":"m 726 219 b 457 575 749 417 547 508 b 669 778 544 593 665 643 b 375 986 674 946 488 986 b 90 774 263 986 107 942 b 282 475 76 633 175 546 b 43 203 144 421 29 357 b 393 -12 57 54 218 -12 b 726 219 574 -12 710 68 z m 265 774 b 375 979 229 886 279 979 b 504 771 460 979 504 892 b 454 579 504 686 490 639 b 265 774 356 643 292 690 z m 393 -6 b 218 226 299 -6 228 88 b 286 471 210 343 239 414 b 547 206 383 400 521 315 b 393 -6 585 54 488 -6 z "},"9":{"ha":735,"x_min":0,"x_max":0,"o":"m 332 986 b 43 660 169 976 29 851 b 389 404 57 468 203 378 b 481 456 425 410 450 425 b 171 8 440 321 365 146 b 171 1 171 4 171 4 b 692 650 436 92 708 296 b 332 986 679 913 504 996 z m 386 408 b 240 683 290 397 249 536 b 333 979 232 835 238 971 b 488 707 429 989 474 882 b 386 408 500 532 479 418 z "},"I":{"ha":474,"x_min":0,"x_max":0,"o":"m 344 813 b 432 965 344 914 353 965 l 432 972 l 42 972 l 42 965 b 129 813 121 965 128 914 l 129 160 b 42 7 128 57 121 7 l 42 0 l 432 0 l 432 7 b 344 160 353 7 344 57 z "},"A":{"ha":1003,"x_min":0,"x_max":0,"o":"m 840 194 b 532 972 804 283 532 972 l 501 972 b 208 222 501 972 256 343 b 0 7 154 85 89 24 l 0 0 l 296 0 l 296 7 b 235 272 203 7 192 156 b 274 371 239 282 253 318 l 542 371 b 631 135 581 268 617 174 b 592 7 669 33 660 7 l 592 0 l 1003 0 l 1003 7 b 840 194 915 7 878 106 z m 275 376 b 408 717 311 467 363 600 b 539 376 418 693 481 528 z "},"B":{"ha":871,"x_min":0,"x_max":0,"o":"m 531 494 b 768 731 656 515 768 582 b 458 972 768 913 593 972 l 42 972 l 42 965 b 129 813 121 965 129 914 l 129 160 b 42 7 129 57 121 7 l 42 0 l 513 0 b 836 246 664 0 836 64 b 531 494 836 425 675 493 z m 540 731 b 426 494 540 619 529 494 b 344 494 406 494 375 494 l 344 813 b 428 965 346 913 350 965 b 540 731 506 965 540 840 z m 450 7 b 432 7 444 7 439 7 b 344 160 353 7 346 57 l 344 488 l 450 488 b 607 246 550 488 607 390 b 450 7 607 101 553 7 z "},"C":{"ha":988,"x_min":0,"x_max":0,"o":"m 643 -3 b 286 453 424 -8 304 231 b 556 976 269 674 343 958 b 922 674 801 996 922 760 l 929 674 l 929 1024 l 922 1024 b 808 953 922 929 872 936 b 554 982 743 969 639 990 b 44 440 267 957 21 772 b 643 -10 67 108 356 -28 b 946 110 794 0 872 50 l 946 132 b 643 -3 872 61 774 0 z "},"D":{"ha":1040,"x_min":0,"x_max":0,"o":"m 519 972 l 42 972 l 42 965 b 129 813 121 965 129 914 l 129 160 b 42 7 129 57 121 7 l 42 0 l 519 0 b 999 486 819 0 999 206 b 519 972 999 768 819 972 z m 458 7 b 432 7 449 7 440 7 b 344 160 353 7 344 57 l 344 813 b 432 965 344 914 353 965 l 458 965 b 749 486 638 965 749 838 b 458 7 749 135 638 7 z "},"E":{"ha":814,"x_min":0,"x_max":0,"o":"m 779 246 b 510 7 739 156 650 7 l 432 7 b 344 160 353 7 346 57 l 344 482 l 365 482 b 560 303 472 482 560 397 l 567 303 l 567 667 l 560 667 b 365 488 560 572 472 488 l 344 488 l 344 813 b 432 965 346 914 353 965 l 467 965 b 725 771 606 965 685 861 l 732 771 l 685 972 l 42 972 l 42 965 b 129 813 121 965 129 914 l 129 160 b 42 7 129 57 121 7 l 42 0 l 729 0 l 786 246 z "},"F":{"ha":746,"x_min":0,"x_max":0,"o":"m 685 972 l 42 972 l 42 965 b 129 813 121 965 129 914 l 129 160 b 42 7 129 57 121 7 l 42 0 l 432 0 l 432 7 b 344 160 353 7 346 57 l 344 482 l 365 482 b 560 303 472 482 560 397 l 567 303 l 567 667 l 560 667 b 365 488 560 572 472 488 l 344 488 l 344 813 b 432 965 346 914 353 965 l 465 965 b 725 771 606 965 685 861 l 732 771 z "},"G":{"ha":1061,"x_min":0,"x_max":0,"o":"m 643 440 l 643 433 b 731 282 722 433 731 383 l 731 8 b 643 -3 704 1 674 -3 b 288 453 424 -8 304 231 b 556 976 269 674 344 958 b 922 674 801 996 922 760 l 929 674 l 929 1024 l 922 1024 b 808 953 922 929 872 936 b 556 982 744 969 639 990 b 44 440 267 957 21 772 b 643 -10 68 108 356 -28 b 800 22 707 -6 758 6 b 940 -14 863 39 940 53 l 946 -14 l 946 282 b 1033 433 947 383 954 433 l 1033 440 z "},"J":{"ha":524,"x_min":0,"x_max":0,"o":"m 78 972 l 78 965 b 165 813 157 965 165 914 l 165 7 b 42 -264 165 -158 129 -232 l 42 -272 b 381 57 189 -258 381 -182 l 381 813 b 468 965 382 914 389 965 l 468 972 z "},"K":{"ha":1021,"x_min":0,"x_max":0,"o":"m 838 188 b 542 639 789 263 567 603 b 644 738 581 675 617 710 b 957 965 708 801 867 965 l 957 972 l 661 972 l 661 965 b 651 754 758 965 751 856 b 344 468 572 675 436 550 l 344 813 b 432 965 346 914 353 965 l 432 972 l 42 972 l 42 965 b 129 813 121 965 129 914 l 129 160 b 42 7 129 57 121 7 l 42 0 l 432 0 l 432 7 b 344 160 353 7 346 57 l 344 461 b 389 500 358 474 374 486 l 701 0 l 1021 0 l 1021 7 b 838 188 981 7 900 92 z "},"L":{"ha":800,"x_min":0,"x_max":0,"o":"m 779 246 b 510 7 739 156 650 7 l 432 7 b 344 160 353 7 346 57 l 344 813 b 432 965 346 914 353 965 l 432 972 l 42 972 l 42 965 b 129 813 121 965 129 914 l 129 160 b 42 7 129 57 121 7 l 42 0 l 728 0 l 786 246 z "},"M":{"ha":1268,"x_min":0,"x_max":0,"o":"m 1139 813 b 1226 965 1139 914 1147 965 l 1226 972 l 924 972 l 688 399 l 389 972 l 65 972 l 65 965 b 200 874 118 965 163 925 l 200 269 b 28 7 200 104 122 7 l 28 0 l 378 0 l 378 7 b 207 269 283 7 207 104 l 207 865 b 574 196 232 829 574 196 l 610 196 l 924 957 l 924 160 b 836 7 922 57 915 7 l 836 0 l 1226 0 l 1226 7 b 1139 160 1147 7 1139 57 z "},"N":{"ha":1089,"x_min":0,"x_max":0,"o":"m 711 972 l 711 965 b 883 703 806 965 883 868 l 883 292 l 361 972 l 38 972 l 38 965 b 200 835 97 965 153 901 l 200 269 b 28 7 200 104 122 7 l 28 0 l 378 0 l 378 7 b 207 269 283 7 207 104 l 207 825 b 850 0 228 794 819 36 l 890 0 l 890 703 b 1061 965 890 868 967 965 l 1061 972 z "},"O":{"ha":1163,"x_min":0,"x_max":0,"o":"m 1119 543 b 526 985 1097 835 824 1008 b 44 444 231 960 19 749 b 640 -12 69 142 343 -36 b 1119 543 936 13 1143 228 z m 640 -6 b 292 464 475 -18 319 194 b 525 978 264 731 364 961 b 874 513 690 992 854 789 b 640 -6 893 235 801 13 z "},"P":{"ha":835,"x_min":0,"x_max":0,"o":"m 483 972 l 42 972 l 42 965 b 129 813 121 965 129 915 l 129 160 b 42 7 129 58 121 7 l 42 0 l 432 0 l 432 7 b 344 160 353 7 346 58 l 344 421 l 469 421 b 793 696 621 421 793 497 b 483 972 793 894 618 972 z m 450 428 b 344 428 424 428 383 428 l 344 813 b 432 965 346 915 353 965 l 450 965 b 564 696 531 965 564 825 b 450 428 564 568 554 428 z "},"Q":{"ha":1163,"x_min":0,"x_max":0,"o":"m 864 -74 b 539 -74 760 -42 674 -22 b 661 -11 539 -74 624 -26 b 1119 543 946 22 1146 238 b 526 985 1094 835 824 1008 b 44 444 231 960 19 753 b 633 -14 69 143 339 -35 b 556 -56 600 -31 574 -47 b 451 -78 513 -78 482 -78 b 432 -126 369 -78 383 -147 b 460 -110 442 -122 451 -117 b 833 -253 561 -53 682 -249 b 990 -174 899 -254 949 -207 b 1089 -93 1038 -135 1089 -93 l 1085 -87 b 864 -74 1029 -133 944 -99 z m 292 464 b 525 978 264 731 364 961 b 874 513 690 992 849 788 b 640 -6 897 246 801 13 b 292 464 475 -18 319 194 z "},"R":{"ha":1004,"x_min":0,"x_max":0,"o":"m 789 215 b 528 490 728 351 688 458 b 792 731 661 506 792 571 b 482 972 792 913 617 972 l 42 972 l 42 965 b 129 813 121 965 129 915 l 129 160 b 42 7 129 58 121 7 l 42 0 l 432 0 l 432 7 b 344 160 353 7 346 58 l 344 488 l 392 488 b 628 61 535 479 507 197 b 850 0 681 0 789 0 b 997 0 921 0 997 0 l 997 7 b 789 215 900 7 829 126 z m 344 494 l 344 813 b 432 965 346 915 353 965 l 450 965 b 564 731 529 965 564 842 b 450 494 564 619 553 494 b 344 494 424 494 383 494 z "},"S":{"ha":750,"x_min":0,"x_max":0,"o":"m 240 835 b 375 979 240 906 285 979 b 635 667 540 979 635 835 l 642 667 l 642 1024 l 635 1024 b 557 946 635 946 607 932 b 372 986 496 963 450 986 b 49 708 183 986 49 874 b 507 138 49 383 507 400 b 344 -7 507 74 467 -7 b 49 306 126 -7 49 225 l 42 306 l 42 -51 l 49 -51 b 167 13 49 43 119 25 b 349 -14 217 0 272 -14 b 708 282 581 -14 708 114 b 240 835 708 589 240 608 z "},"T":{"ha":951,"x_min":0,"x_max":0,"o":"m 883 972 l 68 972 l 42 757 l 49 757 b 283 965 89 847 147 964 b 368 813 360 964 368 914 l 368 160 b 281 7 368 58 360 7 l 281 0 l 671 0 l 671 7 b 583 160 592 7 585 58 l 583 813 b 668 965 585 914 592 964 b 903 757 804 964 864 847 l 910 757 z "},"U":{"ha":976,"x_min":0,"x_max":0,"o":"m 746 972 l 746 965 b 836 768 835 965 836 896 l 836 303 b 564 -4 836 118 715 -4 b 351 275 419 -4 351 114 l 351 813 b 439 965 353 915 360 965 l 439 972 l 42 972 l 42 965 b 129 813 121 965 129 915 l 129 317 b 564 -14 129 47 342 -14 b 843 296 690 -14 840 79 l 843 768 b 935 965 843 896 846 965 l 935 972 z "},"V":{"ha":1076,"x_min":0,"x_max":0,"o":"m 746 972 l 746 965 b 806 700 839 965 850 818 b 663 292 797 675 726 472 b 433 838 640 343 469 742 b 472 965 396 939 406 965 l 472 972 l 35 972 l 35 965 b 197 779 122 965 161 868 b 536 0 233 690 536 0 l 567 0 b 833 750 567 0 786 629 b 1042 965 888 889 953 950 l 1042 972 z "},"W":{"ha":1507,"x_min":0,"x_max":0,"o":"m 1176 972 l 1176 965 b 1253 726 1269 965 1278 832 b 1114 286 1246 694 1175 475 l 867 972 l 832 972 l 615 310 b 421 853 594 367 460 751 b 472 965 389 936 410 965 l 472 972 l 35 972 l 35 965 b 197 779 122 965 154 890 b 489 0 247 646 489 0 l 519 0 l 740 671 l 997 0 l 1028 0 b 1271 750 1028 0 1231 622 b 1472 965 1310 875 1383 950 l 1472 972 z "},"X":{"ha":1046,"x_min":0,"x_max":0,"o":"m 783 242 b 583 576 757 283 672 426 b 729 794 631 649 689 739 b 971 965 804 900 882 950 l 971 972 l 668 972 l 668 965 b 706 774 763 965 767 863 b 579 582 682 740 626 654 b 446 808 533 661 486 740 b 446 965 401 883 376 965 l 446 972 l 35 972 l 35 965 b 281 703 129 965 232 788 b 447 421 314 647 382 533 b 285 178 396 340 326 236 b 42 7 210 72 131 22 l 42 0 l 344 0 l 344 7 b 308 199 251 7 247 110 b 451 415 332 235 399 335 b 608 151 521 297 588 185 b 601 7 646 88 668 7 l 601 0 l 1011 0 l 1011 7 b 783 242 925 7 835 160 z "},"Y":{"ha":1022,"x_min":0,"x_max":0,"o":"m 685 972 l 685 965 b 744 700 778 965 790 829 b 642 424 726 647 653 454 b 425 844 622 463 454 788 b 439 965 403 889 385 965 l 439 972 l 35 972 l 35 965 b 247 747 121 965 203 832 b 432 401 279 683 372 513 l 432 160 b 344 7 432 58 424 7 l 344 0 l 735 0 l 735 7 b 647 160 656 7 649 58 l 647 421 b 772 750 647 421 721 613 b 988 965 817 872 899 950 l 988 972 z "},"Z":{"ha":821,"x_min":0,"x_max":0,"o":"m 779 972 l 132 972 l 86 774 l 92 774 b 351 965 132 865 211 965 l 550 965 l 42 7 l 42 0 l 701 0 l 749 199 l 742 199 b 489 7 701 107 629 7 l 271 7 l 779 965 z "},"€":{"ha":1042,"x_min":0,"x_max":0,"o":"m 697 -3 b 346 411 492 -7 374 203 l 593 411 l 593 418 l 344 418 b 340 453 343 429 342 440 b 339 532 339 478 338 504 l 626 532 l 626 539 l 339 539 b 610 975 344 742 425 960 b 976 674 854 996 976 760 l 982 674 l 982 1024 l 976 1024 b 861 953 976 929 925 936 b 608 982 797 969 693 990 b 100 539 351 960 126 808 l 14 539 l 14 532 l 99 532 b 99 440 96 503 96 472 b 100 418 99 432 100 425 l 14 418 l 14 411 l 101 411 b 697 -10 139 100 418 -28 b 1000 111 849 0 925 51 l 1000 132 b 697 -3 925 61 828 0 z "},"£":{"ha":682,"x_min":0,"x_max":0,"o":"m 647 196 b 267 7 576 78 465 7 l 75 7 b 404 490 338 76 442 232 l 593 490 l 593 497 l 404 497 b 375 629 397 539 388 582 b 415 1019 301 888 260 1019 b 506 878 550 1019 494 925 b 617 844 519 821 586 814 b 603 965 643 872 643 929 b 394 1026 563 1003 496 1026 b 122 828 300 1026 129 1000 b 190 497 118 731 161 618 l 68 497 l 68 490 l 192 490 b 213 231 211 407 225 319 b 28 7 189 54 99 7 l 28 0 l 624 0 l 654 196 z "},"$":{"ha":749,"x_min":0,"x_max":0,"o":"m 707 282 b 378 649 707 479 515 557 l 378 979 b 633 667 540 976 633 833 l 640 667 l 640 1024 l 633 1024 b 556 946 633 946 606 932 b 378 986 497 961 451 985 l 378 1121 l 371 1121 l 371 986 b 47 708 182 986 47 874 b 371 342 47 500 236 432 l 371 -4 b 344 -6 363 -6 353 -6 b 47 307 125 -6 47 226 l 42 307 l 42 -50 l 47 -50 b 165 14 47 44 119 26 b 347 -12 217 0 272 -12 b 371 -12 356 -12 363 -12 l 371 -147 l 378 -147 l 378 -12 b 707 282 590 -1 707 122 z m 239 835 b 371 979 239 904 283 976 l 371 653 b 239 835 297 703 239 756 z m 378 -4 l 378 338 b 506 139 450 288 506 229 b 378 -4 506 81 472 10 z "},"¢":{"ha":756,"x_min":0,"x_max":0,"o":"m 500 -7 b 435 4 476 -7 454 -3 l 435 694 b 622 626 514 701 593 668 b 590 532 653 583 606 579 b 665 450 575 486 611 442 b 706 576 719 458 733 526 b 435 700 681 625 575 707 l 435 797 l 428 797 l 428 700 b 43 321 236 688 28 574 b 428 -12 58 86 247 -3 l 428 -111 l 435 -111 l 435 -12 b 500 -12 457 -12 479 -14 b 703 63 589 -7 658 28 l 703 79 b 500 -7 665 38 575 -7 z m 254 324 b 428 694 242 486 289 678 l 428 7 b 254 324 321 50 264 185 z "},"¥":{"ha":1022,"x_min":0,"x_max":0,"o":"m 685 972 l 685 965 b 744 700 778 965 790 829 b 642 425 726 647 653 454 b 425 844 622 463 454 788 b 439 965 403 889 385 965 l 439 972 l 35 972 l 35 965 b 247 747 122 965 203 832 b 429 407 279 685 369 518 l 293 407 l 293 400 l 432 400 l 432 314 l 293 314 l 293 307 l 432 307 l 432 160 b 344 7 432 57 424 7 l 344 0 l 735 0 l 735 7 b 647 160 656 7 647 57 l 647 307 l 769 307 l 769 314 l 647 314 l 647 400 l 769 400 l 769 407 l 647 407 l 647 421 b 772 750 647 421 721 613 b 988 965 817 872 899 950 l 988 972 z "},"₽":{"ha":857,"x_min":0,"x_max":0,"o":"m 492 421 b 815 697 643 421 815 499 b 506 972 815 896 640 972 l 65 972 l 65 965 b 153 813 144 965 151 914 l 153 421 l 28 421 l 28 414 l 153 414 l 153 317 l 28 317 l 28 310 l 153 310 l 153 160 b 65 7 151 57 144 7 l 65 0 l 456 0 l 456 7 b 368 160 376 7 368 57 l 368 310 l 506 310 l 506 317 l 368 317 l 368 421 z m 472 965 b 586 697 553 965 586 825 b 472 428 586 569 576 428 b 368 428 446 428 407 428 l 368 813 b 456 965 368 914 376 965 z "},"₿":{"ha":871,"x_min":0,"x_max":0,"o":"m 531 494 b 768 731 654 515 768 582 b 458 972 768 913 593 972 l 443 972 l 443 1121 l 438 1121 l 438 972 l 363 972 l 363 1121 l 356 1121 l 356 972 l 42 972 l 42 965 b 129 813 121 965 129 914 l 129 160 b 42 7 129 57 121 7 l 42 0 l 390 0 l 390 -147 l 396 -147 l 396 0 l 471 0 l 471 -147 l 478 -147 l 478 0 l 513 0 b 836 246 664 0 836 64 b 531 494 836 425 674 493 z m 344 813 b 428 965 344 913 350 965 b 539 731 506 965 539 840 b 426 494 539 619 529 494 b 344 494 404 494 375 494 z m 450 7 b 432 7 444 7 438 7 b 344 160 353 7 344 57 l 344 488 l 446 488 l 450 488 b 607 246 550 488 607 390 b 450 7 607 101 553 7 z "},"¤":{"ha":628,"x_min":0,"x_max":0,"o":"m 522 453 b 463 599 522 510 499 561 l 586 710 l 572 724 l 457 603 b 313 661 419 639 369 661 b 169 604 258 661 207 639 l 56 724 l 42 710 l 165 599 b 104 453 128 561 104 510 b 164 307 104 396 128 344 l 42 197 l 56 183 l 169 301 b 313 244 207 267 257 244 b 458 303 369 244 421 267 l 572 183 l 586 197 l 463 308 b 522 453 499 346 522 396 z m 111 453 b 313 654 111 564 201 654 b 515 453 425 654 515 564 b 313 251 515 342 425 251 b 111 453 201 251 111 342 z "},"a":{"ha":771,"x_min":0,"x_max":0,"o":"m 717 -4 b 650 144 653 -4 650 50 b 650 468 650 144 650 329 b 350 700 650 656 481 700 b 101 565 201 700 124 617 b 146 449 78 508 104 457 b 214 518 194 439 225 481 b 178 619 203 557 158 575 b 346 694 199 663 256 694 b 440 488 447 694 440 606 b 440 360 440 451 440 406 b 381 329 426 349 407 339 b 43 131 242 282 50 303 b 319 -1 38 -21 215 -33 b 444 115 378 15 418 60 b 693 -14 468 -3 613 -14 b 764 3 719 -14 747 -7 l 764 11 b 717 -4 757 6 738 -4 z m 343 14 b 232 163 258 -29 222 36 b 388 326 240 289 319 301 b 440 351 410 335 428 343 b 440 151 440 251 440 151 b 443 125 440 142 442 133 b 343 14 421 78 390 36 z "},"b":{"ha":888,"x_min":0,"x_max":0,"o":"m 526 700 b 324 568 425 700 358 639 b 324 807 324 643 324 729 b 347 1015 324 947 333 1008 l 347 1022 l 28 1022 l 28 1015 b 115 864 101 1015 114 976 l 115 0 l 122 0 b 368 74 122 0 304 144 b 539 -14 400 39 446 -14 b 846 343 742 -14 846 104 b 526 700 846 582 690 700 z m 504 0 b 340 151 429 0 364 71 b 324 343 332 182 324 242 b 324 551 324 404 324 551 b 499 690 354 639 439 690 b 633 343 614 690 633 558 b 504 0 633 118 596 0 z "},"c":{"ha":756,"x_min":0,"x_max":0,"o":"m 500 -7 b 254 322 347 -6 267 156 b 435 693 242 488 292 682 b 622 626 515 699 594 667 b 590 532 653 582 606 579 b 665 449 575 485 611 440 b 707 575 719 457 733 525 b 435 699 681 625 575 707 b 43 319 242 688 28 575 b 501 -12 61 54 303 -25 b 703 61 589 -7 660 26 l 703 78 b 500 -7 667 36 575 -7 z "},"d":{"ha":876,"x_min":0,"x_max":0,"o":"m 761 160 l 761 807 b 783 1015 761 947 771 1008 l 783 1022 l 464 1022 l 464 1015 b 551 864 539 1015 551 976 l 551 697 b 340 683 485 701 424 704 b 43 343 193 646 53 565 b 364 -14 33 114 171 -14 b 549 103 443 -14 510 21 b 528 7 544 40 538 11 l 528 0 l 849 0 l 849 7 b 761 158 774 7 761 46 z m 551 215 b 550 117 551 176 551 144 b 399 0 521 51 469 0 b 253 340 303 0 249 151 b 374 679 256 518 286 643 b 551 692 413 696 493 697 z "},"e":{"ha":799,"x_min":0,"x_max":0,"o":"m 764 463 b 426 699 743 626 615 707 b 43 319 235 690 32 568 b 497 -12 54 71 299 -24 b 729 64 599 -7 676 31 l 729 81 b 496 -7 682 36 578 -7 b 250 322 339 -6 263 156 b 257 463 246 368 251 417 z m 426 693 b 568 467 533 700 564 585 l 257 467 b 426 693 274 586 324 688 z "},"f":{"ha":475,"x_min":0,"x_max":0,"o":"m 496 1006 b 371 1026 486 1011 439 1026 b 115 760 278 1026 115 993 l 115 686 l 39 686 l 39 679 l 115 679 l 115 160 b 28 7 115 47 103 7 l 28 0 l 413 0 l 413 7 b 325 160 338 7 325 47 l 325 679 l 458 679 l 458 686 l 325 686 l 325 824 b 401 1019 325 918 314 1019 b 418 915 456 1019 407 957 b 529 892 436 858 506 861 b 496 1006 553 922 550 979 z "},"g":{"ha":754,"x_min":0,"x_max":0,"o":"m 753 -47 b 439 90 739 51 654 67 b 250 181 289 107 192 144 b 389 168 297 167 347 164 b 671 431 511 179 681 260 b 531 618 665 525 606 585 b 554 656 538 633 546 647 b 639 643 588 686 606 647 b 690 713 675 639 706 672 b 588 729 678 747 628 760 b 526 619 567 714 540 672 b 349 649 468 644 401 654 b 67 385 226 638 54 561 b 243 183 75 272 154 210 b 136 135 207 174 161 163 b 164 -21 96 88 106 14 b 594 -108 271 -83 522 -74 b 510 -310 658 -139 643 -240 b 143 -208 368 -383 157 -374 b 229 -81 138 -132 171 -87 b 342 -94 285 -75 342 -94 l 342 -81 b 235 -75 308 -76 271 -75 b 1 -219 133 -78 -14 -99 b 463 -340 18 -350 299 -386 b 753 -47 631 -293 769 -175 z m 349 643 b 481 424 439 650 468 563 b 389 174 492 283 479 183 b 257 392 299 167 269 253 b 349 643 246 532 258 633 z "},"h":{"ha":893,"x_min":0,"x_max":0,"o":"m 778 160 l 778 444 b 533 700 778 622 681 700 b 324 590 419 700 368 658 l 324 807 b 347 1015 324 947 333 1008 l 347 1022 l 28 1022 l 28 1015 b 115 864 107 1015 114 965 l 115 160 b 28 7 114 47 101 7 l 28 0 l 411 0 l 411 7 b 324 160 338 7 324 47 l 324 576 b 475 686 356 643 418 686 b 569 471 576 686 569 565 l 569 160 b 482 7 569 47 556 7 l 482 0 l 865 0 l 865 7 b 778 158 792 7 779 46 z "},"i":{"ha":440,"x_min":0,"x_max":0,"o":"m 325 160 l 325 471 b 347 679 325 611 335 672 l 347 686 l 28 686 l 28 679 b 115 528 103 679 115 640 l 115 160 b 28 7 115 47 103 7 l 28 0 l 413 0 l 413 7 b 325 158 338 7 325 46 z m 219 794 b 329 908 281 794 329 846 b 219 1022 329 972 281 1022 b 111 908 160 1022 111 972 b 219 794 111 846 160 794 z "},"j":{"ha":440,"x_min":0,"x_max":0,"o":"m 233 794 b 342 908 293 794 342 846 b 233 1022 342 972 293 1022 b 124 908 172 1022 124 972 b 233 794 124 846 172 794 z m 40 686 l 40 679 b 128 528 115 679 128 640 l 128 -121 b 0 -399 128 -293 88 -367 l 0 -407 b 338 -104 149 -394 338 -324 l 338 471 b 361 679 338 611 347 672 l 361 686 z "},"k":{"ha":897,"x_min":0,"x_max":0,"o":"m 688 189 b 488 503 638 268 501 479 b 567 579 514 528 540 554 b 779 679 643 651 744 679 l 779 686 l 482 686 l 482 679 b 569 650 531 679 557 669 b 560 582 583 629 578 600 b 325 351 510 532 385 411 l 325 807 b 349 1015 325 947 335 1008 l 349 1022 l 28 1022 l 28 1015 b 115 864 103 1015 115 976 l 115 158 b 28 7 115 46 103 7 l 28 0 l 413 0 l 413 7 b 325 158 338 7 325 46 l 325 343 b 347 365 331 350 339 357 l 576 0 l 876 0 l 876 7 b 688 189 808 7 750 92 z "},"l":{"ha":439,"x_min":0,"x_max":0,"o":"m 324 807 b 347 1015 324 947 333 1008 l 347 1022 l 28 1022 l 28 1015 b 115 864 101 1015 114 976 l 115 160 b 28 7 114 47 101 7 l 28 0 l 411 0 l 411 7 b 324 160 338 7 324 46 z "},"m":{"ha":1335,"x_min":0,"x_max":0,"o":"m 1219 444 b 974 700 1219 622 1122 700 b 753 561 854 700 799 647 b 526 700 718 657 636 700 b 328 597 417 700 369 661 b 347 679 332 650 339 675 l 347 686 l 28 686 l 28 679 b 115 528 101 679 115 640 l 115 160 b 28 7 115 47 101 7 l 28 0 l 411 0 l 411 7 b 324 160 338 7 325 47 b 326 583 324 160 325 554 b 469 686 358 646 414 686 b 563 471 569 686 563 565 l 563 160 b 475 7 563 47 550 7 l 475 0 l 860 0 l 860 7 b 772 160 785 7 772 47 l 772 444 b 756 554 772 486 767 522 b 917 686 790 631 853 686 b 1011 471 1017 686 1011 565 l 1011 160 b 924 7 1010 47 997 7 l 924 0 l 1307 0 l 1307 7 b 1219 160 1233 7 1219 46 z "},"n":{"ha":894,"x_min":0,"x_max":0,"o":"m 779 160 l 779 444 b 533 700 779 622 682 700 b 328 597 424 700 371 661 b 349 679 332 650 340 675 l 349 686 l 28 686 l 28 679 b 115 528 103 679 115 642 l 115 160 b 28 7 115 47 103 7 l 28 0 l 413 0 l 413 7 b 325 160 338 7 325 47 l 325 471 b 328 583 325 517 325 553 b 476 686 360 646 421 686 b 571 471 576 686 571 565 l 571 160 b 483 7 569 47 557 7 l 483 0 l 867 0 l 867 7 b 779 158 793 7 779 46 z "},"o":{"ha":878,"x_min":0,"x_max":0,"o":"m 835 378 b 393 699 822 611 590 719 b 43 310 197 676 25 546 b 482 -12 63 64 296 -26 b 835 378 668 0 847 147 z m 482 -7 b 261 318 365 -18 282 126 b 394 693 242 501 279 682 b 615 367 510 703 597 564 b 482 -7 632 182 599 4 z "},"p":{"ha":857,"x_min":0,"x_max":0,"o":"m 493 700 b 332 629 424 700 369 671 b 347 679 336 661 342 675 l 347 686 l 28 686 l 28 679 b 115 528 103 679 115 642 l 115 -114 b 28 -265 115 -228 103 -265 l 28 -272 l 413 -272 l 413 -265 b 324 -114 338 -265 325 -228 l 324 65 b 493 -14 363 19 418 -14 b 815 343 668 -14 815 104 b 493 700 815 582 664 700 z m 467 -3 b 324 74 421 -3 364 24 l 324 471 b 331 619 324 538 326 586 b 467 690 369 665 424 690 b 607 343 581 690 607 558 b 467 -3 607 128 581 -3 z "},"q":{"ha":893,"x_min":0,"x_max":0,"o":"m 778 528 b 865 679 778 642 792 679 l 865 686 b 667 686 865 686 669 686 b 447 700 553 686 525 700 b 44 343 226 700 61 586 b 347 -14 28 101 156 -14 b 569 249 478 -14 549 90 l 569 -114 b 482 -265 568 -215 561 -265 l 482 -272 l 865 -272 l 865 -265 b 778 -114 786 -265 778 -215 z m 565 343 b 542 151 565 274 564 215 b 382 0 515 71 458 0 b 260 343 283 0 250 149 b 438 693 269 546 300 693 b 568 586 546 693 565 672 b 565 343 567 515 565 401 z "},"r":{"ha":672,"x_min":0,"x_max":0,"o":"m 522 700 b 325 500 465 694 363 619 b 347 679 326 619 335 672 l 347 686 l 28 686 l 28 679 b 115 528 103 679 115 642 l 115 160 b 28 7 115 47 103 7 l 28 0 l 411 0 l 411 7 b 324 160 338 7 325 47 b 324 481 324 160 324 479 b 447 646 346 556 400 632 b 522 558 497 661 469 593 b 633 599 554 539 621 546 b 522 700 650 661 604 707 z "},"s":{"ha":651,"x_min":0,"x_max":0,"o":"m 215 589 b 331 693 215 657 260 693 b 465 647 390 693 440 674 b 451 542 499 610 456 582 b 526 488 449 501 490 474 b 543 603 567 501 574 557 b 303 700 517 642 438 700 b 57 519 175 700 64 643 b 458 108 42 249 468 294 b 297 -7 454 35 388 -7 b 135 51 222 -7 161 21 b 151 160 99 90 149 119 b 76 215 154 197 121 229 b 61 99 40 203 29 144 b 307 -12 88 60 165 -12 b 607 179 472 -12 590 57 b 215 589 644 461 215 435 z "},"t":{"ha":456,"x_min":0,"x_max":0,"o":"m 374 -3 b 300 178 307 -3 300 85 l 300 679 l 424 679 l 424 686 l 300 686 l 300 856 l 296 856 l 293 856 b 92 738 267 768 165 738 b 92 686 92 731 92 686 b 28 686 92 686 50 686 l 28 679 l 92 679 b 92 206 92 558 92 206 b 347 -14 92 0 253 -14 b 435 4 388 -14 414 -7 l 435 11 b 374 -3 425 7 401 -3 z "},"u":{"ha":888,"x_min":0,"x_max":0,"o":"m 772 160 l 772 160 l 772 471 b 796 679 772 611 782 672 l 796 686 l 475 686 l 475 679 b 563 528 550 679 563 642 l 563 215 b 560 104 563 171 563 133 b 411 0 528 40 467 0 b 318 215 311 0 318 121 l 318 471 b 342 679 318 611 328 672 l 342 686 l 21 686 l 21 679 b 108 528 96 679 108 642 l 108 243 b 354 -14 108 64 207 -14 b 560 90 464 -14 517 25 b 540 7 556 38 549 11 l 540 0 l 860 0 l 860 7 b 772 158 785 7 772 46 z "},"v":{"ha":751,"x_min":0,"x_max":0,"o":"m 529 686 l 529 679 b 576 493 594 679 603 565 b 481 224 569 476 524 346 b 332 586 465 260 358 521 b 354 679 303 657 307 679 l 354 686 l 14 686 l 14 679 b 128 549 75 679 100 611 b 375 0 158 482 375 0 l 406 0 b 596 529 406 0 563 443 b 738 679 628 614 675 667 l 738 686 z "},"w":{"ha":1099,"x_min":0,"x_max":0,"o":"m 875 686 l 875 679 b 922 493 942 679 949 565 b 831 213 917 476 871 339 l 636 686 l 610 686 l 467 231 b 318 586 451 267 351 508 b 340 679 289 656 293 679 l 340 686 l 14 686 l 14 679 b 128 549 75 679 100 611 b 369 0 165 464 369 0 l 399 0 l 540 451 l 736 0 l 765 0 b 942 529 765 0 908 443 b 1085 679 975 614 1022 667 l 1085 686 z "},"x":{"ha":774,"x_min":0,"x_max":0,"o":"m 593 172 b 444 411 576 197 513 301 b 544 561 476 461 518 522 b 714 679 599 636 651 667 l 714 686 l 504 686 l 504 679 b 528 546 571 679 571 610 b 442 414 513 524 475 465 b 344 572 408 468 374 524 b 342 679 310 629 292 679 l 342 686 l 21 686 l 21 679 b 192 497 88 679 154 554 b 315 297 219 451 268 374 b 200 126 278 242 229 168 b 32 7 147 51 94 18 l 32 0 l 240 0 l 240 7 b 217 140 174 7 174 78 b 318 294 233 165 281 236 b 433 107 368 214 415 136 b 432 7 461 63 479 7 l 432 0 l 753 0 l 753 7 b 593 172 692 7 638 104 z "},"y":{"ha":756,"x_min":0,"x_max":0,"o":"m 533 686 l 533 679 b 581 493 599 679 607 565 b 475 206 574 475 535 369 b 313 586 458 247 339 521 b 335 679 283 657 288 679 l 335 686 l 14 686 l 14 679 b 129 549 76 679 101 611 b 379 0 160 482 379 0 l 401 0 b 250 -260 361 -118 300 -218 b 163 -175 189 -308 196 -201 b 61 -225 119 -140 56 -175 b 168 -301 69 -279 121 -304 b 408 0 257 -296 340 -185 b 599 529 429 54 579 476 b 742 679 632 614 679 667 l 742 686 z "},"z":{"ha":633,"x_min":0,"x_max":0,"o":"m 592 686 l 115 686 l 75 535 l 81 535 b 269 679 108 599 171 679 l 390 679 l 42 7 l 42 0 l 542 0 l 585 153 l 579 153 b 386 7 551 88 485 7 l 242 7 l 592 679 z "},".":{"ha":242,"x_min":0,"x_max":0,"o":"m 121 144 b 42 65 78 144 42 108 b 121 -14 42 21 78 -14 b 200 65 165 -14 200 21 b 121 144 200 108 165 144 z "},",":{"ha":243,"x_min":0,"x_max":0,"o":"m 200 65 b 121 144 197 111 164 144 b 42 65 76 144 42 108 b 121 -14 42 21 76 -14 b 190 28 151 -14 178 3 b 78 -108 190 -14 169 -115 l 78 -114 b 200 65 181 -118 203 -14 z "},":":{"ha":243,"x_min":0,"x_max":0,"o":"m 121 144 b 42 65 78 144 42 108 b 121 -14 42 21 78 -14 b 200 65 165 -14 200 21 b 121 144 200 108 165 144 z m 122 424 b 201 503 167 424 201 458 b 122 582 201 546 167 582 b 43 503 79 582 43 546 b 122 424 43 458 79 424 z "},";":{"ha":243,"x_min":0,"x_max":0,"o":"m 121 582 b 42 503 78 582 42 546 b 121 424 42 458 78 424 b 200 503 165 424 200 458 b 121 582 200 546 165 582 z m 200 65 b 121 144 197 111 164 144 b 42 65 78 144 42 108 b 121 -14 42 21 78 -14 b 190 28 151 -14 178 3 b 78 -108 190 -14 169 -115 l 78 -114 b 200 65 181 -118 204 -14 z "},"!":{"ha":242,"x_min":0,"x_max":0,"o":"m 121 144 b 42 65 78 144 42 108 b 121 -14 42 21 78 -14 b 200 65 165 -14 200 21 b 121 144 200 108 165 144 z m 104 504 b 118 246 118 367 118 246 l 121 246 l 125 246 b 138 504 125 246 125 367 b 199 878 151 642 192 782 b 121 972 203 926 182 972 b 43 878 61 972 40 926 b 104 504 51 782 90 642 z "},"?":{"ha":571,"x_min":0,"x_max":0,"o":"m 249 986 b 161 594 -24 986 3 653 b 161 615 161 606 161 606 b 232 979 10 686 17 979 b 343 729 360 979 363 854 b 218 232 315 561 204 447 b 225 232 218 232 221 232 b 524 740 225 485 490 544 b 249 986 558 940 372 986 z m 228 144 b 149 65 185 144 149 108 b 228 -14 149 21 185 -14 b 307 65 272 -14 307 21 b 228 144 307 108 272 144 z "},"@":{"ha":979,"x_min":0,"x_max":0,"o":"m 819 686 b 488 819 739 774 624 819 b 161 699 347 819 238 779 b 42 338 82 617 42 494 b 160 -11 42 185 82 68 b 451 -118 229 -81 331 -118 b 807 4 681 -118 806 3 l 803 7 b 451 -112 803 7 678 -112 b 47 338 194 -112 47 51 b 488 815 47 644 203 815 b 933 365 754 815 933 633 b 800 53 933 124 851 53 b 743 176 746 53 743 99 b 743 431 743 176 743 315 b 479 639 743 588 619 639 b 290 482 360 639 300 551 b 326 285 278 393 303 322 b 235 165 274 265 236 233 b 468 54 232 40 381 29 b 572 153 518 69 550 107 b 779 44 592 54 713 44 b 938 365 913 44 938 238 b 819 686 938 490 896 606 z m 331 286 b 293 474 290 351 288 433 b 479 635 307 590 404 635 b 569 464 563 635 569 561 b 569 357 569 433 569 394 b 519 331 557 347 540 339 b 331 286 460 311 389 306 z m 488 67 b 394 192 417 32 388 88 b 525 328 403 297 468 307 b 569 350 544 336 558 343 b 569 182 569 265 569 182 b 571 161 569 175 569 168 b 488 67 553 121 528 88 z "},"#":{"ha":729,"x_min":0,"x_max":0,"o":"m 688 507 l 688 514 l 490 514 l 490 729 l 485 729 l 485 514 l 246 514 l 246 729 l 239 729 l 239 514 l 42 514 l 42 507 l 239 507 l 239 272 l 42 272 l 42 265 l 239 265 l 239 50 l 246 50 l 246 265 l 485 265 l 485 50 l 490 50 l 490 265 l 688 265 l 688 272 l 490 272 l 490 507 z m 485 272 l 246 272 l 246 507 l 485 507 z "},"=":{"ha":474,"x_min":0,"x_max":0,"o":"m 42 474 l 42 467 l 432 467 l 432 474 z m 42 306 l 432 306 l 432 313 l 42 313 z "},"+":{"ha":474,"x_min":0,"x_max":0,"o":"m 432 393 l 240 393 l 240 585 l 233 585 l 233 393 l 42 393 l 42 386 l 233 386 l 233 194 l 240 194 l 240 386 l 432 386 z "},"×":{"ha":364,"x_min":0,"x_max":0,"o":"m 322 525 l 317 531 l 182 394 l 46 531 l 42 525 l 176 390 l 42 254 l 46 250 l 182 385 l 317 250 l 322 254 l 186 390 z "},"÷":{"ha":474,"x_min":0,"x_max":0,"o":"m 42 393 l 42 386 l 432 386 l 432 393 z m 236 299 b 179 242 206 299 179 274 b 236 185 179 210 206 185 b 294 242 268 185 294 210 b 236 299 294 274 268 299 z m 236 481 b 294 538 268 481 294 507 b 236 594 294 569 268 594 b 179 538 206 594 179 569 b 236 481 179 507 206 481 z "},"−":{"ha":475,"x_min":0,"x_max":0,"o":"m 42 393 l 42 386 l 433 386 l 433 393 z "},"≠":{"ha":488,"x_min":0,"x_max":0,"o":"m 432 467 l 432 474 l 325 474 l 376 525 l 372 531 l 315 474 l 42 474 l 42 467 l 308 467 l 154 313 l 42 313 l 42 306 l 147 306 l 96 254 l 101 250 l 157 306 l 432 306 l 432 313 l 164 313 l 318 467 z m 56 474 l 56 467 l 446 467 l 446 474 z m 56 306 l 446 306 l 446 313 l 56 313 z "},"-":{"ha":393,"x_min":0,"x_max":0,"o":"m 42 393 l 42 386 l 351 386 l 351 393 z "},"–":{"ha":493,"x_min":0,"x_max":0,"o":"m 42 393 l 42 386 l 451 386 l 451 393 z "},"_":{"ha":474,"x_min":0,"x_max":0,"o":"m 42 -7 l 42 -14 l 432 -14 l 432 -7 z "},"”":{"ha":349,"x_min":0,"x_max":0,"o":"m 163 965 b 103 1026 161 1000 136 1026 b 42 965 69 1026 42 999 b 103 906 42 932 69 906 b 156 938 126 906 146 918 b 69 833 157 906 140 828 l 69 829 b 163 965 149 825 167 906 z m 306 965 b 246 1026 304 1000 279 1026 b 185 965 213 1026 185 999 b 246 906 185 932 213 906 b 299 938 268 906 289 918 b 213 833 299 906 283 828 l 213 829 b 306 965 292 825 308 906 z "},"“":{"ha":349,"x_min":0,"x_max":0,"o":"m 185 889 b 246 829 188 854 213 829 b 307 889 279 829 307 856 b 246 950 307 922 279 950 b 192 918 222 950 203 936 b 279 1022 192 950 208 1028 l 279 1026 b 185 889 200 1029 182 950 z m 43 889 b 103 829 44 854 69 829 b 164 889 136 829 164 856 b 103 950 164 922 136 950 b 50 918 81 950 60 936 b 136 1022 50 950 65 1028 l 136 1026 b 43 889 57 1029 39 950 z "},"„":{"ha":349,"x_min":0,"x_max":0,"o":"m 163 47 b 103 107 161 82 136 107 b 42 47 69 107 42 81 b 103 -14 42 14 69 -14 b 156 18 125 -14 146 0 b 69 -86 156 -14 140 -90 l 69 -90 b 163 47 149 -93 167 -14 z m 306 47 b 246 107 304 82 279 107 b 185 47 211 107 185 81 b 246 -14 185 14 211 -14 b 299 18 268 -14 289 0 b 213 -86 299 -14 283 -90 l 213 -90 b 306 47 292 -93 308 -14 z "},"‘":{"ha":206,"x_min":0,"x_max":0,"o":"m 43 889 b 103 829 44 854 69 829 b 164 889 136 829 164 856 b 103 950 164 922 136 950 b 50 918 81 950 60 936 b 136 1022 50 950 65 1028 l 136 1026 b 43 889 57 1029 39 950 z "},"‚":{"ha":206,"x_min":0,"x_max":0,"o":"m 163 47 b 103 107 161 82 136 107 b 42 47 68 107 42 81 b 103 -14 42 14 68 -14 b 156 18 125 -14 146 0 b 69 -86 156 -14 140 -90 l 69 -90 b 163 47 149 -93 165 -14 z "},"’":{"ha":207,"x_min":0,"x_max":0,"o":"m 164 965 b 103 1026 161 1000 136 1026 b 42 965 69 1026 42 999 b 103 906 42 932 69 906 b 157 938 126 906 146 918 b 69 833 157 906 140 828 l 69 829 b 164 965 149 825 167 906 z "},"'":{"ha":163,"x_min":0,"x_max":0,"o":"m 81 972 b 44 904 51 972 38 953 b 78 774 51 857 75 828 b 81 774 81 774 81 774 b 85 774 81 774 81 774 b 118 904 88 828 111 857 b 81 972 125 953 111 972 z "},"\"":{"ha":261,"x_min":0,"x_max":0,"o":"m 82 972 b 44 904 51 972 38 953 b 78 774 51 857 75 828 b 82 774 82 774 82 774 b 85 774 82 774 82 774 b 119 904 89 828 113 857 b 82 972 126 953 113 972 z m 179 972 b 142 904 149 972 135 953 b 176 774 149 857 172 828 b 179 774 179 774 179 774 b 183 774 179 774 179 774 b 217 904 186 828 210 857 b 179 972 224 953 210 972 z "},"°":{"ha":279,"x_min":0,"x_max":0,"o":"m 139 792 b 238 889 193 792 238 836 b 139 988 238 943 193 988 b 42 889 86 988 42 943 b 139 792 42 836 86 792 z m 139 981 b 231 889 190 981 231 940 b 139 799 231 839 190 799 b 49 889 89 799 49 839 b 139 981 49 940 89 981 z "},"±":{"ha":474,"x_min":0,"x_max":0,"o":"m 240 443 l 240 636 l 233 636 l 233 443 l 42 443 l 42 438 l 233 438 l 233 246 l 240 246 l 240 438 l 432 438 l 432 443 z m 42 178 l 432 178 l 432 185 l 42 185 z "},"|":{"ha":90,"x_min":0,"x_max":0,"o":"m 42 1032 l 42 -51 l 49 -51 l 49 1032 z "},"⁄":{"ha":292,"x_min":0,"x_max":0,"o":"m 243 986 l 42 0 l 49 0 l 250 986 z "},"[":{"ha":271,"x_min":0,"x_max":0,"o":"m 257 1032 l 257 1039 l 42 1039 l 42 -35 l 257 -35 l 257 -28 l 165 -28 l 165 1032 z "},"]":{"ha":271,"x_min":0,"x_max":0,"o":"m 14 1039 l 14 1032 l 104 1032 l 104 -28 l 14 -28 l 14 -35 l 229 -35 l 229 1039 z "},"\\":{"ha":292,"x_min":0,"x_max":0,"o":"m 49 986 l 42 986 l 243 0 l 250 0 z "},"¦":{"ha":90,"x_min":0,"x_max":0,"o":"m 42 -17 l 49 -17 l 49 360 l 42 360 z m 42 999 l 42 622 l 49 622 l 49 999 z "},"%":{"ha":783,"x_min":0,"x_max":0,"o":"m 557 986 l 207 0 l 214 0 l 564 986 z m 211 986 b 42 790 117 985 42 925 b 211 596 42 657 117 596 b 382 790 307 596 382 657 b 211 986 382 925 307 986 z m 211 600 b 139 790 150 600 139 708 b 211 981 139 874 150 981 b 285 790 274 981 285 874 b 211 600 285 708 274 600 z m 572 376 b 401 181 476 376 401 315 b 572 -14 401 47 476 -14 b 742 181 667 -14 742 47 b 572 376 742 315 667 376 z m 572 -10 b 499 181 510 -10 499 99 b 572 371 499 264 510 371 b 644 181 635 371 644 264 b 572 -10 644 99 635 -10 z "},"¶":{"ha":318,"x_min":0,"x_max":0,"o":"m 271 986 l 271 0 l 276 0 l 276 986 z m 42 796 b 217 606 42 672 124 610 l 217 0 l 224 0 l 224 606 l 224 986 b 42 796 128 985 42 922 z "},"§":{"ha":597,"x_min":0,"x_max":0,"o":"m 317 832 b 479 988 317 943 406 988 b 479 993 479 988 479 988 b 43 699 315 993 33 921 b 286 158 53 474 307 360 b 107 -1 275 53 211 -1 b 107 -7 107 -7 107 -7 b 554 289 353 -7 544 83 b 317 832 564 494 317 610 z m 443 253 b 264 22 433 125 350 53 b 394 194 338 53 388 111 b 156 738 411 406 156 517 b 294 940 156 838 222 903 b 210 793 246 908 213 858 b 443 253 204 578 458 454 z "},">":{"ha":374,"x_min":0,"x_max":0,"o":"m 42 717 l 42 710 l 328 478 l 42 246 l 42 239 l 332 474 l 332 481 z "},"<":{"ha":372,"x_min":0,"x_max":0,"o":"m 331 717 l 42 481 l 42 474 l 331 239 l 331 246 l 46 478 l 331 710 z "},"(":{"ha":481,"x_min":0,"x_max":0,"o":"m 439 1013 b 439 1019 439 1013 439 1015 b 42 417 165 1019 42 689 b 439 -186 42 144 165 -186 b 439 -179 439 -182 439 -179 b 186 417 264 -179 186 124 b 439 1013 186 710 264 1013 z "},")":{"ha":481,"x_min":0,"x_max":0,"o":"m 42 1019 b 42 1013 42 1015 42 1013 b 294 417 217 1013 294 710 b 42 -179 294 124 217 -179 b 42 -186 42 -179 42 -182 b 439 417 314 -186 439 144 b 42 1019 439 689 314 1019 z "},"*":{"ha":447,"x_min":0,"x_max":0,"o":"m 403 1014 b 342 1026 397 1033 378 1044 b 228 960 308 1010 267 976 b 256 1092 231 1003 250 1054 b 225 1146 261 1131 244 1146 b 193 1092 204 1146 188 1131 b 222 960 199 1054 219 1003 b 106 1026 182 975 140 1010 b 44 1014 71 1044 51 1033 b 86 968 39 994 47 974 b 219 954 124 961 178 964 b 115 872 190 924 143 897 b 106 811 86 846 90 824 b 164 833 121 797 143 799 b 224 950 183 864 200 915 b 285 833 249 915 265 864 b 343 811 304 799 326 797 b 332 872 358 824 361 846 b 228 954 304 897 258 924 b 361 968 271 964 324 961 b 403 1014 400 974 410 994 z "},"&":{"ha":810,"x_min":0,"x_max":0,"o":"m 599 490 l 599 471 b 753 257 675 461 753 379 b 447 -8 753 121 640 -8 b 242 251 353 -8 251 71 b 396 507 233 417 299 507 b 478 507 407 507 450 507 l 478 517 b 431 517 454 517 453 517 b 276 760 329 517 276 639 b 410 979 276 881 322 978 l 410 979 l 417 979 l 417 979 b 539 625 633 974 682 708 b 539 604 539 615 539 615 b 417 985 686 667 683 968 l 424 1133 l 403 1133 l 410 985 b 393 985 404 985 399 985 b 104 767 269 985 106 935 b 346 517 104 642 208 547 b 43 254 169 511 40 421 b 431 -14 46 81 229 -14 b 433 -14 432 -14 432 -14 l 426 -165 l 447 -165 l 440 -14 b 767 265 658 -10 763 126 b 599 490 769 379 703 471 z "},"{":{"ha":289,"x_min":0,"x_max":0,"o":"m 226 336 b 108 379 203 374 156 379 b 226 424 156 379 203 386 b 139 776 294 531 165 663 b 236 1006 108 904 151 979 l 236 1008 b 47 760 118 985 21 911 b 156 424 75 613 182 549 b 118 386 153 410 146 390 b 68 397 92 383 68 397 l 68 363 b 118 374 68 363 92 376 b 156 336 146 369 153 350 b 47 0 182 211 75 147 b 236 -250 21 -151 118 -225 l 236 -246 b 139 -17 151 -219 108 -144 b 226 336 165 97 294 229 z "},"}":{"ha":288,"x_min":0,"x_max":0,"o":"m 133 336 b 169 374 136 350 143 369 b 221 363 197 376 221 363 l 221 397 b 169 386 221 397 197 383 b 133 424 143 390 136 410 b 240 760 106 549 214 613 b 53 1008 268 911 171 985 l 53 1006 b 150 776 138 979 179 904 b 63 424 124 663 -6 531 b 181 379 86 386 133 379 b 63 336 133 379 86 374 b 150 -17 -6 229 124 97 b 53 -246 179 -144 138 -219 l 53 -250 b 240 0 171 -225 268 -151 b 133 336 214 147 106 211 z "},"¡":{"ha":242,"x_min":0,"x_max":0,"o":"m 121 315 b 200 394 165 315 200 351 b 121 474 200 439 165 474 b 42 394 78 474 42 439 b 121 315 42 351 78 315 z m 138 -44 b 125 215 125 94 125 215 l 121 215 l 118 215 b 104 -44 118 215 118 94 b 43 -418 90 -182 51 -322 b 121 -512 40 -467 61 -512 b 199 -418 182 -512 203 -467 b 138 -44 192 -322 151 -182 z "},"¿":{"ha":572,"x_min":0,"x_max":0,"o":"m 411 -135 b 411 -156 411 -144 411 -144 b 340 -519 563 -226 556 -519 b 229 -269 213 -519 208 -394 b 354 228 257 -101 367 13 b 347 228 354 228 350 228 b 47 -279 347 -24 81 -85 b 324 -525 13 -481 199 -525 b 411 -135 596 -525 569 -192 z m 343 315 b 422 394 388 315 422 351 b 343 474 422 439 388 474 b 264 394 300 474 264 439 b 343 315 264 351 300 315 z "},"~":{"ha":619,"x_min":0,"x_max":0,"o":"m 461 463 b 578 572 557 463 578 549 l 571 572 b 461 469 571 550 551 469 b 322 518 413 469 368 493 b 165 572 274 544 224 572 b 42 468 63 572 43 469 l 49 467 b 165 565 49 468 68 565 b 318 513 222 565 271 539 b 461 463 365 486 410 463 z "},"≈":{"ha":618,"x_min":0,"x_max":0,"o":"m 461 463 b 576 572 557 463 576 549 l 569 572 b 461 469 569 550 551 469 b 321 518 411 469 368 493 b 164 572 274 544 224 572 b 42 468 63 572 42 469 l 49 467 b 164 565 49 468 68 565 b 318 513 221 565 271 539 b 461 463 365 486 410 463 z m 461 307 b 576 417 557 307 576 393 l 569 417 b 461 314 569 394 551 314 b 321 364 411 314 368 339 b 164 418 274 390 224 418 b 42 313 63 418 42 314 l 49 313 b 164 411 49 313 68 411 b 318 358 221 411 271 383 b 461 307 365 332 410 307 z "},"^":{"ha":561,"x_min":0,"x_max":0,"o":"m 519 733 l 285 1022 l 278 1022 l 42 733 l 49 733 l 281 1018 l 514 733 z "},"›":{"ha":376,"x_min":0,"x_max":0,"o":"m 42 717 l 42 710 l 286 478 l 42 246 l 42 239 l 335 474 l 335 481 z "},"»":{"ha":521,"x_min":0,"x_max":0,"o":"m 42 717 l 42 710 l 286 478 l 42 246 l 42 239 l 333 474 l 333 481 z m 186 717 l 186 710 l 431 478 l 186 246 l 186 239 l 479 474 l 479 481 z "},"«":{"ha":521,"x_min":0,"x_max":0,"o":"m 186 481 l 186 474 l 479 239 l 479 246 l 235 478 l 479 710 l 479 717 z m 42 481 l 42 474 l 335 239 l 335 246 l 90 478 l 335 710 l 335 717 z "},"‹":{"ha":376,"x_min":0,"x_max":0,"o":"m 42 481 l 42 474 l 335 239 l 335 246 l 89 478 l 335 710 l 335 717 z "},"№":{"ha":1521,"x_min":0,"x_max":0,"o":"m 711 972 l 711 965 b 882 703 804 965 882 868 l 882 292 l 361 972 l 38 972 l 38 965 b 199 835 97 965 151 900 l 199 269 b 28 7 199 104 122 7 l 28 0 l 378 0 l 378 7 b 206 269 283 7 206 104 l 206 825 b 849 0 228 794 818 36 l 889 0 l 889 703 b 1061 965 889 868 967 965 l 1061 972 z m 1089 485 l 1089 478 l 1479 478 l 1479 485 z m 1283 986 b 1097 790 1189 986 1097 925 b 1283 596 1097 657 1188 596 b 1471 790 1379 596 1469 656 b 1283 986 1471 925 1379 985 z m 1283 600 b 1190 790 1207 600 1190 708 b 1283 981 1190 874 1207 981 b 1376 790 1361 981 1376 872 b 1283 600 1376 707 1360 600 z "},"‰":{"ha":1161,"x_min":0,"x_max":0,"o":"m 557 986 l 207 0 l 214 0 l 564 986 z m 211 986 b 42 790 117 985 42 925 b 211 596 42 657 117 596 b 382 790 307 596 382 657 b 211 986 382 925 307 986 z m 211 600 b 139 790 150 600 139 708 b 211 981 139 874 150 981 b 285 790 274 981 285 874 b 211 600 285 708 274 600 z m 572 376 b 401 181 476 376 401 315 b 572 -14 401 47 476 -14 b 742 181 667 -14 742 47 b 572 376 742 315 667 376 z m 572 -10 b 499 181 510 -10 499 99 b 572 371 499 264 510 371 b 644 181 635 371 644 264 b 572 -10 644 99 635 -10 z m 950 376 b 779 181 854 376 779 315 b 950 -14 779 47 854 -14 b 1119 181 1044 -14 1119 47 b 950 376 1119 315 1044 376 z m 950 -10 b 876 181 888 -10 876 99 b 950 371 876 264 888 371 b 1022 181 1013 371 1022 264 b 950 -10 1022 99 1013 -10 z "},"≤":{"ha":474,"x_min":0,"x_max":0,"o":"m 82 550 l 82 543 l 371 308 l 371 315 l 86 547 l 371 779 l 371 786 z m 42 186 l 42 179 l 432 179 l 432 186 z "},"≥":{"ha":474,"x_min":0,"x_max":0,"o":"m 103 786 l 103 779 l 388 547 l 103 315 l 103 308 l 392 543 l 392 550 z m 42 186 l 42 179 l 432 179 l 432 186 z "},"…":{"ha":660,"x_min":0,"x_max":0,"o":"m 121 144 b 42 65 78 144 42 108 b 121 -14 42 21 78 -14 b 200 65 165 -14 200 21 b 121 144 200 108 165 144 z m 329 144 b 250 65 286 144 250 108 b 329 -14 250 21 286 -14 b 408 65 374 -14 408 21 b 329 144 408 108 374 144 z m 539 144 b 460 65 496 144 460 108 b 539 -14 460 21 496 -14 b 618 65 583 -14 618 21 b 539 144 618 108 583 144 z "},"—":{"ha":606,"x_min":0,"x_max":0,"o":"m 42 394 l 42 388 l 564 388 l 564 394 z "},"´":{"ha":244,"x_min":0,"x_max":0,"o":"m 42 790 l 49 790 l 203 944 l 78 944 z "},"`":{"ha":244,"x_min":0,"x_max":0,"o":"m 165 944 l 42 944 l 196 790 l 203 790 z "},"˘":{"ha":358,"x_min":0,"x_max":0,"o":"m 224 903 b 179 781 217 832 210 781 b 135 903 149 781 140 832 l 42 903 b 179 776 50 811 122 776 b 317 903 236 776 308 811 z "},"ˇ":{"ha":426,"x_min":0,"x_max":0,"o":"m 385 935 l 378 935 l 213 858 l 49 935 l 42 935 l 172 781 l 253 781 z "},"¸":{"ha":257,"x_min":0,"x_max":0,"o":"m 90 -33 b 100 -8 92 -28 93 -24 l 94 -7 b 83 -37 88 -25 85 -32 b 133 -119 142 -35 139 -81 b 83 -175 128 -156 108 -182 b 42 -137 64 -168 51 -151 l 42 -153 b 90 -182 54 -167 69 -176 b 211 -132 153 -203 199 -176 b 90 -33 229 -74 188 -25 z "},"ˆ":{"ha":426,"x_min":0,"x_max":0,"o":"m 253 944 l 172 944 l 42 790 l 49 790 l 213 867 l 378 790 l 385 790 z "},"˛":{"ha":264,"x_min":0,"x_max":0,"o":"m 222 -1 l 222 6 b 43 -115 129 -3 51 -51 b 211 -146 33 -193 135 -212 l 211 -139 b 121 -108 161 -156 128 -146 b 222 -1 111 -58 158 -11 z "},"˜":{"ha":343,"x_min":0,"x_max":0,"o":"m 240 818 b 300 928 293 815 304 894 l 293 928 b 240 906 288 906 276 900 b 104 933 217 910 136 936 b 42 826 51 926 44 861 l 49 826 b 104 849 54 839 72 853 b 240 818 139 846 196 821 z "},"¨":{"ha":339,"x_min":0,"x_max":0,"o":"m 100 933 b 42 876 68 933 42 907 b 100 818 42 844 68 818 b 157 876 131 818 157 844 b 100 933 157 907 131 933 z m 240 933 b 183 876 210 933 183 907 b 240 818 183 844 210 818 b 297 876 272 818 297 844 b 240 933 297 907 272 933 z "},"˚":{"ha":244,"x_min":0,"x_max":0,"o":"m 122 774 b 203 854 167 774 203 810 b 122 935 203 899 167 935 b 42 854 78 935 42 899 b 122 774 42 810 78 774 z m 122 928 b 196 854 163 928 196 894 b 122 781 196 813 163 781 b 47 854 81 781 47 813 b 122 928 47 894 81 928 z "},"¯":{"ha":325,"x_min":0,"x_max":0,"o":"m 42 871 l 42 864 l 283 864 l 283 871 z "},"˝":{"ha":393,"x_min":0,"x_max":0,"o":"m 189 790 l 196 790 l 351 944 l 226 944 z m 42 790 l 49 790 l 203 944 l 79 944 z "},"˙":{"ha":199,"x_min":0,"x_max":0,"o":"m 100 933 b 42 876 68 933 42 907 b 100 818 42 844 68 818 b 157 876 131 818 157 844 b 100 933 157 907 131 933 z "},"·":{"ha":199,"x_min":0,"x_max":0,"o":"m 100 933 b 42 876 68 933 42 907 b 100 818 42 844 68 818 b 157 876 131 818 157 844 b 100 933 157 907 131 933 z "},"":{"ha":207,"x_min":0,"x_max":0,"o":"m 164 874 b 103 935 161 908 136 935 b 42 874 69 935 42 907 b 103 814 42 840 69 814 b 157 846 126 814 146 826 b 69 742 157 814 140 736 l 69 738 b 164 874 149 733 167 814 z "},"Ą":{"ha":1003,"x_min":0,"x_max":0,"o":"m 1003 0 l 1003 7 b 840 194 915 7 876 106 b 531 972 804 283 531 972 l 501 972 b 208 222 501 972 256 343 b 0 7 154 85 89 24 l 0 0 l 296 0 l 296 7 b 235 272 201 7 192 156 b 272 371 239 282 253 319 l 542 371 b 631 136 581 268 617 175 b 592 7 669 35 658 7 l 592 0 l 960 0 b 824 -114 888 -17 831 -60 b 992 -144 814 -192 915 -211 l 992 -137 b 901 -107 942 -154 908 -144 b 1003 0 892 -57 939 -10 z m 275 378 b 408 717 311 467 363 600 b 539 378 418 693 481 528 z "},"Ç":{"ha":988,"x_min":0,"x_max":0,"o":"m 644 -10 b 946 111 794 1 872 51 l 946 132 b 643 -3 872 61 775 1 b 288 453 425 -7 306 232 b 556 976 269 674 344 958 b 922 674 801 996 922 760 l 929 674 l 929 1024 l 922 1024 b 808 953 922 929 872 936 b 556 982 744 969 639 990 b 44 440 268 957 22 772 b 589 -11 67 129 321 -10 b 581 -36 585 -25 582 -31 b 629 -118 639 -33 636 -79 b 579 -174 624 -154 606 -181 b 538 -136 561 -167 547 -150 l 538 -151 b 588 -181 551 -165 567 -175 b 708 -131 649 -201 694 -175 b 586 -32 726 -72 685 -24 b 594 -11 589 -26 590 -24 b 644 -10 611 -11 628 -10 z "},"Ę":{"ha":813,"x_min":0,"x_max":0,"o":"m 728 0 l 785 246 l 778 246 b 508 7 738 156 649 7 l 432 7 b 344 160 353 7 344 58 l 344 482 l 364 482 b 560 303 472 482 560 397 l 567 303 l 567 667 l 560 667 b 364 488 560 572 472 488 l 344 488 l 344 813 b 432 965 344 914 353 965 l 465 965 b 724 771 604 965 683 861 l 731 771 l 683 972 l 42 972 l 42 965 b 129 813 121 965 128 914 l 129 160 b 42 7 128 58 121 7 l 42 0 l 686 0 b 549 -114 613 -17 556 -60 b 717 -144 539 -192 640 -211 l 717 -137 b 626 -107 667 -154 633 -144 b 728 0 617 -57 664 -10 z "},"Į":{"ha":474,"x_min":0,"x_max":0,"o":"m 432 965 l 432 972 l 42 972 l 42 965 b 129 813 121 965 129 914 l 129 160 b 42 7 129 58 121 7 l 42 0 l 390 0 b 254 -114 318 -17 261 -60 b 422 -144 244 -192 344 -211 l 422 -137 b 332 -107 372 -154 339 -144 b 432 0 321 -57 368 -10 l 432 7 b 344 160 353 7 346 58 l 344 813 b 432 965 346 914 353 965 z "},"Ş":{"ha":750,"x_min":0,"x_max":0,"o":"m 708 282 b 240 835 708 589 240 610 b 375 979 240 906 285 979 b 635 667 540 979 635 835 l 640 667 l 640 1024 l 635 1024 b 557 946 635 946 607 932 b 372 986 496 961 450 986 b 49 708 183 986 49 874 b 507 139 49 383 507 400 b 344 -6 507 75 467 -6 b 49 307 126 -6 49 226 l 42 307 l 42 -50 l 49 -50 b 167 14 49 44 119 26 b 349 -12 217 0 272 -12 b 361 -12 353 -12 357 -12 b 353 -36 356 -25 354 -31 b 401 -118 411 -33 408 -79 b 351 -174 396 -154 378 -181 b 310 -136 333 -167 319 -150 l 310 -151 b 360 -181 324 -165 339 -175 b 481 -131 421 -201 467 -175 b 358 -32 499 -72 457 -24 b 367 -12 360 -28 363 -24 b 708 282 586 -7 708 119 z "},"Ų":{"ha":976,"x_min":0,"x_max":0,"o":"m 746 972 l 746 965 b 836 768 835 965 836 896 l 836 303 b 564 -4 836 118 715 -4 b 351 276 419 -4 351 115 l 351 813 b 439 965 353 914 360 965 l 439 972 l 43 972 l 43 965 b 131 813 122 965 129 914 l 131 317 b 547 -12 131 54 332 -10 b 428 -114 483 -29 435 -64 b 596 -144 418 -192 518 -211 l 596 -137 b 506 -107 546 -154 513 -144 b 606 -10 494 -57 542 -19 b 843 296 721 8 840 103 l 843 768 b 933 965 843 896 846 965 l 933 972 z "},"ą":{"ha":771,"x_min":0,"x_max":0,"o":"m 714 -10 b 763 6 732 -7 750 -1 l 763 14 b 715 -1 756 10 736 -1 b 649 147 651 -1 649 53 b 649 469 649 147 649 332 b 349 700 649 658 479 700 b 100 568 200 700 122 618 b 144 451 76 510 103 460 b 214 521 193 442 224 483 b 178 621 201 560 157 578 b 344 694 197 665 254 694 b 439 490 446 694 439 608 b 439 363 439 454 439 408 b 379 332 425 351 406 342 b 43 133 242 285 50 306 b 318 0 36 -18 214 -31 b 443 118 378 18 417 63 b 686 -11 467 3 606 -11 b 571 -114 624 -29 576 -65 b 739 -144 561 -192 661 -211 l 739 -137 b 649 -107 689 -154 656 -144 b 714 -10 640 -67 668 -28 z m 342 15 b 231 165 257 -26 221 39 b 386 329 239 292 318 303 b 439 354 408 338 426 346 b 439 154 439 253 439 154 b 442 128 439 144 440 136 b 342 15 419 81 389 39 z "},"ç":{"ha":754,"x_min":0,"x_max":0,"o":"m 499 -7 b 253 322 346 -6 265 157 b 433 694 242 489 290 683 b 621 626 514 700 593 668 b 589 532 651 583 604 579 b 665 450 574 485 610 442 b 706 576 719 458 732 526 b 433 700 679 625 574 707 b 43 321 240 689 26 576 b 440 -12 58 81 256 -7 b 431 -36 435 -25 433 -31 b 481 -118 490 -33 488 -79 b 431 -174 475 -154 457 -181 b 389 -136 413 -167 399 -150 l 389 -151 b 438 -181 403 -165 418 -175 b 560 -131 500 -201 546 -175 b 438 -32 578 -72 536 -24 b 444 -12 439 -28 440 -24 b 500 -11 464 -12 482 -12 b 701 61 588 -6 658 28 l 701 78 b 499 -7 665 38 574 -7 z "},"ę":{"ha":797,"x_min":0,"x_max":0,"o":"m 254 322 b 257 463 250 368 251 417 l 763 463 b 426 699 743 626 615 707 b 43 321 235 692 33 586 b 497 -12 53 64 299 -24 b 367 -114 425 -29 374 -61 b 535 -144 357 -192 457 -211 l 535 -137 b 444 -107 485 -154 451 -144 b 538 -8 435 -58 478 -19 b 729 65 619 4 683 36 l 729 82 b 496 -7 682 38 578 -7 b 254 322 339 -6 267 157 z m 426 693 b 568 468 533 699 564 586 l 258 468 b 426 693 274 586 324 688 z "},"į":{"ha":439,"x_min":0,"x_max":0,"o":"m 411 0 l 411 7 b 324 160 338 7 325 47 l 324 471 b 347 679 324 611 335 674 l 347 686 l 28 686 l 28 679 b 115 529 103 679 115 642 l 115 160 b 28 7 115 47 103 7 l 28 0 l 369 0 b 233 -114 297 -17 240 -60 b 401 -144 224 -192 324 -211 l 401 -137 b 311 -107 351 -154 318 -144 b 411 0 301 -57 347 -10 z m 219 794 b 329 908 281 794 329 846 b 219 1024 329 972 281 1024 b 111 908 160 1024 111 972 b 219 794 111 846 160 794 z "},"ş":{"ha":651,"x_min":0,"x_max":0,"o":"m 215 589 b 331 693 215 657 260 693 b 465 647 390 693 440 674 b 451 542 499 610 456 582 b 526 488 449 501 490 474 b 543 603 567 501 574 557 b 303 700 517 642 438 700 b 57 519 175 700 64 643 b 458 108 42 249 468 294 b 297 -7 454 35 388 -7 b 135 51 222 -7 161 21 b 151 160 99 90 149 119 b 76 215 154 197 121 229 b 61 99 40 203 29 144 b 307 -12 88 60 165 -12 b 317 -12 310 -12 314 -12 b 308 -36 313 -25 310 -31 b 358 -118 368 -33 364 -79 b 308 -172 353 -154 333 -181 b 267 -136 289 -167 276 -150 l 267 -151 b 315 -181 281 -165 296 -175 b 436 -131 378 -201 424 -175 b 315 -32 454 -71 413 -24 b 322 -12 317 -26 318 -24 b 607 179 479 -8 590 61 b 215 589 644 461 215 435 z "},"ų":{"ha":888,"x_min":0,"x_max":0,"o":"m 860 0 l 860 7 b 772 160 786 7 774 46 l 772 471 b 796 679 772 611 783 674 l 796 686 l 476 686 l 476 679 b 564 529 551 679 564 642 l 564 215 b 561 104 564 171 564 133 b 413 0 529 40 468 0 b 318 215 313 0 318 121 l 318 471 b 342 679 318 611 329 674 l 342 686 l 22 686 l 22 679 b 110 529 97 679 110 642 l 110 243 b 356 -12 110 64 208 -12 b 560 90 465 -12 517 26 b 540 7 556 38 549 11 l 540 0 l 818 0 b 682 -114 746 -17 689 -60 b 850 -144 672 -192 772 -211 l 850 -137 b 760 -107 800 -154 767 -144 b 860 0 749 -57 796 -10 z "},"Æ":{"ha":1400,"x_min":0,"x_max":0,"o":"m 1365 246 b 1096 7 1325 154 1236 7 l 1018 7 b 931 160 939 7 932 58 l 931 481 l 951 481 b 1147 303 1060 481 1147 397 l 1153 303 l 1153 665 l 1147 665 b 951 488 1147 572 1060 488 l 931 488 l 931 813 b 1018 965 932 915 939 965 l 1053 965 b 1311 771 1192 965 1271 861 l 1318 771 l 1271 972 l 715 972 b 242 221 715 972 313 332 b 0 7 163 97 89 22 l 0 0 l 296 0 l 296 7 b 282 272 203 7 217 165 b 343 369 288 281 311 318 l 715 369 l 715 160 b 628 7 715 58 707 7 l 628 0 l 1315 0 l 1372 246 l 1365 246 z m 347 376 b 715 961 458 553 674 893 l 715 376 l 347 376 z "},"Đ":{"ha":1039,"x_min":0,"x_max":0,"o":"m 519 972 l 42 972 l 42 965 b 129 813 121 965 128 915 l 129 488 l 42 488 l 42 481 l 129 481 l 129 160 b 42 7 128 57 121 7 l 42 0 l 519 0 b 997 486 818 0 997 206 b 519 972 997 767 818 972 z m 458 7 b 432 7 449 7 440 7 b 344 160 353 7 344 57 l 344 481 l 560 481 l 560 488 l 344 488 l 344 813 b 432 965 344 915 353 965 l 458 965 b 749 486 636 965 749 838 b 458 7 749 135 636 7 z "},"Ø":{"ha":1163,"x_min":0,"x_max":0,"o":"m 1119 543 b 717 972 1096 768 933 926 l 736 1046 l 729 1046 l 710 974 b 526 985 651 985 589 989 b 44 444 231 960 14 747 b 447 0 68 208 232 49 l 426 -75 l 433 -75 l 454 -1 b 640 -12 514 -14 576 -18 b 1119 543 936 13 1151 238 z m 292 464 b 525 978 264 731 364 961 b 694 913 585 982 643 958 l 465 65 b 292 464 376 149 308 294 z m 640 -6 b 471 61 581 -11 522 14 l 700 908 b 874 513 789 826 856 681 b 640 -6 901 246 801 13 z "},"Þ":{"ha":833,"x_min":0,"x_max":0,"o":"m 482 763 l 344 763 l 344 813 b 431 965 344 915 353 965 l 431 972 l 42 972 l 42 965 b 129 813 121 965 128 915 l 129 160 b 42 7 128 57 121 7 l 42 0 l 431 0 l 431 7 b 344 160 353 7 344 57 l 344 210 l 468 210 b 792 486 619 210 792 288 b 482 763 792 685 617 763 z m 449 217 b 344 217 422 217 383 217 l 344 756 l 449 756 b 563 486 529 756 563 614 b 449 217 563 358 553 217 z "},"Ħ":{"ha":1068,"x_min":0,"x_max":0,"o":"m 939 813 b 1026 965 940 915 947 965 l 1026 972 l 636 972 l 636 965 b 724 813 715 965 724 915 l 724 653 l 344 653 l 344 813 b 432 965 344 915 353 965 l 432 972 l 42 972 l 42 965 b 129 813 121 965 128 915 l 129 653 l 43 653 l 43 646 l 129 646 l 129 160 b 42 7 128 57 121 7 l 42 0 l 432 0 l 432 7 b 344 160 353 7 344 57 l 344 481 l 724 481 l 724 160 b 636 7 724 57 715 7 l 636 0 l 1026 0 l 1026 7 b 939 160 947 7 940 57 l 939 646 l 1025 646 l 1025 653 l 939 653 z m 724 488 l 344 488 l 344 646 l 724 646 z "},"Ł":{"ha":800,"x_min":0,"x_max":0,"o":"m 779 246 b 510 7 739 156 650 7 l 433 7 b 346 160 354 7 346 57 l 346 358 l 464 428 l 460 433 l 346 365 l 346 813 b 433 965 346 915 354 965 l 433 972 l 43 972 l 43 965 b 131 813 122 965 129 915 l 131 239 l 50 190 l 54 186 l 131 231 l 131 160 b 43 7 129 57 122 7 l 43 0 l 729 0 l 786 246 z "},"Œ":{"ha":1371,"x_min":0,"x_max":0,"o":"m 1322 246 b 1054 7 1282 156 1193 7 l 976 7 b 889 160 897 7 890 57 l 889 481 l 910 481 b 1104 303 1017 481 1104 397 l 1111 303 b 1111 485 1111 303 1111 411 b 1111 667 1111 558 1111 667 l 1104 667 b 910 488 1104 572 1017 488 l 889 488 l 889 813 b 976 965 890 915 897 965 l 1010 965 b 1269 771 1150 965 1229 861 l 1276 771 l 1229 972 l 519 972 b 42 486 221 972 42 767 b 519 0 42 206 221 0 l 1272 0 l 1329 246 z m 581 7 b 292 486 403 7 292 135 b 581 965 292 838 403 965 l 586 965 b 674 813 665 965 674 915 l 674 160 b 586 7 674 57 665 7 b 581 7 585 7 583 7 z "},"Ŧ":{"ha":951,"x_min":0,"x_max":0,"o":"m 883 972 l 69 972 l 42 757 l 49 757 b 285 965 89 847 147 964 b 368 813 360 964 368 914 l 368 488 l 238 488 l 238 481 l 368 481 l 368 160 b 281 7 368 57 360 7 l 281 0 l 671 0 l 671 7 b 583 160 592 7 585 57 l 583 481 l 715 481 l 715 488 l 583 488 l 583 813 b 668 965 585 914 592 964 b 903 757 806 964 863 847 l 910 757 z "},"Ŋ":{"ha":1089,"x_min":0,"x_max":0,"o":"m 711 972 l 711 965 b 882 703 806 965 882 868 l 882 292 l 361 972 l 39 972 l 39 965 b 200 835 99 965 153 900 l 200 269 b 28 7 200 104 122 7 l 28 0 l 378 0 l 378 7 b 207 269 283 7 207 104 l 207 825 b 849 0 228 794 818 38 l 886 0 b 865 -86 885 -37 879 -68 b 781 -86 838 -121 814 -85 b 740 -162 744 -89 722 -125 b 844 -164 757 -199 810 -200 b 889 7 868 -140 889 -81 b 889 703 889 85 889 703 b 1061 965 889 868 967 965 l 1061 972 z "},"ß":{"ha":979,"x_min":0,"x_max":0,"o":"m 926 232 b 594 733 849 454 446 436 b 496 986 640 828 626 951 b 129 726 350 1024 129 968 l 129 160 b 42 7 129 57 121 7 l 42 0 l 432 0 l 432 7 b 344 160 353 7 346 57 l 344 743 b 496 976 344 922 399 996 b 585 733 601 956 646 847 b 718 201 406 400 622 415 b 692 -7 775 74 742 -7 b 483 300 576 -7 483 219 l 476 300 l 476 -50 l 483 -50 b 600 14 483 44 560 31 b 718 -12 640 -3 681 -12 b 926 232 893 -12 967 118 z "},"Ð":{"ha":1039,"x_min":0,"x_max":0,"o":"m 519 972 l 42 972 l 42 965 b 129 813 121 965 128 915 l 129 488 l 42 488 l 42 481 l 129 481 l 129 160 b 42 7 128 57 121 7 l 42 0 l 519 0 b 997 486 818 0 997 206 b 519 972 997 767 818 972 z m 458 7 b 432 7 449 7 440 7 b 344 160 353 7 344 57 l 344 481 l 560 481 l 560 488 l 344 488 l 344 813 b 432 965 344 915 353 965 l 458 965 b 749 486 636 965 749 838 b 458 7 749 135 636 7 z "},"ſ":{"ha":489,"x_min":0,"x_max":0,"o":"m 510 1006 b 385 1026 500 1011 453 1026 b 129 760 292 1026 129 993 l 129 686 l 53 686 l 53 679 l 129 679 l 129 160 b 42 7 129 47 117 7 l 42 0 l 426 0 l 426 7 b 339 160 351 7 339 47 l 339 824 b 415 1019 339 918 328 1019 b 432 915 469 1019 421 957 b 543 892 450 858 519 861 b 510 1006 567 922 564 979 z "},"æ":{"ha":1207,"x_min":0,"x_max":0,"o":"m 1172 463 b 836 699 1153 626 1025 707 b 590 622 750 694 660 671 b 349 699 529 682 432 699 b 100 565 201 699 122 617 b 144 450 76 508 103 457 b 214 518 193 440 224 481 b 178 619 201 557 157 575 b 344 694 197 663 254 694 b 453 488 446 694 453 606 b 453 371 453 394 453 375 b 379 329 438 356 414 342 b 43 132 242 283 50 303 b 318 -1 36 -19 214 -32 b 475 210 408 25 453 114 b 907 -12 540 39 740 -22 b 1139 64 1008 -7 1086 31 l 1139 81 b 906 -7 1092 38 988 -8 b 664 322 749 -7 676 156 b 667 463 660 368 661 417 z m 836 693 b 978 468 943 700 974 585 l 667 468 b 836 693 683 586 733 688 z m 342 14 b 231 164 257 -29 221 38 b 386 326 239 289 318 301 b 453 363 418 339 439 350 b 453 319 453 349 453 335 b 471 221 454 283 461 251 b 342 14 453 136 418 51 z "},"đ":{"ha":874,"x_min":0,"x_max":0,"o":"m 758 821 l 846 821 l 846 828 l 758 828 b 782 1015 760 953 769 1010 l 782 1022 l 463 1022 l 463 1015 b 550 864 538 1015 550 976 l 550 828 l 368 828 l 368 821 l 550 821 l 550 697 b 339 682 483 700 421 703 b 43 343 192 646 53 565 b 363 -14 32 114 171 -14 b 547 101 442 -14 507 21 b 526 7 543 40 536 11 l 526 0 l 846 0 l 846 7 b 758 160 772 7 760 46 l 758 807 b 758 821 758 811 758 817 z m 550 215 b 549 117 550 176 550 144 b 397 0 519 51 468 0 b 251 339 301 0 247 151 b 372 679 254 518 285 642 b 550 692 411 696 492 696 z "},"ø":{"ha":878,"x_min":0,"x_max":0,"o":"m 835 378 b 536 692 821 556 686 661 l 557 768 l 550 768 l 529 693 b 393 699 485 701 438 704 b 43 310 197 676 33 546 b 342 -3 50 125 192 28 l 321 -81 l 328 -81 l 349 -4 b 482 -12 393 -12 439 -15 b 835 378 668 0 851 147 z m 261 318 b 394 693 242 501 279 682 b 515 639 440 697 481 676 l 357 51 b 261 318 307 110 272 206 z m 482 -7 b 361 46 436 -11 394 8 l 519 632 b 615 367 568 574 601 478 b 482 -7 638 182 599 4 z "},"þ":{"ha":857,"x_min":0,"x_max":0,"o":"m 493 550 b 324 471 418 550 363 517 b 347 665 325 601 335 660 l 347 672 l 28 672 l 28 665 b 115 514 103 665 115 628 l 115 -128 b 28 -279 115 -240 103 -279 l 28 -286 l 411 -286 l 411 -279 b 324 -128 338 -279 325 -240 l 324 -85 b 493 -164 363 -131 418 -164 b 815 193 668 -164 815 -46 b 493 550 815 432 664 550 z m 467 -153 b 324 -76 421 -153 364 -125 l 324 457 b 324 463 324 460 324 461 b 467 540 364 513 421 540 b 607 193 581 540 607 408 b 467 -153 607 -22 581 -153 z "},"ħ":{"ha":893,"x_min":0,"x_max":0,"o":"m 778 444 b 533 700 778 622 681 700 b 324 590 419 700 368 658 l 324 807 b 324 824 324 813 324 818 l 506 824 l 506 831 l 324 831 b 347 1015 325 954 335 1010 l 347 1022 l 28 1022 l 28 1015 b 115 864 107 1015 115 965 l 115 831 l 28 831 l 28 824 l 115 824 l 115 160 b 28 7 115 47 101 7 l 28 0 l 411 0 l 411 7 b 324 160 338 7 325 47 l 324 576 b 476 686 356 643 418 686 b 569 471 576 686 569 565 l 569 160 b 482 7 569 47 556 7 l 482 0 l 865 0 l 865 7 b 778 160 792 7 779 46 z "},"ł":{"ha":439,"x_min":0,"x_max":0,"o":"m 324 160 l 324 358 l 443 428 l 439 433 l 324 365 l 324 807 b 347 1015 324 947 333 1008 l 347 1022 l 28 1022 l 28 1015 b 115 864 101 1015 115 976 l 115 242 l 28 190 l 33 186 l 115 235 l 115 160 b 28 7 115 47 101 7 l 28 0 l 411 0 l 411 7 b 324 158 338 7 325 46 z "},"œ":{"ha":1385,"x_min":0,"x_max":0,"o":"m 840 322 b 843 463 836 368 838 417 l 1350 463 b 1013 699 1329 626 1201 707 b 732 594 911 694 806 663 b 393 699 643 676 513 711 b 43 310 197 676 33 546 b 482 -12 53 67 296 -26 b 728 96 572 -6 663 32 b 1083 -12 821 11 961 -19 b 1315 64 1185 -7 1263 31 l 1315 81 b 1083 -7 1269 38 1164 -7 b 840 322 925 -6 853 156 z m 1013 694 b 1154 468 1119 700 1150 585 l 844 468 b 1013 694 860 586 910 688 z m 482 -7 b 261 318 365 -18 282 126 b 394 693 242 501 279 682 b 615 367 510 703 593 558 b 482 -7 638 182 599 4 z "},"ŧ":{"ha":456,"x_min":0,"x_max":0,"o":"m 375 -3 b 300 178 307 -3 300 83 l 300 582 l 300 582 l 385 582 l 385 589 l 300 589 l 300 679 l 425 679 l 425 686 l 300 686 l 300 854 l 294 854 b 92 736 267 767 167 736 b 92 686 92 731 92 686 b 28 686 92 686 51 686 l 28 679 l 92 679 b 92 589 92 657 92 625 l 28 589 l 28 582 l 92 582 b 92 206 92 431 92 206 b 347 -14 92 0 254 -14 b 435 3 388 -14 415 -7 l 435 11 b 375 -3 425 7 401 -3 z "},"ŋ":{"ha":889,"x_min":0,"x_max":0,"o":"m 778 10 b 778 444 778 81 778 444 b 533 700 778 622 681 700 b 328 596 424 700 371 661 b 347 679 332 649 339 675 l 347 686 l 28 686 l 28 679 b 115 528 101 679 115 640 l 115 160 b 28 7 115 47 101 7 l 28 0 l 411 0 l 411 7 b 324 160 338 7 325 47 l 324 471 b 326 582 324 515 325 553 b 476 686 360 646 419 686 b 569 471 576 686 569 565 l 569 160 b 482 7 569 47 556 7 l 482 0 l 775 0 b 754 -86 775 -37 768 -68 b 669 -87 726 -121 703 -85 b 629 -164 632 -89 611 -125 b 733 -164 644 -199 699 -201 b 778 10 756 -140 778 -78 z "},"ð":{"ha":811,"x_min":0,"x_max":0,"o":"m 508 863 l 585 917 l 579 921 l 503 867 b 300 972 435 913 363 947 b 300 965 300 969 300 969 b 436 819 361 918 404 868 l 347 757 l 351 751 l 440 814 b 513 667 472 763 493 713 b 376 700 468 688 418 704 b 44 310 169 681 21 539 b 450 -12 68 81 243 -29 b 768 374 643 4 761 142 b 508 863 775 614 650 765 z m 449 -7 b 253 319 324 -24 274 100 b 386 693 233 539 253 689 b 556 368 501 697 539 544 b 449 -7 572 192 565 7 z "},"Á":{"ha":1003,"x_min":0,"x_max":0,"o":"m 840 194 b 532 972 804 283 532 972 l 501 972 b 208 222 501 972 256 343 b 0 7 154 85 89 24 l 0 0 l 296 0 l 296 7 b 235 272 203 7 192 156 b 274 371 239 282 253 318 l 542 371 b 631 135 581 268 617 174 b 592 7 669 33 660 7 l 592 0 l 1003 0 l 1003 7 b 840 194 915 7 878 106 z m 275 376 b 408 717 311 467 363 600 b 539 376 418 693 481 528 z m 528 1068 l 535 1068 l 689 1222 l 564 1222 z "},"Ă":{"ha":1003,"x_min":0,"x_max":0,"o":"m 840 194 b 532 972 804 283 532 972 l 501 972 b 208 222 501 972 256 343 b 0 7 154 85 89 24 l 0 0 l 296 0 l 296 7 b 235 272 203 7 192 156 b 274 371 239 282 253 318 l 542 371 b 631 135 581 268 617 174 b 592 7 669 33 660 7 l 592 0 l 1003 0 l 1003 7 b 840 194 915 7 878 106 z m 275 376 b 408 717 311 467 363 600 b 539 376 418 693 481 528 z m 561 1181 b 517 1058 554 1110 547 1058 b 472 1181 486 1058 478 1110 l 379 1181 b 517 1054 388 1089 460 1054 b 654 1181 574 1054 646 1089 z "},"Â":{"ha":1003,"x_min":0,"x_max":0,"o":"m 840 194 b 532 972 804 283 532 972 l 501 972 b 208 222 501 972 256 343 b 0 7 154 85 89 24 l 0 0 l 296 0 l 296 7 b 235 272 203 7 192 156 b 274 371 239 282 253 318 l 542 371 b 631 135 581 268 617 174 b 592 7 669 33 660 7 l 592 0 l 1003 0 l 1003 7 b 840 194 915 7 878 106 z m 275 376 b 408 717 311 467 363 600 b 539 376 418 693 481 528 z m 557 1222 l 476 1222 l 346 1068 l 353 1068 l 517 1144 l 682 1068 l 689 1068 z "},"À":{"ha":1003,"x_min":0,"x_max":0,"o":"m 840 194 b 532 972 804 283 532 972 l 501 972 b 208 222 501 972 256 343 b 0 7 154 85 89 24 l 0 0 l 296 0 l 296 7 b 235 272 203 7 192 156 b 274 371 239 282 253 318 l 542 371 b 631 135 581 268 617 174 b 592 7 669 33 660 7 l 592 0 l 1003 0 l 1003 7 b 840 194 915 7 878 106 z m 275 376 b 408 717 311 467 363 600 b 539 376 418 693 481 528 z m 471 1222 l 347 1222 l 501 1068 l 508 1068 z "},"Ä":{"ha":1003,"x_min":0,"x_max":0,"o":"m 840 194 b 532 972 804 283 532 972 l 501 972 b 208 222 501 972 256 343 b 0 7 154 85 89 24 l 0 0 l 296 0 l 296 7 b 235 272 203 7 192 156 b 274 371 239 282 253 318 l 542 371 b 631 135 581 268 617 174 b 592 7 669 33 660 7 l 592 0 l 1003 0 l 1003 7 b 840 194 915 7 878 106 z m 275 376 b 408 717 311 467 363 600 b 539 376 418 693 481 528 z m 447 1211 b 389 1154 415 1211 389 1185 b 447 1096 389 1122 415 1096 b 504 1154 478 1096 504 1122 b 447 1211 504 1185 478 1211 z m 588 1211 b 531 1154 557 1211 531 1185 b 588 1096 531 1122 557 1096 b 644 1154 619 1096 644 1122 b 588 1211 644 1185 619 1211 z "},"Ā":{"ha":1003,"x_min":0,"x_max":0,"o":"m 840 194 b 532 972 804 283 532 972 l 501 972 b 208 222 501 972 256 343 b 0 7 154 85 89 24 l 0 0 l 296 0 l 296 7 b 235 272 203 7 192 156 b 274 371 239 282 253 318 l 542 371 b 631 135 581 268 617 174 b 592 7 669 33 660 7 l 592 0 l 1003 0 l 1003 7 b 840 194 915 7 878 106 z m 275 376 b 408 717 311 467 363 600 b 539 376 418 693 481 528 z m 394 1149 l 394 1142 l 636 1142 l 636 1149 z "},"Å":{"ha":1003,"x_min":0,"x_max":0,"o":"m 840 194 b 532 972 804 283 532 972 l 501 972 b 208 222 501 972 256 343 b 0 7 154 85 89 24 l 0 0 l 296 0 l 296 7 b 235 272 203 7 192 156 b 274 371 239 282 253 318 l 542 371 b 631 135 581 268 617 174 b 592 7 669 33 660 7 l 592 0 l 1003 0 l 1003 7 b 840 194 915 7 878 106 z m 275 376 b 408 717 311 467 363 600 b 539 376 418 693 481 528 z m 515 1051 b 596 1132 560 1051 596 1088 b 515 1213 596 1176 560 1213 b 435 1132 471 1213 435 1176 b 515 1051 435 1088 471 1051 z m 515 1206 b 589 1132 556 1206 589 1172 b 515 1058 589 1090 556 1058 b 440 1132 474 1058 440 1090 b 515 1206 440 1172 474 1206 z "},"Ã":{"ha":1003,"x_min":0,"x_max":0,"o":"m 840 194 b 532 972 804 283 532 972 l 501 972 b 208 222 501 972 256 343 b 0 7 154 85 89 24 l 0 0 l 296 0 l 296 7 b 235 272 203 7 192 156 b 274 371 239 282 253 318 l 542 371 b 631 135 581 268 617 174 b 592 7 669 33 660 7 l 592 0 l 1003 0 l 1003 7 b 840 194 915 7 878 106 z m 275 376 b 408 717 311 467 363 600 b 539 376 418 693 481 528 z m 585 1096 b 644 1206 638 1093 649 1172 l 638 1206 b 585 1183 632 1183 621 1178 b 449 1211 561 1188 481 1214 b 386 1104 396 1204 389 1139 l 393 1104 b 449 1126 399 1117 417 1131 b 585 1096 483 1124 540 1099 z "},"Ǽ":{"ha":1400,"x_min":0,"x_max":0,"o":"m 1365 246 b 1096 7 1325 154 1236 7 l 1018 7 b 931 160 939 7 932 58 l 931 481 l 951 481 b 1147 303 1060 481 1147 397 l 1153 303 l 1153 665 l 1147 665 b 951 488 1147 572 1060 488 l 931 488 l 931 813 b 1018 965 932 915 939 965 l 1053 965 b 1311 771 1192 965 1271 861 l 1318 771 l 1271 972 l 715 972 b 242 221 715 972 313 332 b 0 7 163 97 89 22 l 0 0 l 296 0 l 296 7 b 282 272 203 7 217 165 b 343 369 288 281 311 318 l 715 369 l 715 160 b 628 7 715 58 707 7 l 628 0 l 1315 0 l 1372 246 l 1365 246 z m 347 376 b 715 961 458 553 674 893 l 715 376 l 347 376 z m 742 1068 l 749 1068 l 903 1222 l 778 1222 z "},"Ć":{"ha":988,"x_min":0,"x_max":0,"o":"m 643 -3 b 286 453 424 -8 304 231 b 556 976 269 674 343 958 b 922 674 801 996 922 760 l 929 674 l 929 1024 l 922 1024 b 808 953 922 929 872 936 b 554 982 743 969 639 990 b 44 440 267 957 21 772 b 643 -10 67 108 356 -28 b 946 110 794 0 872 50 l 946 132 b 643 -3 872 61 774 0 z m 572 1068 l 579 1068 l 733 1222 l 608 1222 z "},"Č":{"ha":988,"x_min":0,"x_max":0,"o":"m 643 -3 b 286 453 424 -8 304 231 b 556 976 269 674 343 958 b 922 674 801 996 922 760 l 929 674 l 929 1024 l 922 1024 b 808 953 922 929 872 936 b 554 982 743 969 639 990 b 44 440 267 957 21 772 b 643 -10 67 108 356 -28 b 946 110 794 0 872 50 l 946 132 b 643 -3 872 61 774 0 z m 756 1213 l 749 1213 l 583 1136 l 419 1213 l 413 1213 l 543 1058 l 624 1058 z "},"Ĉ":{"ha":988,"x_min":0,"x_max":0,"o":"m 643 -3 b 286 453 424 -8 304 231 b 556 976 269 674 343 958 b 922 674 801 996 922 760 l 929 674 l 929 1024 l 922 1024 b 808 953 922 929 872 936 b 554 982 743 969 639 990 b 44 440 267 957 21 772 b 643 -10 67 108 356 -28 b 946 110 794 0 872 50 l 946 132 b 643 -3 872 61 774 0 z m 624 1222 l 543 1222 l 413 1068 l 419 1068 l 583 1144 l 749 1068 l 756 1068 z "},"Ċ":{"ha":988,"x_min":0,"x_max":0,"o":"m 643 -3 b 286 453 424 -8 304 231 b 556 976 269 674 343 958 b 922 674 801 996 922 760 l 929 674 l 929 1024 l 922 1024 b 808 953 922 929 872 936 b 554 982 743 969 639 990 b 44 440 267 957 21 772 b 643 -10 67 108 356 -28 b 946 110 794 0 872 50 l 946 132 b 643 -3 872 61 774 0 z m 599 1211 b 540 1154 567 1211 540 1185 b 599 1096 540 1122 567 1096 b 656 1154 629 1096 656 1122 b 599 1211 656 1185 629 1211 z "},"Ď":{"ha":1040,"x_min":0,"x_max":0,"o":"m 519 972 l 42 972 l 42 965 b 129 813 121 965 129 914 l 129 160 b 42 7 129 57 121 7 l 42 0 l 519 0 b 999 486 819 0 999 206 b 519 972 999 768 819 972 z m 458 7 b 432 7 449 7 440 7 b 344 160 353 7 344 57 l 344 813 b 432 965 344 914 353 965 l 458 965 b 749 486 638 965 749 838 b 458 7 749 135 638 7 z m 640 1213 l 633 1213 l 468 1136 l 304 1213 l 297 1213 l 428 1058 l 508 1058 z "},"É":{"ha":814,"x_min":0,"x_max":0,"o":"m 779 246 b 510 7 739 156 650 7 l 432 7 b 344 160 353 7 346 57 l 344 482 l 365 482 b 560 303 472 482 560 397 l 567 303 l 567 667 l 560 667 b 365 488 560 572 472 488 l 344 488 l 344 813 b 432 965 346 914 353 965 l 467 965 b 725 771 606 965 685 861 l 732 771 l 685 972 l 42 972 l 42 965 b 129 813 121 965 129 914 l 129 160 b 42 7 129 57 121 7 l 42 0 l 729 0 l 786 246 z m 449 1068 l 456 1068 l 610 1222 l 485 1222 z "},"Ĕ":{"ha":814,"x_min":0,"x_max":0,"o":"m 779 246 b 510 7 739 156 650 7 l 432 7 b 344 160 353 7 346 57 l 344 482 l 365 482 b 560 303 472 482 560 397 l 567 303 l 567 667 l 560 667 b 365 488 560 572 472 488 l 344 488 l 344 813 b 432 965 346 914 353 965 l 467 965 b 725 771 606 965 685 861 l 732 771 l 685 972 l 42 972 l 42 965 b 129 813 121 965 129 914 l 129 160 b 42 7 129 57 121 7 l 42 0 l 729 0 l 786 246 z m 504 1181 b 460 1058 497 1110 490 1058 b 415 1181 429 1058 421 1110 l 322 1181 b 460 1054 331 1089 403 1054 b 597 1181 517 1054 589 1089 z "},"Ě":{"ha":814,"x_min":0,"x_max":0,"o":"m 779 246 b 510 7 739 156 650 7 l 432 7 b 344 160 353 7 346 57 l 344 482 l 365 482 b 560 303 472 482 560 397 l 567 303 l 567 667 l 560 667 b 365 488 560 572 472 488 l 344 488 l 344 813 b 432 965 346 914 353 965 l 467 965 b 725 771 606 965 685 861 l 732 771 l 685 972 l 42 972 l 42 965 b 129 813 121 965 129 914 l 129 160 b 42 7 129 57 121 7 l 42 0 l 729 0 l 786 246 z m 618 1213 l 611 1213 l 446 1136 l 282 1213 l 275 1213 l 406 1058 l 486 1058 z "},"Ê":{"ha":814,"x_min":0,"x_max":0,"o":"m 779 246 b 510 7 739 156 650 7 l 432 7 b 344 160 353 7 346 57 l 344 482 l 365 482 b 560 303 472 482 560 397 l 567 303 l 567 667 l 560 667 b 365 488 560 572 472 488 l 344 488 l 344 813 b 432 965 346 914 353 965 l 467 965 b 725 771 606 965 685 861 l 732 771 l 685 972 l 42 972 l 42 965 b 129 813 121 965 129 914 l 129 160 b 42 7 129 57 121 7 l 42 0 l 729 0 l 786 246 z m 500 1222 l 419 1222 l 289 1068 l 296 1068 l 460 1144 l 625 1068 l 632 1068 z "},"Ë":{"ha":814,"x_min":0,"x_max":0,"o":"m 779 246 b 510 7 739 156 650 7 l 432 7 b 344 160 353 7 346 57 l 344 482 l 365 482 b 560 303 472 482 560 397 l 567 303 l 567 667 l 560 667 b 365 488 560 572 472 488 l 344 488 l 344 813 b 432 965 346 914 353 965 l 467 965 b 725 771 606 965 685 861 l 732 771 l 685 972 l 42 972 l 42 965 b 129 813 121 965 129 914 l 129 160 b 42 7 129 57 121 7 l 42 0 l 729 0 l 786 246 z m 376 1211 b 318 1154 344 1211 318 1185 b 376 1096 318 1122 344 1096 b 433 1154 407 1096 433 1122 b 376 1211 433 1185 407 1211 z m 517 1211 b 460 1154 486 1211 460 1185 b 517 1096 460 1122 486 1096 b 574 1154 549 1096 574 1122 b 517 1211 574 1185 549 1211 z "},"Ė":{"ha":814,"x_min":0,"x_max":0,"o":"m 779 246 b 510 7 739 156 650 7 l 432 7 b 344 160 353 7 346 57 l 344 482 l 365 482 b 560 303 472 482 560 397 l 567 303 l 567 667 l 560 667 b 365 488 560 572 472 488 l 344 488 l 344 813 b 432 965 346 914 353 965 l 467 965 b 725 771 606 965 685 861 l 732 771 l 685 972 l 42 972 l 42 965 b 129 813 121 965 129 914 l 129 160 b 42 7 129 57 121 7 l 42 0 l 729 0 l 786 246 z m 447 1211 b 389 1154 415 1211 389 1185 b 447 1096 389 1122 415 1096 b 504 1154 478 1096 504 1122 b 447 1211 504 1185 478 1211 z "},"È":{"ha":814,"x_min":0,"x_max":0,"o":"m 779 246 b 510 7 739 156 650 7 l 432 7 b 344 160 353 7 346 57 l 344 482 l 365 482 b 560 303 472 482 560 397 l 567 303 l 567 667 l 560 667 b 365 488 560 572 472 488 l 344 488 l 344 813 b 432 965 346 914 353 965 l 467 965 b 725 771 606 965 685 861 l 732 771 l 685 972 l 42 972 l 42 965 b 129 813 121 965 129 914 l 129 160 b 42 7 129 57 121 7 l 42 0 l 729 0 l 786 246 z m 392 1222 l 268 1222 l 422 1068 l 429 1068 z "},"Ē":{"ha":814,"x_min":0,"x_max":0,"o":"m 779 246 b 510 7 739 156 650 7 l 432 7 b 344 160 353 7 346 57 l 344 482 l 365 482 b 560 303 472 482 560 397 l 567 303 l 567 667 l 560 667 b 365 488 560 572 472 488 l 344 488 l 344 813 b 432 965 346 914 353 965 l 467 965 b 725 771 606 965 685 861 l 732 771 l 685 972 l 42 972 l 42 965 b 129 813 121 965 129 914 l 129 160 b 42 7 129 57 121 7 l 42 0 l 729 0 l 786 246 z m 325 1149 l 325 1142 l 567 1142 l 567 1149 z "},"Ğ":{"ha":1061,"x_min":0,"x_max":0,"o":"m 643 440 l 643 433 b 731 282 722 433 731 383 l 731 8 b 643 -3 704 1 674 -3 b 288 453 424 -8 304 231 b 556 976 269 674 344 958 b 922 674 801 996 922 760 l 929 674 l 929 1024 l 922 1024 b 808 953 922 929 872 936 b 556 982 744 969 639 990 b 44 440 267 957 21 772 b 643 -10 68 108 356 -28 b 800 22 707 -6 758 6 b 940 -14 863 39 940 53 l 946 -14 l 946 282 b 1033 433 947 383 954 433 l 1033 440 z m 624 1181 b 579 1058 617 1110 610 1058 b 535 1181 549 1058 540 1110 l 442 1181 b 579 1054 450 1089 522 1054 b 717 1181 636 1054 708 1089 z "},"Ĝ":{"ha":1061,"x_min":0,"x_max":0,"o":"m 643 440 l 643 433 b 731 282 722 433 731 383 l 731 8 b 643 -3 704 1 674 -3 b 288 453 424 -8 304 231 b 556 976 269 674 344 958 b 922 674 801 996 922 760 l 929 674 l 929 1024 l 922 1024 b 808 953 922 929 872 936 b 556 982 744 969 639 990 b 44 440 267 957 21 772 b 643 -10 68 108 356 -28 b 800 22 707 -6 758 6 b 940 -14 863 39 940 53 l 946 -14 l 946 282 b 1033 433 947 383 954 433 l 1033 440 z m 619 1222 l 539 1222 l 408 1068 l 415 1068 l 579 1144 l 744 1068 l 751 1068 z "},"Ģ":{"ha":1061,"x_min":0,"x_max":0,"o":"m 643 440 l 643 433 b 731 282 722 433 731 383 l 731 8 b 643 -3 704 1 674 -3 b 288 453 424 -8 304 231 b 556 976 269 674 344 958 b 922 674 801 996 922 760 l 929 674 l 929 1024 l 922 1024 b 808 953 922 929 872 936 b 556 982 744 969 639 990 b 44 440 267 957 21 772 b 643 -10 68 108 356 -28 b 800 22 707 -6 758 6 b 940 -14 863 39 940 53 l 946 -14 l 946 282 b 1033 433 947 383 954 433 l 1033 440 z m 657 -211 b 596 -150 654 -176 629 -150 b 535 -211 563 -150 535 -178 b 596 -271 535 -244 563 -271 b 650 -239 619 -271 639 -258 b 563 -343 650 -271 633 -349 l 563 -347 b 657 -211 642 -351 660 -271 z "},"Ġ":{"ha":1061,"x_min":0,"x_max":0,"o":"m 643 440 l 643 433 b 731 282 722 433 731 383 l 731 8 b 643 -3 704 1 674 -3 b 288 453 424 -8 304 231 b 556 976 269 674 344 958 b 922 674 801 996 922 760 l 929 674 l 929 1024 l 922 1024 b 808 953 922 929 872 936 b 556 982 744 969 639 990 b 44 440 267 957 21 772 b 643 -10 68 108 356 -28 b 800 22 707 -6 758 6 b 940 -14 863 39 940 53 l 946 -14 l 946 282 b 1033 433 947 383 954 433 l 1033 440 z m 581 1211 b 522 1154 549 1211 522 1185 b 581 1096 522 1122 549 1096 b 638 1154 611 1096 638 1122 b 581 1211 638 1185 611 1211 z "},"Ĥ":{"ha":1068,"x_min":0,"x_max":0,"o":"m 939 813 b 1026 965 940 914 947 965 l 1026 972 l 636 972 l 636 965 b 724 813 715 965 724 914 l 724 489 l 344 489 l 344 813 b 431 965 344 914 353 965 l 431 972 l 42 972 l 42 965 b 129 813 121 965 128 914 l 129 160 b 42 7 128 58 121 7 l 42 0 l 431 0 l 431 7 b 344 160 353 7 344 58 l 344 482 l 724 482 l 724 160 b 636 7 724 58 715 7 l 636 0 l 1026 0 l 1026 7 b 939 160 947 7 940 58 l 939 814 z m 593 1222 l 513 1222 l 382 1068 l 389 1068 l 553 1144 l 718 1068 l 725 1068 z "},"Í":{"ha":474,"x_min":0,"x_max":0,"o":"m 344 813 b 432 965 344 914 353 965 l 432 972 l 42 972 l 42 965 b 129 813 121 965 128 914 l 129 160 b 42 7 128 57 121 7 l 42 0 l 432 0 l 432 7 b 344 160 353 7 344 57 z m 211 1068 l 218 1068 l 372 1222 l 247 1222 z "},"Ĭ":{"ha":474,"x_min":0,"x_max":0,"o":"m 344 813 b 432 965 344 914 353 965 l 432 972 l 42 972 l 42 965 b 129 813 121 965 128 914 l 129 160 b 42 7 128 57 121 7 l 42 0 l 432 0 l 432 7 b 344 160 353 7 344 57 z m 281 1181 b 236 1058 274 1110 267 1058 b 192 1181 206 1058 197 1110 l 99 1181 b 236 1054 107 1089 179 1054 b 374 1181 293 1054 365 1089 z "},"Î":{"ha":474,"x_min":0,"x_max":0,"o":"m 344 813 b 432 965 344 914 353 965 l 432 972 l 42 972 l 42 965 b 129 813 121 965 128 914 l 129 160 b 42 7 128 57 121 7 l 42 0 l 432 0 l 432 7 b 344 160 353 7 344 57 z m 276 1222 l 196 1222 l 65 1068 l 72 1068 l 236 1144 l 401 1068 l 408 1068 z "},"Ï":{"ha":474,"x_min":0,"x_max":0,"o":"m 344 813 b 432 965 344 914 353 965 l 432 972 l 42 972 l 42 965 b 129 813 121 965 128 914 l 129 160 b 42 7 128 57 121 7 l 42 0 l 432 0 l 432 7 b 344 160 353 7 344 57 z m 167 1211 b 108 1154 135 1211 108 1185 b 167 1096 108 1122 135 1096 b 224 1154 197 1096 224 1122 b 167 1211 224 1185 197 1211 z m 307 1211 b 250 1154 276 1211 250 1185 b 307 1096 250 1122 276 1096 b 364 1154 339 1096 364 1122 b 307 1211 364 1185 339 1211 z "},"İ":{"ha":474,"x_min":0,"x_max":0,"o":"m 344 813 b 432 965 344 914 353 965 l 432 972 l 42 972 l 42 965 b 129 813 121 965 128 914 l 129 160 b 42 7 128 57 121 7 l 42 0 l 432 0 l 432 7 b 344 160 353 7 344 57 z m 238 1211 b 179 1154 206 1211 179 1185 b 238 1096 179 1122 206 1096 b 294 1154 268 1096 294 1122 b 238 1211 294 1185 268 1211 z "},"Ì":{"ha":474,"x_min":0,"x_max":0,"o":"m 344 813 b 432 965 344 914 353 965 l 432 972 l 42 972 l 42 965 b 129 813 121 965 128 914 l 129 160 b 42 7 128 57 121 7 l 42 0 l 432 0 l 432 7 b 344 160 353 7 344 57 z m 210 1222 l 86 1222 l 240 1068 l 247 1068 z "},"Ī":{"ha":474,"x_min":0,"x_max":0,"o":"m 344 813 b 432 965 344 914 353 965 l 432 972 l 42 972 l 42 965 b 129 813 121 965 128 914 l 129 160 b 42 7 128 57 121 7 l 42 0 l 432 0 l 432 7 b 344 160 353 7 344 57 z m 115 1149 l 115 1142 l 357 1142 l 357 1149 z "},"Ĩ":{"ha":474,"x_min":0,"x_max":0,"o":"m 344 813 b 432 965 344 914 353 965 l 432 972 l 42 972 l 42 965 b 129 813 121 965 128 914 l 129 160 b 42 7 128 57 121 7 l 42 0 l 432 0 l 432 7 b 344 160 353 7 344 57 z m 304 1096 b 364 1206 357 1093 368 1172 l 357 1206 b 304 1183 351 1183 340 1178 b 168 1211 281 1188 200 1214 b 106 1104 115 1204 108 1139 l 113 1104 b 168 1126 118 1117 136 1131 b 304 1096 203 1124 260 1099 z "},"Ĳ":{"ha":983,"x_min":0,"x_max":0,"o":"m 344 813 b 432 965 344 914 353 965 l 432 972 l 42 972 l 42 965 b 129 813 121 965 128 914 l 129 160 b 42 7 128 57 121 7 l 42 0 l 432 0 l 432 7 b 344 160 353 7 344 57 z m 538 972 l 538 965 b 625 813 617 965 625 914 l 625 7 b 501 -264 625 -158 589 -232 l 501 -272 b 840 57 649 -258 840 -182 l 840 813 b 928 965 842 914 849 965 l 928 972 z "}," ":{"ha":292,"x_min":0,"x_max":0,"o":""},"Ĵ":{"ha":524,"x_min":0,"x_max":0,"o":"m 78 972 l 78 965 b 165 813 157 965 165 914 l 165 7 b 42 -264 165 -158 129 -232 l 42 -272 b 381 57 189 -258 381 -182 l 381 813 b 468 965 382 914 389 965 l 468 972 z m 314 1222 l 233 1222 l 103 1068 l 110 1068 l 274 1144 l 439 1068 l 446 1068 z "},"Ķ":{"ha":1021,"x_min":0,"x_max":0,"o":"m 838 188 b 542 639 789 263 567 603 b 644 738 581 675 617 710 b 957 965 708 801 867 965 l 957 972 l 661 972 l 661 965 b 651 754 758 965 751 856 b 344 468 572 675 436 550 l 344 813 b 432 965 346 914 353 965 l 432 972 l 42 972 l 42 965 b 129 813 121 965 129 914 l 129 160 b 42 7 129 57 121 7 l 42 0 l 432 0 l 432 7 b 344 160 353 7 346 57 l 344 461 b 389 500 358 474 374 486 l 701 0 l 1021 0 l 1021 7 b 838 188 981 7 900 92 z m 589 -211 b 528 -150 586 -176 561 -150 b 467 -211 494 -150 467 -178 b 528 -271 467 -244 494 -271 b 582 -239 551 -271 571 -258 b 494 -343 582 -271 565 -349 l 494 -347 b 589 -211 574 -351 592 -271 z "},"Ĺ":{"ha":800,"x_min":0,"x_max":0,"o":"m 779 246 b 510 7 739 156 650 7 l 432 7 b 344 160 353 7 346 57 l 344 813 b 432 965 346 914 353 965 l 432 972 l 42 972 l 42 965 b 129 813 121 965 129 914 l 129 160 b 42 7 129 57 121 7 l 42 0 l 728 0 l 786 246 z m 236 1068 l 243 1068 l 397 1222 l 272 1222 z "},"Ľ":{"ha":800,"x_min":0,"x_max":0,"o":"m 779 246 b 510 7 739 156 650 7 l 432 7 b 344 160 353 7 346 57 l 344 813 b 432 965 346 914 353 965 l 432 972 l 42 972 l 42 965 b 129 813 121 965 129 914 l 129 160 b 42 7 129 57 121 7 l 42 0 l 728 0 l 786 246 z m 660 915 b 599 976 657 950 632 976 b 538 915 565 976 538 949 b 599 856 538 882 565 856 b 653 888 622 856 642 868 b 565 783 653 856 636 778 l 565 779 b 660 915 644 775 663 856 z "},"Ļ":{"ha":800,"x_min":0,"x_max":0,"o":"m 779 246 b 510 7 739 156 650 7 l 432 7 b 344 160 353 7 346 57 l 344 813 b 432 965 346 914 353 965 l 432 972 l 42 972 l 42 965 b 129 813 121 965 129 914 l 129 160 b 42 7 129 57 121 7 l 42 0 l 728 0 l 786 246 z m 517 -211 b 456 -150 514 -176 489 -150 b 394 -211 422 -150 394 -178 b 456 -271 394 -244 422 -271 b 510 -239 479 -271 499 -258 b 422 -343 510 -271 493 -349 l 422 -347 b 517 -211 501 -351 519 -271 z "},"Ŀ":{"ha":800,"x_min":0,"x_max":0,"o":"m 746 469 b 688 413 714 469 688 443 b 746 354 688 381 714 354 b 803 413 776 354 803 381 b 746 469 803 443 776 469 z m 779 246 b 510 7 739 156 650 7 l 432 7 b 344 160 353 7 346 57 l 344 813 b 432 965 346 914 353 965 l 432 972 l 42 972 l 42 965 b 129 813 121 965 129 914 l 129 160 b 42 7 129 57 121 7 l 42 0 l 728 0 l 786 246 z "},"Ń":{"ha":1089,"x_min":0,"x_max":0,"o":"m 711 972 l 711 965 b 883 703 806 965 883 868 l 883 292 l 361 972 l 38 972 l 38 965 b 200 835 97 965 153 901 l 200 269 b 28 7 200 104 122 7 l 28 0 l 378 0 l 378 7 b 207 269 283 7 207 104 l 207 825 b 850 0 228 794 819 36 l 890 0 l 890 703 b 1061 965 890 868 967 965 l 1061 972 z m 575 1068 l 582 1068 l 736 1222 l 611 1222 z "},"Ň":{"ha":1089,"x_min":0,"x_max":0,"o":"m 711 972 l 711 965 b 883 703 806 965 883 868 l 883 292 l 361 972 l 38 972 l 38 965 b 200 835 97 965 153 901 l 200 269 b 28 7 200 104 122 7 l 28 0 l 378 0 l 378 7 b 207 269 283 7 207 104 l 207 825 b 850 0 228 794 819 36 l 890 0 l 890 703 b 1061 965 890 868 967 965 l 1061 972 z m 757 1213 l 750 1213 l 585 1136 l 421 1213 l 414 1213 l 544 1058 l 625 1058 z "},"Ņ":{"ha":1089,"x_min":0,"x_max":0,"o":"m 711 972 l 711 965 b 883 703 806 965 883 868 l 883 292 l 361 972 l 38 972 l 38 965 b 200 835 97 965 153 901 l 200 269 b 28 7 200 104 122 7 l 28 0 l 378 0 l 378 7 b 207 269 283 7 207 104 l 207 825 b 850 0 228 794 819 36 l 890 0 l 890 703 b 1061 965 890 868 967 965 l 1061 972 z m 638 -211 b 576 -150 635 -176 610 -150 b 515 -211 543 -150 515 -178 b 576 -271 515 -244 543 -271 b 631 -239 600 -271 619 -258 b 543 -343 631 -271 614 -349 l 543 -347 b 638 -211 622 -351 640 -271 z "},"Ñ":{"ha":1089,"x_min":0,"x_max":0,"o":"m 711 972 l 711 965 b 883 703 806 965 883 868 l 883 292 l 361 972 l 38 972 l 38 965 b 200 835 97 965 153 901 l 200 269 b 28 7 200 104 122 7 l 28 0 l 378 0 l 378 7 b 207 269 283 7 207 104 l 207 825 b 850 0 228 794 819 36 l 890 0 l 890 703 b 1061 965 890 868 967 965 l 1061 972 z m 639 1096 b 699 1206 692 1093 703 1172 l 692 1206 b 639 1183 686 1183 675 1178 b 503 1211 615 1188 535 1214 b 440 1104 450 1204 443 1139 l 447 1104 b 503 1126 453 1117 471 1131 b 639 1096 538 1124 594 1099 z "},"Ó":{"ha":1163,"x_min":0,"x_max":0,"o":"m 1119 543 b 526 985 1097 835 824 1008 b 44 444 231 960 19 749 b 640 -12 69 142 343 -36 b 1119 543 936 13 1143 228 z m 640 -6 b 292 464 475 -18 319 194 b 525 978 264 731 364 961 b 874 513 690 992 854 789 b 640 -6 893 235 801 13 z m 525 1068 l 532 1068 l 686 1222 l 561 1222 z "},"Ŏ":{"ha":1163,"x_min":0,"x_max":0,"o":"m 1119 543 b 526 985 1097 835 824 1008 b 44 444 231 960 19 749 b 640 -12 69 142 343 -36 b 1119 543 936 13 1143 228 z m 640 -6 b 292 464 475 -18 319 194 b 525 978 264 731 364 961 b 874 513 690 992 854 789 b 640 -6 893 235 801 13 z m 581 1181 b 536 1058 574 1110 567 1058 b 492 1181 506 1058 497 1110 l 399 1181 b 536 1054 407 1089 479 1054 b 674 1181 593 1054 665 1089 z "},"Ô":{"ha":1163,"x_min":0,"x_max":0,"o":"m 1119 543 b 526 985 1097 835 824 1008 b 44 444 231 960 19 749 b 640 -12 69 142 343 -36 b 1119 543 936 13 1143 228 z m 640 -6 b 292 464 475 -18 319 194 b 525 978 264 731 364 961 b 874 513 690 992 854 789 b 640 -6 893 235 801 13 z m 576 1222 l 496 1222 l 365 1068 l 372 1068 l 536 1144 l 701 1068 l 708 1068 z "},"Ö":{"ha":1163,"x_min":0,"x_max":0,"o":"m 1119 543 b 526 985 1097 835 824 1008 b 44 444 231 960 19 749 b 640 -12 69 142 343 -36 b 1119 543 936 13 1143 228 z m 640 -6 b 292 464 475 -18 319 194 b 525 978 264 731 364 961 b 874 513 690 992 854 789 b 640 -6 893 235 801 13 z m 453 1211 b 394 1154 421 1211 394 1185 b 453 1096 394 1122 421 1096 b 510 1154 483 1096 510 1122 b 453 1211 510 1185 483 1211 z m 593 1211 b 536 1154 563 1211 536 1185 b 593 1096 536 1122 563 1096 b 650 1154 625 1096 650 1122 b 593 1211 650 1185 625 1211 z "},"Ò":{"ha":1163,"x_min":0,"x_max":0,"o":"m 1119 543 b 526 985 1097 835 824 1008 b 44 444 231 960 19 749 b 640 -12 69 142 343 -36 b 1119 543 936 13 1143 228 z m 640 -6 b 292 464 475 -18 319 194 b 525 978 264 731 364 961 b 874 513 690 992 854 789 b 640 -6 893 235 801 13 z m 482 1222 l 358 1222 l 513 1068 l 519 1068 z "},"Ő":{"ha":1163,"x_min":0,"x_max":0,"o":"m 1119 543 b 526 985 1097 835 824 1008 b 44 444 231 960 19 749 b 640 -12 69 142 343 -36 b 1119 543 936 13 1143 228 z m 640 -6 b 292 464 475 -18 319 194 b 525 978 264 731 364 961 b 874 513 690 992 854 789 b 640 -6 893 235 801 13 z m 599 1068 l 606 1068 l 761 1222 l 636 1222 z m 451 1068 l 458 1068 l 613 1222 l 489 1222 z "},"Ō":{"ha":1163,"x_min":0,"x_max":0,"o":"m 1119 543 b 526 985 1097 835 824 1008 b 44 444 231 960 19 749 b 640 -12 69 142 343 -36 b 1119 543 936 13 1143 228 z m 640 -6 b 292 464 475 -18 319 194 b 525 978 264 731 364 961 b 874 513 690 992 854 789 b 640 -6 893 235 801 13 z m 415 1149 l 415 1142 l 657 1142 l 657 1149 z "},"Ǿ":{"ha":1163,"x_min":0,"x_max":0,"o":"m 1119 543 b 717 972 1096 768 933 926 l 736 1046 l 729 1046 l 710 974 b 526 985 651 985 589 989 b 44 444 231 960 14 747 b 447 0 68 208 232 49 l 426 -75 l 433 -75 l 454 -1 b 640 -12 514 -14 576 -18 b 1119 543 936 13 1151 238 z m 292 464 b 525 978 264 731 364 961 b 694 913 585 982 643 958 l 465 65 b 292 464 376 149 308 294 z m 640 -6 b 471 61 581 -11 522 14 l 700 908 b 874 513 789 826 856 681 b 640 -6 901 246 801 13 z m 536 1068 l 543 1068 l 697 1222 l 572 1222 z "},"Õ":{"ha":1163,"x_min":0,"x_max":0,"o":"m 1119 543 b 526 985 1097 835 824 1008 b 44 444 231 960 19 749 b 640 -12 69 142 343 -36 b 1119 543 936 13 1143 228 z m 640 -6 b 292 464 475 -18 319 194 b 525 978 264 731 364 961 b 874 513 690 992 854 789 b 640 -6 893 235 801 13 z m 590 1096 b 650 1206 643 1093 654 1172 l 643 1206 b 590 1183 638 1183 626 1178 b 454 1211 567 1188 486 1214 b 392 1104 401 1204 394 1139 l 399 1104 b 454 1126 404 1117 422 1131 b 590 1096 489 1124 546 1099 z "},"Ŕ":{"ha":1004,"x_min":0,"x_max":0,"o":"m 789 215 b 528 490 728 351 688 458 b 792 731 661 506 792 571 b 482 972 792 913 617 972 l 42 972 l 42 965 b 129 813 121 965 129 915 l 129 160 b 42 7 129 58 121 7 l 42 0 l 432 0 l 432 7 b 344 160 353 7 346 58 l 344 488 l 392 488 b 628 61 535 479 507 197 b 850 0 681 0 789 0 b 997 0 921 0 997 0 l 997 7 b 789 215 900 7 829 126 z m 344 494 l 344 813 b 432 965 346 915 353 965 l 450 965 b 564 731 529 965 564 842 b 450 494 564 619 553 494 b 344 494 424 494 383 494 z m 397 1068 l 404 1068 l 558 1222 l 433 1222 z "},"Ř":{"ha":1004,"x_min":0,"x_max":0,"o":"m 789 215 b 528 490 728 351 688 458 b 792 731 661 506 792 571 b 482 972 792 913 617 972 l 42 972 l 42 965 b 129 813 121 965 129 915 l 129 160 b 42 7 129 58 121 7 l 42 0 l 432 0 l 432 7 b 344 160 353 7 346 58 l 344 488 l 392 488 b 628 61 535 479 507 197 b 850 0 681 0 789 0 b 997 0 921 0 997 0 l 997 7 b 789 215 900 7 829 126 z m 344 494 l 344 813 b 432 965 346 915 353 965 l 450 965 b 564 731 529 965 564 842 b 450 494 564 619 553 494 b 344 494 424 494 383 494 z m 607 1213 l 600 1213 l 435 1136 l 271 1213 l 264 1213 l 394 1058 l 475 1058 z "},"Ŗ":{"ha":1004,"x_min":0,"x_max":0,"o":"m 789 215 b 528 490 728 351 688 458 b 792 731 661 506 792 571 b 482 972 792 913 617 972 l 42 972 l 42 965 b 129 813 121 965 129 915 l 129 160 b 42 7 129 58 121 7 l 42 0 l 432 0 l 432 7 b 344 160 353 7 346 58 l 344 488 l 392 488 b 628 61 535 479 507 197 b 850 0 681 0 789 0 b 997 0 921 0 997 0 l 997 7 b 789 215 900 7 829 126 z m 344 494 l 344 813 b 432 965 346 915 353 965 l 450 965 b 564 731 529 965 564 842 b 450 494 564 619 553 494 b 344 494 424 494 383 494 z m 574 -211 b 513 -150 571 -176 546 -150 b 451 -211 479 -150 451 -178 b 513 -271 451 -244 479 -271 b 567 -239 536 -271 556 -258 b 479 -343 567 -271 550 -349 l 479 -347 b 574 -211 558 -351 576 -271 z "},"Ś":{"ha":750,"x_min":0,"x_max":0,"o":"m 240 835 b 375 979 240 906 285 979 b 635 667 540 979 635 835 l 642 667 l 642 1024 l 635 1024 b 557 946 635 946 607 932 b 372 986 496 963 450 986 b 49 708 183 986 49 874 b 507 138 49 383 507 400 b 344 -7 507 74 467 -7 b 49 306 126 -7 49 225 l 42 306 l 42 -51 l 49 -51 b 167 13 49 43 119 25 b 349 -14 217 0 272 -14 b 708 282 581 -14 708 114 b 240 835 708 589 240 608 z m 378 1068 l 385 1068 l 539 1222 l 414 1222 z "},"Š":{"ha":750,"x_min":0,"x_max":0,"o":"m 240 835 b 375 979 240 906 285 979 b 635 667 540 979 635 835 l 642 667 l 642 1024 l 635 1024 b 557 946 635 946 607 932 b 372 986 496 963 450 986 b 49 708 183 986 49 874 b 507 138 49 383 507 400 b 344 -7 507 74 467 -7 b 49 306 126 -7 49 225 l 42 306 l 42 -51 l 49 -51 b 167 13 49 43 119 25 b 349 -14 217 0 272 -14 b 708 282 581 -14 708 114 b 240 835 708 589 240 608 z m 546 1213 l 539 1213 l 374 1136 l 210 1213 l 203 1213 l 333 1058 l 414 1058 z "},"Ŝ":{"ha":750,"x_min":0,"x_max":0,"o":"m 240 835 b 375 979 240 906 285 979 b 635 667 540 979 635 835 l 642 667 l 642 1024 l 635 1024 b 557 946 635 946 607 932 b 372 986 496 963 450 986 b 49 708 183 986 49 874 b 507 138 49 383 507 400 b 344 -7 507 74 467 -7 b 49 306 126 -7 49 225 l 42 306 l 42 -51 l 49 -51 b 167 13 49 43 119 25 b 349 -14 217 0 272 -14 b 708 282 581 -14 708 114 b 240 835 708 589 240 608 z m 414 1222 l 333 1222 l 203 1068 l 210 1068 l 374 1144 l 539 1068 l 546 1068 z "},"Ș":{"ha":750,"x_min":0,"x_max":0,"o":"m 240 835 b 375 979 240 906 285 979 b 635 667 540 979 635 835 l 642 667 l 642 1024 l 635 1024 b 557 946 635 946 607 932 b 372 986 496 963 450 986 b 49 708 183 986 49 874 b 507 138 49 383 507 400 b 344 -7 507 74 467 -7 b 49 306 126 -7 49 225 l 42 306 l 42 -51 l 49 -51 b 167 13 49 43 119 25 b 349 -14 217 0 272 -14 b 708 282 581 -14 708 114 b 240 835 708 589 240 608 z m 450 -211 b 389 -150 447 -176 422 -150 b 328 -211 356 -150 328 -178 b 389 -271 328 -244 356 -271 b 443 -239 413 -271 432 -258 b 356 -343 443 -271 426 -349 l 356 -347 b 450 -211 435 -351 453 -271 z "},"Ť":{"ha":951,"x_min":0,"x_max":0,"o":"m 883 972 l 68 972 l 42 757 l 49 757 b 283 965 89 847 147 964 b 368 813 360 964 368 914 l 368 160 b 281 7 368 58 360 7 l 281 0 l 671 0 l 671 7 b 583 160 592 7 585 58 l 583 813 b 668 965 585 914 592 964 b 903 757 804 964 864 847 l 910 757 z m 647 1213 l 640 1213 l 475 1136 l 311 1213 l 304 1213 l 435 1058 l 515 1058 z "},"Ţ":{"ha":951,"x_min":0,"x_max":0,"o":"m 883 972 l 68 972 l 42 757 l 49 757 b 283 965 89 847 147 964 b 368 813 360 964 368 914 l 368 160 b 281 7 368 58 360 7 l 281 0 l 671 0 l 671 7 b 583 160 592 7 585 58 l 583 813 b 668 965 585 914 592 964 b 903 757 804 964 864 847 l 910 757 z m 535 -211 b 474 -150 532 -176 507 -150 b 413 -211 440 -150 413 -178 b 474 -271 413 -244 440 -271 b 528 -239 497 -271 517 -258 b 440 -343 528 -271 511 -349 l 440 -347 b 535 -211 519 -351 538 -271 z "},"Ú":{"ha":976,"x_min":0,"x_max":0,"o":"m 746 972 l 746 965 b 836 768 835 965 836 896 l 836 303 b 564 -4 836 118 715 -4 b 351 275 419 -4 351 114 l 351 813 b 439 965 353 915 360 965 l 439 972 l 42 972 l 42 965 b 129 813 121 965 129 915 l 129 317 b 564 -14 129 47 342 -14 b 843 296 690 -14 840 79 l 843 768 b 935 965 843 896 846 965 l 935 972 z m 574 1068 l 581 1068 l 735 1222 l 610 1222 z "},"Ŭ":{"ha":976,"x_min":0,"x_max":0,"o":"m 746 972 l 746 965 b 836 768 835 965 836 896 l 836 303 b 564 -4 836 118 715 -4 b 351 275 419 -4 351 114 l 351 813 b 439 965 353 915 360 965 l 439 972 l 42 972 l 42 965 b 129 813 121 965 129 915 l 129 317 b 564 -14 129 47 342 -14 b 843 296 690 -14 840 79 l 843 768 b 935 965 843 896 846 965 l 935 972 z m 636 1181 b 592 1058 629 1110 622 1058 b 547 1181 561 1058 553 1110 l 454 1181 b 592 1054 463 1089 535 1054 b 729 1181 649 1054 721 1089 z "},"Û":{"ha":976,"x_min":0,"x_max":0,"o":"m 746 972 l 746 965 b 836 768 835 965 836 896 l 836 303 b 564 -4 836 118 715 -4 b 351 275 419 -4 351 114 l 351 813 b 439 965 353 915 360 965 l 439 972 l 42 972 l 42 965 b 129 813 121 965 129 915 l 129 317 b 564 -14 129 47 342 -14 b 843 296 690 -14 840 79 l 843 768 b 935 965 843 896 846 965 l 935 972 z m 625 1222 l 544 1222 l 414 1068 l 421 1068 l 585 1144 l 750 1068 l 757 1068 z "},"Ü":{"ha":976,"x_min":0,"x_max":0,"o":"m 746 972 l 746 965 b 836 768 835 965 836 896 l 836 303 b 564 -4 836 118 715 -4 b 351 275 419 -4 351 114 l 351 813 b 439 965 353 915 360 965 l 439 972 l 42 972 l 42 965 b 129 813 121 965 129 915 l 129 317 b 564 -14 129 47 342 -14 b 843 296 690 -14 840 79 l 843 768 b 935 965 843 896 846 965 l 935 972 z m 529 1211 b 471 1154 497 1211 471 1185 b 529 1096 471 1122 497 1096 b 586 1154 560 1096 586 1122 b 529 1211 586 1185 560 1211 z m 669 1211 b 613 1154 639 1211 613 1185 b 669 1096 613 1122 639 1096 b 726 1154 701 1096 726 1122 b 669 1211 726 1185 701 1211 z "},"Ù":{"ha":976,"x_min":0,"x_max":0,"o":"m 746 972 l 746 965 b 836 768 835 965 836 896 l 836 303 b 564 -4 836 118 715 -4 b 351 275 419 -4 351 114 l 351 813 b 439 965 353 915 360 965 l 439 972 l 42 972 l 42 965 b 129 813 121 965 129 915 l 129 317 b 564 -14 129 47 342 -14 b 843 296 690 -14 840 79 l 843 768 b 935 965 843 896 846 965 l 935 972 z m 572 1222 l 449 1222 l 603 1068 l 610 1068 z "},"Ű":{"ha":976,"x_min":0,"x_max":0,"o":"m 746 972 l 746 965 b 836 768 835 965 836 896 l 836 303 b 564 -4 836 118 715 -4 b 351 275 419 -4 351 114 l 351 813 b 439 965 353 915 360 965 l 439 972 l 42 972 l 42 965 b 129 813 121 965 129 915 l 129 317 b 564 -14 129 47 342 -14 b 843 296 690 -14 840 79 l 843 768 b 935 965 843 896 846 965 l 935 972 z m 633 1068 l 640 1068 l 796 1222 l 671 1222 z m 486 1068 l 493 1068 l 647 1222 l 524 1222 z "},"Ū":{"ha":976,"x_min":0,"x_max":0,"o":"m 746 972 l 746 965 b 836 768 835 965 836 896 l 836 303 b 564 -4 836 118 715 -4 b 351 275 419 -4 351 114 l 351 813 b 439 965 353 915 360 965 l 439 972 l 42 972 l 42 965 b 129 813 121 965 129 915 l 129 317 b 564 -14 129 47 342 -14 b 843 296 690 -14 840 79 l 843 768 b 935 965 843 896 846 965 l 935 972 z m 478 1149 l 478 1142 l 719 1142 l 719 1149 z "},"Ů":{"ha":976,"x_min":0,"x_max":0,"o":"m 746 972 l 746 965 b 836 768 835 965 836 896 l 836 303 b 564 -4 836 118 715 -4 b 351 275 419 -4 351 114 l 351 813 b 439 965 353 915 360 965 l 439 972 l 42 972 l 42 965 b 129 813 121 965 129 915 l 129 317 b 564 -14 129 47 342 -14 b 843 296 690 -14 840 79 l 843 768 b 935 965 843 896 846 965 l 935 972 z m 599 1051 b 679 1132 643 1051 679 1088 b 599 1213 679 1176 643 1213 b 518 1132 554 1213 518 1176 b 599 1051 518 1088 554 1051 z m 599 1206 b 672 1132 639 1206 672 1172 b 599 1058 672 1090 639 1058 b 524 1132 557 1058 524 1090 b 599 1206 524 1172 557 1206 z "},"Ũ":{"ha":976,"x_min":0,"x_max":0,"o":"m 746 972 l 746 965 b 836 768 835 965 836 896 l 836 303 b 564 -4 836 118 715 -4 b 351 275 419 -4 351 114 l 351 813 b 439 965 353 915 360 965 l 439 972 l 42 972 l 42 965 b 129 813 121 965 129 915 l 129 317 b 564 -14 129 47 342 -14 b 843 296 690 -14 840 79 l 843 768 b 935 965 843 896 846 965 l 935 972 z m 653 1096 b 713 1206 706 1093 717 1172 l 706 1206 b 653 1183 700 1183 689 1178 b 517 1211 629 1188 549 1214 b 454 1104 464 1204 457 1139 l 461 1104 b 517 1126 467 1117 485 1131 b 653 1096 551 1124 608 1099 z "},"Ẃ":{"ha":1507,"x_min":0,"x_max":0,"o":"m 1176 972 l 1176 965 b 1253 726 1269 965 1278 832 b 1114 286 1246 694 1175 475 l 867 972 l 832 972 l 615 310 b 421 853 594 367 460 751 b 472 965 389 936 410 965 l 472 972 l 35 972 l 35 965 b 197 779 122 965 154 890 b 489 0 247 646 489 0 l 519 0 l 740 671 l 997 0 l 1028 0 b 1271 750 1028 0 1231 622 b 1472 965 1310 875 1383 950 l 1472 972 z m 853 1068 l 860 1068 l 1014 1222 l 889 1222 z "},"Ŵ":{"ha":1507,"x_min":0,"x_max":0,"o":"m 1176 972 l 1176 965 b 1253 726 1269 965 1278 832 b 1114 286 1246 694 1175 475 l 867 972 l 832 972 l 615 310 b 421 853 594 367 460 751 b 472 965 389 936 410 965 l 472 972 l 35 972 l 35 965 b 197 779 122 965 154 890 b 489 0 247 646 489 0 l 519 0 l 740 671 l 997 0 l 1028 0 b 1271 750 1028 0 1231 622 b 1472 965 1310 875 1383 950 l 1472 972 z m 890 1222 l 810 1222 l 679 1068 l 686 1068 l 850 1144 l 1015 1068 l 1022 1068 z "},"Ẅ":{"ha":1507,"x_min":0,"x_max":0,"o":"m 1176 972 l 1176 965 b 1253 726 1269 965 1278 832 b 1114 286 1246 694 1175 475 l 867 972 l 832 972 l 615 310 b 421 853 594 367 460 751 b 472 965 389 936 410 965 l 472 972 l 35 972 l 35 965 b 197 779 122 965 154 890 b 489 0 247 646 489 0 l 519 0 l 740 671 l 997 0 l 1028 0 b 1271 750 1028 0 1231 622 b 1472 965 1310 875 1383 950 l 1472 972 z m 779 1211 b 721 1154 747 1211 721 1185 b 779 1096 721 1122 747 1096 b 836 1154 810 1096 836 1122 b 779 1211 836 1185 810 1211 z m 919 1211 b 863 1154 889 1211 863 1185 b 919 1096 863 1122 889 1096 b 976 1154 951 1096 976 1122 b 919 1211 976 1185 951 1211 z "},"Ẁ":{"ha":1507,"x_min":0,"x_max":0,"o":"m 1176 972 l 1176 965 b 1253 726 1269 965 1278 832 b 1114 286 1246 694 1175 475 l 867 972 l 832 972 l 615 310 b 421 853 594 367 460 751 b 472 965 389 936 410 965 l 472 972 l 35 972 l 35 965 b 197 779 122 965 154 890 b 489 0 247 646 489 0 l 519 0 l 740 671 l 997 0 l 1028 0 b 1271 750 1028 0 1231 622 b 1472 965 1310 875 1383 950 l 1472 972 z m 796 1222 l 672 1222 l 826 1068 l 833 1068 z "},"Ý":{"ha":1022,"x_min":0,"x_max":0,"o":"m 685 972 l 685 965 b 744 700 778 965 790 829 b 642 424 726 647 653 454 b 425 844 622 463 454 788 b 439 965 403 889 385 965 l 439 972 l 35 972 l 35 965 b 247 747 121 965 203 832 b 432 401 279 683 372 513 l 432 160 b 344 7 432 58 424 7 l 344 0 l 735 0 l 735 7 b 647 160 656 7 649 58 l 647 421 b 772 750 647 421 721 613 b 988 965 817 872 899 950 l 988 972 z m 569 1068 l 576 1068 l 731 1222 l 606 1222 z "},"Ŷ":{"ha":1022,"x_min":0,"x_max":0,"o":"m 685 972 l 685 965 b 744 700 778 965 790 829 b 642 424 726 647 653 454 b 425 844 622 463 454 788 b 439 965 403 889 385 965 l 439 972 l 35 972 l 35 965 b 247 747 121 965 203 832 b 432 401 279 683 372 513 l 432 160 b 344 7 432 58 424 7 l 344 0 l 735 0 l 735 7 b 647 160 656 7 649 58 l 647 421 b 772 750 647 421 721 613 b 988 965 817 872 899 950 l 988 972 z m 592 1222 l 511 1222 l 381 1068 l 388 1068 l 551 1144 l 717 1068 l 724 1068 z "},"Ÿ":{"ha":1022,"x_min":0,"x_max":0,"o":"m 685 972 l 685 965 b 744 700 778 965 790 829 b 642 424 726 647 653 454 b 425 844 622 463 454 788 b 439 965 403 889 385 965 l 439 972 l 35 972 l 35 965 b 247 747 121 965 203 832 b 432 401 279 683 372 513 l 432 160 b 344 7 432 58 424 7 l 344 0 l 735 0 l 735 7 b 647 160 656 7 649 58 l 647 421 b 772 750 647 421 721 613 b 988 965 817 872 899 950 l 988 972 z m 497 1211 b 439 1154 465 1211 439 1185 b 497 1096 439 1122 465 1096 b 554 1154 528 1096 554 1122 b 497 1211 554 1185 528 1211 z m 638 1211 b 581 1154 607 1211 581 1185 b 638 1096 581 1122 607 1096 b 694 1154 669 1096 694 1122 b 638 1211 694 1185 669 1211 z "},"Ỳ":{"ha":1022,"x_min":0,"x_max":0,"o":"m 685 972 l 685 965 b 744 700 778 965 790 829 b 642 424 726 647 653 454 b 425 844 622 463 454 788 b 439 965 403 889 385 965 l 439 972 l 35 972 l 35 965 b 247 747 121 965 203 832 b 432 401 279 683 372 513 l 432 160 b 344 7 432 58 424 7 l 344 0 l 735 0 l 735 7 b 647 160 656 7 649 58 l 647 421 b 772 750 647 421 721 613 b 988 965 817 872 899 950 l 988 972 z m 526 1222 l 403 1222 l 557 1068 l 564 1068 z "},"Ź":{"ha":821,"x_min":0,"x_max":0,"o":"m 779 972 l 132 972 l 86 774 l 92 774 b 351 965 132 865 211 965 l 550 965 l 42 7 l 42 0 l 701 0 l 749 199 l 742 199 b 489 7 701 107 629 7 l 271 7 l 779 965 z m 468 1068 l 475 1068 l 629 1222 l 504 1222 z "},"Ž":{"ha":821,"x_min":0,"x_max":0,"o":"m 779 972 l 132 972 l 86 774 l 92 774 b 351 965 132 865 211 965 l 550 965 l 42 7 l 42 0 l 701 0 l 749 199 l 742 199 b 489 7 701 107 629 7 l 271 7 l 779 965 z m 665 1213 l 658 1213 l 493 1136 l 329 1213 l 322 1213 l 453 1058 l 533 1058 z "},"Ż":{"ha":821,"x_min":0,"x_max":0,"o":"m 779 972 l 132 972 l 86 774 l 92 774 b 351 965 132 865 211 965 l 550 965 l 42 7 l 42 0 l 701 0 l 749 199 l 742 199 b 489 7 701 107 629 7 l 271 7 l 779 965 z m 481 1211 b 422 1154 449 1211 422 1185 b 481 1096 422 1122 449 1096 b 538 1154 511 1096 538 1122 b 481 1211 538 1185 511 1211 z "},"á":{"ha":771,"x_min":0,"x_max":0,"o":"m 717 -4 b 650 144 653 -4 650 50 b 650 468 650 144 650 329 b 350 700 650 656 481 700 b 101 565 201 700 124 617 b 146 449 78 508 104 457 b 214 518 194 439 225 481 b 178 619 203 557 158 575 b 346 694 199 663 256 694 b 440 488 447 694 440 606 b 440 360 440 451 440 406 b 381 329 426 349 407 339 b 43 131 242 282 50 303 b 319 -1 38 -21 215 -33 b 444 115 378 15 418 60 b 693 -14 468 -3 613 -14 b 764 3 719 -14 747 -7 l 764 11 b 717 -4 757 6 738 -4 z m 343 14 b 232 163 258 -29 222 36 b 388 326 240 289 319 301 b 440 351 410 335 428 343 b 440 151 440 251 440 151 b 443 125 440 142 442 133 b 343 14 421 78 390 36 z m 364 790 l 371 790 l 525 944 l 400 944 z "},"ă":{"ha":771,"x_min":0,"x_max":0,"o":"m 717 -4 b 650 144 653 -4 650 50 b 650 468 650 144 650 329 b 350 700 650 656 481 700 b 101 565 201 700 124 617 b 146 449 78 508 104 457 b 214 518 194 439 225 481 b 178 619 203 557 158 575 b 346 694 199 663 256 694 b 440 488 447 694 440 606 b 440 360 440 451 440 406 b 381 329 426 349 407 339 b 43 131 242 282 50 303 b 319 -1 38 -21 215 -33 b 444 115 378 15 418 60 b 693 -14 468 -3 613 -14 b 764 3 719 -14 747 -7 l 764 11 b 717 -4 757 6 738 -4 z m 343 14 b 232 163 258 -29 222 36 b 388 326 240 289 319 301 b 440 351 410 335 428 343 b 440 151 440 251 440 151 b 443 125 440 142 442 133 b 343 14 421 78 390 36 z m 419 903 b 375 781 413 832 406 781 b 331 903 344 781 336 832 l 238 903 b 375 776 246 811 318 776 b 513 903 432 776 504 811 z "},"â":{"ha":771,"x_min":0,"x_max":0,"o":"m 717 -4 b 650 144 653 -4 650 50 b 650 468 650 144 650 329 b 350 700 650 656 481 700 b 101 565 201 700 124 617 b 146 449 78 508 104 457 b 214 518 194 439 225 481 b 178 619 203 557 158 575 b 346 694 199 663 256 694 b 440 488 447 694 440 606 b 440 360 440 451 440 406 b 381 329 426 349 407 339 b 43 131 242 282 50 303 b 319 -1 38 -21 215 -33 b 444 115 378 15 418 60 b 693 -14 468 -3 613 -14 b 764 3 719 -14 747 -7 l 764 11 b 717 -4 757 6 738 -4 z m 343 14 b 232 163 258 -29 222 36 b 388 326 240 289 319 301 b 440 351 410 335 428 343 b 440 151 440 251 440 151 b 443 125 440 142 442 133 b 343 14 421 78 390 36 z m 442 944 l 361 944 l 231 790 l 238 790 l 401 867 l 567 790 l 574 790 z "},"ä":{"ha":771,"x_min":0,"x_max":0,"o":"m 717 -4 b 650 144 653 -4 650 50 b 650 468 650 144 650 329 b 350 700 650 656 481 700 b 101 565 201 700 124 617 b 146 449 78 508 104 457 b 214 518 194 439 225 481 b 178 619 203 557 158 575 b 346 694 199 663 256 694 b 440 488 447 694 440 606 b 440 360 440 451 440 406 b 381 329 426 349 407 339 b 43 131 242 282 50 303 b 319 -1 38 -21 215 -33 b 444 115 378 15 418 60 b 693 -14 468 -3 613 -14 b 764 3 719 -14 747 -7 l 764 11 b 717 -4 757 6 738 -4 z m 343 14 b 232 163 258 -29 222 36 b 388 326 240 289 319 301 b 440 351 410 335 428 343 b 440 151 440 251 440 151 b 443 125 440 142 442 133 b 343 14 421 78 390 36 z m 333 933 b 275 876 301 933 275 907 b 333 818 275 844 301 818 b 390 876 364 818 390 844 b 333 933 390 907 364 933 z m 474 933 b 417 876 443 933 417 907 b 474 818 417 844 443 818 b 531 876 506 818 531 844 b 474 933 531 907 506 933 z "},"à":{"ha":771,"x_min":0,"x_max":0,"o":"m 717 -4 b 650 144 653 -4 650 50 b 650 468 650 144 650 329 b 350 700 650 656 481 700 b 101 565 201 700 124 617 b 146 449 78 508 104 457 b 214 518 194 439 225 481 b 178 619 203 557 158 575 b 346 694 199 663 256 694 b 440 488 447 694 440 606 b 440 360 440 451 440 406 b 381 329 426 349 407 339 b 43 131 242 282 50 303 b 319 -1 38 -21 215 -33 b 444 115 378 15 418 60 b 693 -14 468 -3 613 -14 b 764 3 719 -14 747 -7 l 764 11 b 717 -4 757 6 738 -4 z m 343 14 b 232 163 258 -29 222 36 b 388 326 240 289 319 301 b 440 351 410 335 428 343 b 440 151 440 251 440 151 b 443 125 440 142 442 133 b 343 14 421 78 390 36 z m 363 944 l 239 944 l 393 790 l 400 790 z "},"ā":{"ha":771,"x_min":0,"x_max":0,"o":"m 717 -4 b 650 144 653 -4 650 50 b 650 468 650 144 650 329 b 350 700 650 656 481 700 b 101 565 201 700 124 617 b 146 449 78 508 104 457 b 214 518 194 439 225 481 b 178 619 203 557 158 575 b 346 694 199 663 256 694 b 440 488 447 694 440 606 b 440 360 440 451 440 406 b 381 329 426 349 407 339 b 43 131 242 282 50 303 b 319 -1 38 -21 215 -33 b 444 115 378 15 418 60 b 693 -14 468 -3 613 -14 b 764 3 719 -14 747 -7 l 764 11 b 717 -4 757 6 738 -4 z m 343 14 b 232 163 258 -29 222 36 b 388 326 240 289 319 301 b 440 351 410 335 428 343 b 440 151 440 251 440 151 b 443 125 440 142 442 133 b 343 14 421 78 390 36 z m 254 871 l 254 864 l 496 864 l 496 871 z "},"å":{"ha":771,"x_min":0,"x_max":0,"o":"m 717 -4 b 650 144 653 -4 650 50 b 650 468 650 144 650 329 b 350 700 650 656 481 700 b 101 565 201 700 124 617 b 146 449 78 508 104 457 b 214 518 194 439 225 481 b 178 619 203 557 158 575 b 346 694 199 663 256 694 b 440 488 447 694 440 606 b 440 360 440 451 440 406 b 381 329 426 349 407 339 b 43 131 242 282 50 303 b 319 -1 38 -21 215 -33 b 444 115 378 15 418 60 b 693 -14 468 -3 613 -14 b 764 3 719 -14 747 -7 l 764 11 b 717 -4 757 6 738 -4 z m 343 14 b 232 163 258 -29 222 36 b 388 326 240 289 319 301 b 440 351 410 335 428 343 b 440 151 440 251 440 151 b 443 125 440 142 442 133 b 343 14 421 78 390 36 z m 375 774 b 456 854 419 774 456 810 b 375 935 456 899 419 935 b 294 854 331 935 294 899 b 375 774 294 810 331 774 z m 375 928 b 449 854 415 928 449 894 b 375 781 449 813 415 781 b 300 854 333 781 300 813 b 375 928 300 894 333 928 z "},"ã":{"ha":771,"x_min":0,"x_max":0,"o":"m 717 -4 b 650 144 653 -4 650 50 b 650 468 650 144 650 329 b 350 700 650 656 481 700 b 101 565 201 700 124 617 b 146 449 78 508 104 457 b 214 518 194 439 225 481 b 178 619 203 557 158 575 b 346 694 199 663 256 694 b 440 488 447 694 440 606 b 440 360 440 451 440 406 b 381 329 426 349 407 339 b 43 131 242 282 50 303 b 319 -1 38 -21 215 -33 b 444 115 378 15 418 60 b 693 -14 468 -3 613 -14 b 764 3 719 -14 747 -7 l 764 11 b 717 -4 757 6 738 -4 z m 343 14 b 232 163 258 -29 222 36 b 388 326 240 289 319 301 b 440 351 410 335 428 343 b 440 151 440 251 440 151 b 443 125 440 142 442 133 b 343 14 421 78 390 36 z m 442 818 b 501 928 494 815 506 894 l 494 928 b 442 906 489 906 478 900 b 306 933 418 910 338 936 b 243 826 253 926 246 861 l 250 826 b 306 849 256 839 274 853 b 442 818 340 846 397 821 z "},"ǽ":{"ha":1207,"x_min":0,"x_max":0,"o":"m 1172 463 b 836 699 1153 626 1025 707 b 590 622 750 694 660 671 b 349 699 529 682 432 699 b 100 565 201 699 122 617 b 144 450 76 508 103 457 b 214 518 193 440 224 481 b 178 619 201 557 157 575 b 344 694 197 663 254 694 b 453 488 446 694 453 606 b 453 371 453 394 453 375 b 379 329 438 356 414 342 b 43 132 242 283 50 303 b 318 -1 36 -19 214 -32 b 475 210 408 25 453 114 b 907 -12 540 39 740 -22 b 1139 64 1008 -7 1086 31 l 1139 81 b 906 -7 1092 38 988 -8 b 664 322 749 -7 676 156 b 667 463 660 368 661 417 z m 836 693 b 978 468 943 700 974 585 l 667 468 b 836 693 683 586 733 688 z m 342 14 b 231 164 257 -29 221 38 b 386 326 239 289 318 301 b 453 363 418 339 439 350 b 453 319 453 349 453 335 b 471 221 454 283 461 251 b 342 14 453 136 418 51 z m 610 790 l 617 790 l 771 944 l 646 944 z "},"ć":{"ha":756,"x_min":0,"x_max":0,"o":"m 500 -7 b 254 322 347 -6 267 156 b 435 693 242 488 292 682 b 622 626 515 699 594 667 b 590 532 653 582 606 579 b 665 449 575 485 611 440 b 707 575 719 457 733 525 b 435 699 681 625 575 707 b 43 319 242 688 28 575 b 501 -12 61 54 303 -25 b 703 61 589 -7 660 26 l 703 78 b 500 -7 667 36 575 -7 z m 443 790 l 450 790 l 604 944 l 479 944 z "},"č":{"ha":756,"x_min":0,"x_max":0,"o":"m 500 -7 b 254 322 347 -6 267 156 b 435 693 242 488 292 682 b 622 626 515 699 594 667 b 590 532 653 582 606 579 b 665 449 575 485 611 440 b 707 575 719 457 733 525 b 435 699 681 625 575 707 b 43 319 242 688 28 575 b 501 -12 61 54 303 -25 b 703 61 589 -7 660 26 l 703 78 b 500 -7 667 36 575 -7 z m 626 935 l 619 935 l 454 858 l 290 935 l 283 935 l 414 781 l 494 781 z "},"ĉ":{"ha":756,"x_min":0,"x_max":0,"o":"m 500 -7 b 254 322 347 -6 267 156 b 435 693 242 488 292 682 b 622 626 515 699 594 667 b 590 532 653 582 606 579 b 665 449 575 485 611 440 b 707 575 719 457 733 525 b 435 699 681 625 575 707 b 43 319 242 688 28 575 b 501 -12 61 54 303 -25 b 703 61 589 -7 660 26 l 703 78 b 500 -7 667 36 575 -7 z m 494 944 l 414 944 l 283 790 l 290 790 l 454 867 l 619 790 l 626 790 z "},"ċ":{"ha":756,"x_min":0,"x_max":0,"o":"m 500 -7 b 254 322 347 -6 267 156 b 435 693 242 488 292 682 b 622 626 515 699 594 667 b 590 532 653 582 606 579 b 665 449 575 485 611 440 b 707 575 719 457 733 525 b 435 699 681 625 575 707 b 43 319 242 688 28 575 b 501 -12 61 54 303 -25 b 703 61 589 -7 660 26 l 703 78 b 500 -7 667 36 575 -7 z m 469 933 b 411 876 438 933 411 907 b 469 818 411 844 438 818 b 526 876 500 818 526 844 b 469 933 526 907 500 933 z "},"ď":{"ha":914,"x_min":0,"x_max":0,"o":"m 761 160 l 761 807 b 783 1015 761 947 771 1008 l 783 1022 l 464 1022 l 464 1015 b 551 864 539 1015 551 976 l 551 697 b 340 683 485 701 424 704 b 43 343 193 646 53 565 b 364 -14 33 114 171 -14 b 549 103 443 -14 510 21 b 528 7 544 40 538 11 l 528 0 l 849 0 l 849 7 b 761 158 774 7 761 46 z m 551 215 b 550 117 551 176 551 144 b 399 0 521 51 469 0 b 253 340 303 0 249 151 b 374 679 256 518 286 643 b 551 692 413 696 493 697 z m 989 965 b 928 1026 986 1000 961 1026 b 867 965 894 1026 867 999 b 928 906 867 932 894 906 b 982 938 951 906 971 918 b 894 833 982 906 965 828 l 894 829 b 989 965 974 825 992 906 z "},"é":{"ha":799,"x_min":0,"x_max":0,"o":"m 764 463 b 426 699 743 626 615 707 b 43 319 235 690 32 568 b 497 -12 54 71 299 -24 b 729 64 599 -7 676 31 l 729 81 b 496 -7 682 36 578 -7 b 250 322 339 -6 263 156 b 257 463 246 368 251 417 z m 426 693 b 568 467 533 700 564 585 l 257 467 b 426 693 274 586 324 688 z m 426 790 l 433 790 l 588 944 l 463 944 z "},"ĕ":{"ha":799,"x_min":0,"x_max":0,"o":"m 764 463 b 426 699 743 626 615 707 b 43 319 235 690 32 568 b 497 -12 54 71 299 -24 b 729 64 599 -7 676 31 l 729 81 b 496 -7 682 36 578 -7 b 250 322 339 -6 263 156 b 257 463 246 368 251 417 z m 426 693 b 568 467 533 700 564 585 l 257 467 b 426 693 274 586 324 688 z m 496 903 b 451 781 489 832 482 781 b 407 903 421 781 413 832 l 314 903 b 451 776 322 811 394 776 b 589 903 508 776 581 811 z "},"ě":{"ha":799,"x_min":0,"x_max":0,"o":"m 764 463 b 426 699 743 626 615 707 b 43 319 235 690 32 568 b 497 -12 54 71 299 -24 b 729 64 599 -7 676 31 l 729 81 b 496 -7 682 36 578 -7 b 250 322 339 -6 263 156 b 257 463 246 368 251 417 z m 426 693 b 568 467 533 700 564 585 l 257 467 b 426 693 274 586 324 688 z m 608 935 l 601 935 l 436 858 l 272 935 l 265 935 l 396 781 l 476 781 z "},"ê":{"ha":799,"x_min":0,"x_max":0,"o":"m 764 463 b 426 699 743 626 615 707 b 43 319 235 690 32 568 b 497 -12 54 71 299 -24 b 729 64 599 -7 676 31 l 729 81 b 496 -7 682 36 578 -7 b 250 322 339 -6 263 156 b 257 463 246 368 251 417 z m 426 693 b 568 467 533 700 564 585 l 257 467 b 426 693 274 586 324 688 z m 476 944 l 396 944 l 265 790 l 272 790 l 436 867 l 601 790 l 608 790 z "},"ë":{"ha":799,"x_min":0,"x_max":0,"o":"m 764 463 b 426 699 743 626 615 707 b 43 319 235 690 32 568 b 497 -12 54 71 299 -24 b 729 64 599 -7 676 31 l 729 81 b 496 -7 682 36 578 -7 b 250 322 339 -6 263 156 b 257 463 246 368 251 417 z m 426 693 b 568 467 533 700 564 585 l 257 467 b 426 693 274 586 324 688 z m 368 933 b 310 876 336 933 310 907 b 368 818 310 844 336 818 b 425 876 399 818 425 844 b 368 933 425 907 399 933 z m 508 933 b 451 876 478 933 451 907 b 508 818 451 844 478 818 b 565 876 540 818 565 844 b 508 933 565 907 540 933 z "},"ė":{"ha":799,"x_min":0,"x_max":0,"o":"m 764 463 b 426 699 743 626 615 707 b 43 319 235 690 32 568 b 497 -12 54 71 299 -24 b 729 64 599 -7 676 31 l 729 81 b 496 -7 682 36 578 -7 b 250 322 339 -6 263 156 b 257 463 246 368 251 417 z m 426 693 b 568 467 533 700 564 585 l 257 467 b 426 693 274 586 324 688 z m 438 933 b 379 876 406 933 379 907 b 438 818 379 844 406 818 b 494 876 468 818 494 844 b 438 933 494 907 468 933 z "},"è":{"ha":799,"x_min":0,"x_max":0,"o":"m 764 463 b 426 699 743 626 615 707 b 43 319 235 690 32 568 b 497 -12 54 71 299 -24 b 729 64 599 -7 676 31 l 729 81 b 496 -7 682 36 578 -7 b 250 322 339 -6 263 156 b 257 463 246 368 251 417 z m 426 693 b 568 467 533 700 564 585 l 257 467 b 426 693 274 586 324 688 z m 425 944 l 301 944 l 456 790 l 463 790 z "},"ē":{"ha":799,"x_min":0,"x_max":0,"o":"m 764 463 b 426 699 743 626 615 707 b 43 319 235 690 32 568 b 497 -12 54 71 299 -24 b 729 64 599 -7 676 31 l 729 81 b 496 -7 682 36 578 -7 b 250 322 339 -6 263 156 b 257 463 246 368 251 417 z m 426 693 b 568 467 533 700 564 585 l 257 467 b 426 693 274 586 324 688 z m 317 871 l 317 864 l 558 864 l 558 871 z "},"ğ":{"ha":754,"x_min":0,"x_max":0,"o":"m 753 -47 b 439 90 739 51 654 67 b 250 181 289 107 192 144 b 389 168 297 167 347 164 b 671 431 511 179 681 260 b 531 618 665 525 606 585 b 554 656 538 633 546 647 b 639 643 588 686 606 647 b 690 713 675 639 706 672 b 588 729 678 747 628 760 b 526 619 567 714 540 672 b 349 649 468 644 401 654 b 67 385 226 638 54 561 b 243 183 75 272 154 210 b 136 135 207 174 161 163 b 164 -21 96 88 106 14 b 594 -108 271 -83 522 -74 b 510 -310 658 -139 643 -240 b 143 -208 368 -383 157 -374 b 229 -81 138 -132 171 -87 b 342 -94 285 -75 342 -94 l 342 -81 b 235 -75 308 -76 271 -75 b 1 -219 133 -78 -14 -99 b 463 -340 18 -350 299 -386 b 753 -47 631 -293 769 -175 z m 349 643 b 481 424 439 650 468 563 b 389 174 492 283 479 183 b 257 392 299 167 269 253 b 349 643 246 532 258 633 z m 407 903 b 363 781 400 832 393 781 b 318 903 332 781 324 832 l 225 903 b 363 776 233 811 306 776 b 500 903 419 776 492 811 z "},"ĝ":{"ha":754,"x_min":0,"x_max":0,"o":"m 753 -47 b 439 90 739 51 654 67 b 250 181 289 107 192 144 b 389 168 297 167 347 164 b 671 431 511 179 681 260 b 531 618 665 525 606 585 b 554 656 538 633 546 647 b 639 643 588 686 606 647 b 690 713 675 639 706 672 b 588 729 678 747 628 760 b 526 619 567 714 540 672 b 349 649 468 644 401 654 b 67 385 226 638 54 561 b 243 183 75 272 154 210 b 136 135 207 174 161 163 b 164 -21 96 88 106 14 b 594 -108 271 -83 522 -74 b 510 -310 658 -139 643 -240 b 143 -208 368 -383 157 -374 b 229 -81 138 -132 171 -87 b 342 -94 285 -75 342 -94 l 342 -81 b 235 -75 308 -76 271 -75 b 1 -219 133 -78 -14 -99 b 463 -340 18 -350 299 -386 b 753 -47 631 -293 769 -175 z m 349 643 b 481 424 439 650 468 563 b 389 174 492 283 479 183 b 257 392 299 167 269 253 b 349 643 246 532 258 633 z m 403 944 l 322 944 l 192 790 l 199 790 l 363 867 l 528 790 l 535 790 z "},"ģ":{"ha":754,"x_min":0,"x_max":0,"o":"m 753 -47 b 439 90 739 51 654 67 b 250 181 289 107 192 144 b 389 168 297 167 347 164 b 671 431 511 179 681 260 b 531 618 665 525 606 585 b 554 656 538 633 546 647 b 639 643 588 686 606 647 b 690 713 675 639 706 672 b 588 729 678 747 628 760 b 526 619 567 714 540 672 b 349 649 468 644 401 654 b 67 385 226 638 54 561 b 243 183 75 272 154 210 b 136 135 207 174 161 163 b 164 -21 96 88 106 14 b 594 -108 271 -83 522 -74 b 510 -310 658 -139 643 -240 b 143 -208 368 -383 157 -374 b 229 -81 138 -132 171 -87 b 342 -94 285 -75 342 -94 l 342 -81 b 235 -75 308 -76 271 -75 b 1 -219 133 -78 -14 -99 b 463 -340 18 -350 299 -386 b 753 -47 631 -293 769 -175 z m 349 643 b 481 424 439 650 468 563 b 389 174 492 283 479 183 b 257 392 299 167 269 253 b 349 643 246 532 258 633 z m 314 826 b 374 767 315 792 340 767 b 435 826 407 767 435 793 b 374 888 435 860 407 888 b 321 856 351 888 331 874 b 407 960 321 888 336 965 l 407 964 b 314 826 328 967 310 888 z "},"ġ":{"ha":754,"x_min":0,"x_max":0,"o":"m 753 -47 b 439 90 739 51 654 67 b 250 181 289 107 192 144 b 389 168 297 167 347 164 b 671 431 511 179 681 260 b 531 618 665 525 606 585 b 554 656 538 633 546 647 b 639 643 588 686 606 647 b 690 713 675 639 706 672 b 588 729 678 747 628 760 b 526 619 567 714 540 672 b 349 649 468 644 401 654 b 67 385 226 638 54 561 b 243 183 75 272 154 210 b 136 135 207 174 161 163 b 164 -21 96 88 106 14 b 594 -108 271 -83 522 -74 b 510 -310 658 -139 643 -240 b 143 -208 368 -383 157 -374 b 229 -81 138 -132 171 -87 b 342 -94 285 -75 342 -94 l 342 -81 b 235 -75 308 -76 271 -75 b 1 -219 133 -78 -14 -99 b 463 -340 18 -350 299 -386 b 753 -47 631 -293 769 -175 z m 349 643 b 481 424 439 650 468 563 b 389 174 492 283 479 183 b 257 392 299 167 269 253 b 349 643 246 532 258 633 z m 378 933 b 319 876 346 933 319 907 b 378 818 319 844 346 818 b 435 876 408 818 435 844 b 378 933 435 907 408 933 z "},"ĥ":{"ha":893,"x_min":0,"x_max":0,"o":"m 778 160 l 778 444 b 533 700 778 622 681 700 b 324 590 419 700 368 658 l 324 807 b 347 1015 324 947 333 1008 l 347 1022 l 28 1022 l 28 1015 b 115 864 107 1015 114 965 l 115 160 b 28 7 114 47 101 7 l 28 0 l 411 0 l 411 7 b 324 160 338 7 324 47 l 324 576 b 475 686 356 643 418 686 b 569 471 576 686 569 565 l 569 160 b 482 7 569 47 556 7 l 482 0 l 865 0 l 865 7 b 778 158 792 7 779 46 z m 253 1238 l 172 1238 l 42 1083 l 49 1083 l 213 1160 l 378 1083 l 385 1083 z "},"í":{"ha":440,"x_min":0,"x_max":0,"o":"m 325 160 l 325 471 b 347 679 325 611 335 672 l 347 686 l 28 686 l 28 679 b 115 528 103 679 115 640 l 115 160 b 28 7 115 47 103 7 l 28 0 l 413 0 l 413 7 b 325 158 338 7 325 46 z m 194 790 l 201 790 l 356 944 l 231 944 z "},"ĭ":{"ha":440,"x_min":0,"x_max":0,"o":"m 325 160 l 325 471 b 347 679 325 611 335 672 l 347 686 l 28 686 l 28 679 b 115 528 103 679 115 640 l 115 160 b 28 7 115 47 103 7 l 28 0 l 413 0 l 413 7 b 325 158 338 7 325 46 z m 264 903 b 219 781 257 832 250 781 b 175 903 189 781 181 832 l 82 903 b 219 776 90 811 163 776 b 357 903 276 776 349 811 z "},"î":{"ha":440,"x_min":0,"x_max":0,"o":"m 325 160 l 325 471 b 347 679 325 611 335 672 l 347 686 l 28 686 l 28 679 b 115 528 103 679 115 640 l 115 160 b 28 7 115 47 103 7 l 28 0 l 413 0 l 413 7 b 325 158 338 7 325 46 z m 246 944 l 165 944 l 35 790 l 42 790 l 206 867 l 371 790 l 378 790 z "},"ï":{"ha":440,"x_min":0,"x_max":0,"o":"m 325 160 l 325 471 b 347 679 325 611 335 672 l 347 686 l 28 686 l 28 679 b 115 528 103 679 115 640 l 115 160 b 28 7 115 47 103 7 l 28 0 l 413 0 l 413 7 b 325 158 338 7 325 46 z m 150 933 b 92 876 118 933 92 907 b 150 818 92 844 118 818 b 207 876 181 818 207 844 b 150 933 207 907 181 933 z m 290 933 b 233 876 260 933 233 907 b 290 818 233 844 260 818 b 347 876 322 818 347 844 b 290 933 347 907 322 933 z "},"ì":{"ha":440,"x_min":0,"x_max":0,"o":"m 325 160 l 325 471 b 347 679 325 611 335 672 l 347 686 l 28 686 l 28 679 b 115 528 103 679 115 640 l 115 160 b 28 7 115 47 103 7 l 28 0 l 413 0 l 413 7 b 325 158 338 7 325 46 z m 207 944 l 83 944 l 238 790 l 244 790 z "},"ī":{"ha":440,"x_min":0,"x_max":0,"o":"m 325 160 l 325 471 b 347 679 325 611 335 672 l 347 686 l 28 686 l 28 679 b 115 528 103 679 115 640 l 115 160 b 28 7 115 47 103 7 l 28 0 l 413 0 l 413 7 b 325 158 338 7 325 46 z m 85 871 l 85 864 l 326 864 l 326 871 z "},"ĩ":{"ha":440,"x_min":0,"x_max":0,"o":"m 325 160 l 325 471 b 347 679 325 611 335 672 l 347 686 l 28 686 l 28 679 b 115 528 103 679 115 640 l 115 160 b 28 7 115 47 103 7 l 28 0 l 413 0 l 413 7 b 325 158 338 7 325 46 z m 288 818 b 347 928 340 815 351 894 l 340 928 b 288 906 335 906 324 900 b 151 933 264 910 183 936 b 89 826 99 926 92 861 l 96 826 b 151 849 101 839 119 853 b 288 818 186 846 243 821 z "},"ĳ":{"ha":867,"x_min":0,"x_max":0,"o":"m 325 160 l 325 471 b 347 679 325 611 335 672 l 347 686 l 28 686 l 28 679 b 115 528 103 679 115 640 l 115 160 b 28 7 115 47 103 7 l 28 0 l 413 0 l 413 7 b 325 158 338 7 325 46 z m 219 794 b 329 908 281 794 329 846 b 219 1022 329 972 281 1022 b 111 908 160 1022 111 972 b 219 794 111 846 160 794 z m 632 794 b 740 908 692 794 740 846 b 632 1022 740 972 692 1022 b 522 908 571 1022 522 972 b 632 794 522 846 571 794 z m 439 686 l 439 679 b 526 528 514 679 526 640 l 526 -121 b 399 -399 526 -293 486 -367 l 399 -407 b 736 -104 547 -394 736 -324 l 736 471 b 760 679 736 611 746 672 l 760 686 z "},"ı":{"ha":440,"x_min":0,"x_max":0,"o":"m 325 160 l 325 471 b 347 679 325 611 335 672 l 347 686 l 28 686 l 28 679 b 115 528 103 679 115 640 l 115 160 b 28 7 115 47 103 7 l 28 0 l 413 0 l 413 7 b 325 158 338 7 325 46 z "},"ĵ":{"ha":440,"x_min":0,"x_max":0,"o":"m 40 686 l 40 679 b 128 528 115 679 128 640 l 128 -121 b 0 -399 128 -293 88 -367 l 0 -407 b 338 -104 149 -394 338 -324 l 338 471 b 361 679 338 611 347 672 l 361 686 z m 261 944 l 181 944 l 50 790 l 57 790 l 221 867 l 386 790 l 393 790 z "},"ķ":{"ha":897,"x_min":0,"x_max":0,"o":"m 688 189 b 488 503 638 268 501 479 b 567 579 514 528 540 554 b 779 679 643 651 744 679 l 779 686 l 482 686 l 482 679 b 569 650 531 679 557 669 b 560 582 583 629 578 600 b 325 351 510 532 385 411 l 325 807 b 349 1015 325 947 335 1008 l 349 1022 l 28 1022 l 28 1015 b 115 864 103 1015 115 976 l 115 158 b 28 7 115 46 103 7 l 28 0 l 413 0 l 413 7 b 325 158 338 7 325 46 l 325 343 b 347 365 331 350 339 357 l 576 0 l 876 0 l 876 7 b 688 189 808 7 750 92 z m 511 -211 b 450 -150 508 -176 483 -150 b 389 -211 417 -150 389 -178 b 450 -271 389 -244 417 -271 b 504 -239 474 -271 493 -258 b 417 -343 504 -271 488 -349 l 417 -347 b 511 -211 496 -351 514 -271 z "},"ĸ":{"ha":897,"x_min":0,"x_max":0,"o":"m 688 189 b 488 503 638 268 501 479 b 567 579 514 528 540 554 b 779 679 643 651 744 679 l 779 686 l 482 686 l 482 679 b 569 650 531 679 557 669 b 560 582 583 629 578 600 b 325 351 510 532 385 411 l 325 471 b 349 679 325 611 335 672 l 349 686 l 28 686 l 28 679 b 115 528 103 679 115 640 l 115 158 b 28 7 115 46 103 7 l 28 0 l 413 0 l 413 7 b 325 158 338 7 325 46 l 325 343 b 347 365 331 350 339 357 l 576 0 l 876 0 l 876 7 b 688 189 808 7 750 92 z "},"ĺ":{"ha":439,"x_min":0,"x_max":0,"o":"m 324 807 b 347 1015 324 947 333 1008 l 347 1022 l 28 1022 l 28 1015 b 115 864 101 1015 114 976 l 115 160 b 28 7 114 47 101 7 l 28 0 l 411 0 l 411 7 b 324 160 338 7 324 46 z m 181 1069 l 188 1069 l 342 1224 l 217 1224 z "},"ľ":{"ha":475,"x_min":0,"x_max":0,"o":"m 324 807 b 347 1015 324 947 333 1008 l 347 1022 l 28 1022 l 28 1015 b 115 864 101 1015 114 976 l 115 160 b 28 7 114 47 101 7 l 28 0 l 411 0 l 411 7 b 324 160 338 7 324 46 z m 557 967 b 496 1028 554 1001 529 1028 b 435 967 463 1028 435 1000 b 496 907 435 933 463 907 b 550 939 519 907 539 919 b 463 835 550 907 533 829 l 463 831 b 557 967 542 826 560 907 z "},"ļ":{"ha":439,"x_min":0,"x_max":0,"o":"m 324 807 b 347 1015 324 947 333 1008 l 347 1022 l 28 1022 l 28 1015 b 115 864 101 1015 114 976 l 115 160 b 28 7 114 47 101 7 l 28 0 l 411 0 l 411 7 b 324 160 338 7 324 46 z m 279 -211 b 218 -150 276 -176 251 -150 b 157 -211 185 -150 157 -178 b 218 -271 157 -244 185 -271 b 272 -239 242 -271 261 -258 b 185 -343 272 -271 256 -349 l 185 -347 b 279 -211 264 -351 282 -271 z "},"ŀ":{"ha":497,"x_min":0,"x_max":0,"o":"m 324 807 b 347 1015 324 947 333 1008 l 347 1022 l 28 1022 l 28 1015 b 115 864 101 1015 114 976 l 115 160 b 28 7 114 47 101 7 l 28 0 l 411 0 l 411 7 b 324 160 338 7 324 46 z m 489 522 b 431 465 457 522 431 496 b 489 407 431 433 457 407 b 546 465 519 407 546 433 b 489 522 546 496 519 522 z "},"ń":{"ha":894,"x_min":0,"x_max":0,"o":"m 779 160 l 779 444 b 533 700 779 622 682 700 b 328 597 424 700 371 661 b 349 679 332 650 340 675 l 349 686 l 28 686 l 28 679 b 115 528 103 679 115 642 l 115 160 b 28 7 115 47 103 7 l 28 0 l 413 0 l 413 7 b 325 160 338 7 325 47 l 325 471 b 328 583 325 517 325 553 b 476 686 360 646 421 686 b 571 471 576 686 571 565 l 571 160 b 483 7 569 47 557 7 l 483 0 l 867 0 l 867 7 b 779 158 793 7 779 46 z m 464 790 l 471 790 l 625 944 l 500 944 z "},"ŉ":{"ha":1089,"x_min":0,"x_max":0,"o":"m 186 617 b 107 696 183 663 150 696 b 28 617 63 696 28 660 b 107 538 28 572 63 538 b 176 579 138 538 164 554 b 64 443 176 538 156 436 l 64 438 b 186 617 167 433 189 538 z m 974 160 l 974 444 b 728 700 974 622 876 700 b 522 597 618 700 565 661 b 543 679 526 650 535 675 l 543 686 l 222 686 l 222 679 b 310 528 297 679 310 642 l 310 160 b 222 7 310 47 297 7 l 222 0 l 607 0 l 607 7 b 519 160 532 7 519 47 l 519 471 b 522 583 519 517 519 553 b 671 686 554 646 615 686 b 765 471 771 686 765 565 l 765 160 b 678 7 764 47 751 7 l 678 0 l 1061 0 l 1061 7 b 974 158 988 7 974 46 z "},"ň":{"ha":894,"x_min":0,"x_max":0,"o":"m 779 160 l 779 444 b 533 700 779 622 682 700 b 328 597 424 700 371 661 b 349 679 332 650 340 675 l 349 686 l 28 686 l 28 679 b 115 528 103 679 115 642 l 115 160 b 28 7 115 47 103 7 l 28 0 l 413 0 l 413 7 b 325 160 338 7 325 47 l 325 471 b 328 583 325 517 325 553 b 476 686 360 646 421 686 b 571 471 576 686 571 565 l 571 160 b 483 7 569 47 557 7 l 483 0 l 867 0 l 867 7 b 779 158 793 7 779 46 z m 632 935 l 625 935 l 460 858 l 296 935 l 289 935 l 419 781 l 500 781 z "},"ņ":{"ha":894,"x_min":0,"x_max":0,"o":"m 779 160 l 779 444 b 533 700 779 622 682 700 b 328 597 424 700 371 661 b 349 679 332 650 340 675 l 349 686 l 28 686 l 28 679 b 115 528 103 679 115 642 l 115 160 b 28 7 115 47 103 7 l 28 0 l 413 0 l 413 7 b 325 160 338 7 325 47 l 325 471 b 328 583 325 517 325 553 b 476 686 360 646 421 686 b 571 471 576 686 571 565 l 571 160 b 483 7 569 47 557 7 l 483 0 l 867 0 l 867 7 b 779 158 793 7 779 46 z m 507 -211 b 446 -150 504 -176 479 -150 b 385 -211 413 -150 385 -178 b 446 -271 385 -244 413 -271 b 500 -239 469 -271 489 -258 b 413 -343 500 -271 483 -349 l 413 -347 b 507 -211 492 -351 510 -271 z "},"ñ":{"ha":894,"x_min":0,"x_max":0,"o":"m 779 160 l 779 444 b 533 700 779 622 682 700 b 328 597 424 700 371 661 b 349 679 332 650 340 675 l 349 686 l 28 686 l 28 679 b 115 528 103 679 115 642 l 115 160 b 28 7 115 47 103 7 l 28 0 l 413 0 l 413 7 b 325 160 338 7 325 47 l 325 471 b 328 583 325 517 325 553 b 476 686 360 646 421 686 b 571 471 576 686 571 565 l 571 160 b 483 7 569 47 557 7 l 483 0 l 867 0 l 867 7 b 779 158 793 7 779 46 z m 528 818 b 588 928 581 815 592 894 l 581 928 b 528 906 575 906 564 900 b 392 933 504 910 424 936 b 329 826 339 926 332 861 l 336 826 b 392 849 342 839 360 853 b 528 818 426 846 483 821 z "},"ó":{"ha":878,"x_min":0,"x_max":0,"o":"m 835 378 b 393 699 822 611 590 719 b 43 310 197 676 25 546 b 482 -12 63 64 296 -26 b 835 378 668 0 847 147 z m 482 -7 b 261 318 365 -18 282 126 b 394 693 242 501 279 682 b 615 367 510 703 597 564 b 482 -7 632 182 599 4 z m 399 790 l 406 790 l 560 944 l 435 944 z "},"ŏ":{"ha":878,"x_min":0,"x_max":0,"o":"m 835 378 b 393 699 822 611 590 719 b 43 310 197 676 25 546 b 482 -12 63 64 296 -26 b 835 378 668 0 847 147 z m 482 -7 b 261 318 365 -18 282 126 b 394 693 242 501 279 682 b 615 367 510 703 597 564 b 482 -7 632 182 599 4 z m 468 903 b 424 781 461 832 454 781 b 379 903 393 781 385 832 l 286 903 b 424 776 294 811 367 776 b 561 903 481 776 553 811 z "},"ô":{"ha":878,"x_min":0,"x_max":0,"o":"m 835 378 b 393 699 822 611 590 719 b 43 310 197 676 25 546 b 482 -12 63 64 296 -26 b 835 378 668 0 847 147 z m 482 -7 b 261 318 365 -18 282 126 b 394 693 242 501 279 682 b 615 367 510 703 597 564 b 482 -7 632 182 599 4 z m 463 944 l 382 944 l 251 790 l 258 790 l 422 867 l 588 790 l 594 790 z "},"ö":{"ha":878,"x_min":0,"x_max":0,"o":"m 835 378 b 393 699 822 611 590 719 b 43 310 197 676 25 546 b 482 -12 63 64 296 -26 b 835 378 668 0 847 147 z m 482 -7 b 261 318 365 -18 282 126 b 394 693 242 501 279 682 b 615 367 510 703 597 564 b 482 -7 632 182 599 4 z m 354 933 b 296 876 322 933 296 907 b 354 818 296 844 322 818 b 411 876 385 818 411 844 b 354 933 411 907 385 933 z m 494 933 b 438 876 464 933 438 907 b 494 818 438 844 464 818 b 551 876 526 818 551 844 b 494 933 551 907 526 933 z "},"ò":{"ha":878,"x_min":0,"x_max":0,"o":"m 835 378 b 393 699 822 611 590 719 b 43 310 197 676 25 546 b 482 -12 63 64 296 -26 b 835 378 668 0 847 147 z m 482 -7 b 261 318 365 -18 282 126 b 394 693 242 501 279 682 b 615 367 510 703 597 564 b 482 -7 632 182 599 4 z m 425 944 l 301 944 l 456 790 l 463 790 z "},"ő":{"ha":878,"x_min":0,"x_max":0,"o":"m 835 378 b 393 699 822 611 590 719 b 43 310 197 676 25 546 b 482 -12 63 64 296 -26 b 835 378 668 0 847 147 z m 482 -7 b 261 318 365 -18 282 126 b 394 693 242 501 279 682 b 615 367 510 703 597 564 b 482 -7 632 182 599 4 z m 471 790 l 478 790 l 633 944 l 508 944 z m 324 790 l 331 790 l 485 944 l 361 944 z "},"ō":{"ha":878,"x_min":0,"x_max":0,"o":"m 835 378 b 393 699 822 611 590 719 b 43 310 197 676 25 546 b 482 -12 63 64 296 -26 b 835 378 668 0 847 147 z m 482 -7 b 261 318 365 -18 282 126 b 394 693 242 501 279 682 b 615 367 510 703 597 564 b 482 -7 632 182 599 4 z m 289 871 l 289 864 l 531 864 l 531 871 z "},"ǿ":{"ha":878,"x_min":0,"x_max":0,"o":"m 835 378 b 536 692 821 556 686 661 l 557 768 l 550 768 l 529 693 b 393 699 485 701 438 704 b 43 310 197 676 33 546 b 342 -3 50 125 192 28 l 321 -81 l 328 -81 l 349 -4 b 482 -12 393 -12 439 -15 b 835 378 668 0 851 147 z m 261 318 b 394 693 242 501 279 682 b 515 639 440 697 481 676 l 357 51 b 261 318 307 110 272 206 z m 482 -7 b 361 46 436 -11 394 8 l 519 632 b 615 367 568 574 601 478 b 482 -7 638 182 599 4 z m 404 790 l 411 790 l 565 944 l 440 944 z "},"õ":{"ha":878,"x_min":0,"x_max":0,"o":"m 835 378 b 393 699 822 611 590 719 b 43 310 197 676 25 546 b 482 -12 63 64 296 -26 b 835 378 668 0 847 147 z m 482 -7 b 261 318 365 -18 282 126 b 394 693 242 501 279 682 b 615 367 510 703 597 564 b 482 -7 632 182 599 4 z m 490 818 b 550 928 543 815 554 894 l 543 928 b 490 906 538 906 526 900 b 354 933 467 910 386 936 b 292 826 301 926 294 861 l 299 826 b 354 849 304 839 322 853 b 490 818 389 846 446 821 z "},"ŕ":{"ha":672,"x_min":0,"x_max":0,"o":"m 522 700 b 325 500 465 694 363 619 b 347 679 326 619 335 672 l 347 686 l 28 686 l 28 679 b 115 528 103 679 115 642 l 115 160 b 28 7 115 47 103 7 l 28 0 l 411 0 l 411 7 b 324 160 338 7 325 47 b 324 481 324 160 324 479 b 447 646 346 556 400 632 b 522 558 497 661 469 593 b 633 599 554 539 621 546 b 522 700 650 661 604 707 z m 335 790 l 342 790 l 496 944 l 371 944 z "},"ř":{"ha":672,"x_min":0,"x_max":0,"o":"m 522 700 b 325 500 465 694 363 619 b 347 679 326 619 335 672 l 347 686 l 28 686 l 28 679 b 115 528 103 679 115 642 l 115 160 b 28 7 115 47 103 7 l 28 0 l 411 0 l 411 7 b 324 160 338 7 325 47 b 324 481 324 160 324 479 b 447 646 346 556 400 632 b 522 558 497 661 469 593 b 633 599 554 539 621 546 b 522 700 650 661 604 707 z m 546 935 l 539 935 l 374 858 l 210 935 l 203 935 l 333 781 l 414 781 z "},"ŗ":{"ha":672,"x_min":0,"x_max":0,"o":"m 522 700 b 325 500 465 694 363 619 b 347 679 326 619 335 672 l 347 686 l 28 686 l 28 679 b 115 528 103 679 115 642 l 115 160 b 28 7 115 47 103 7 l 28 0 l 411 0 l 411 7 b 324 160 338 7 325 47 b 324 481 324 160 324 479 b 447 646 346 556 400 632 b 522 558 497 661 469 593 b 633 599 554 539 621 546 b 522 700 650 661 604 707 z m 279 -211 b 218 -150 276 -176 251 -150 b 157 -211 185 -150 157 -178 b 218 -271 157 -244 185 -271 b 272 -239 242 -271 261 -258 b 185 -343 272 -271 256 -349 l 185 -347 b 279 -211 264 -351 282 -271 z "},"ś":{"ha":651,"x_min":0,"x_max":0,"o":"m 215 589 b 331 693 215 657 260 693 b 465 647 390 693 440 674 b 451 542 499 610 456 582 b 526 488 449 501 490 474 b 543 603 567 501 574 557 b 303 700 517 642 438 700 b 57 519 175 700 64 643 b 458 108 42 249 468 294 b 297 -7 454 35 388 -7 b 135 51 222 -7 161 21 b 151 160 99 90 149 119 b 76 215 154 197 121 229 b 61 99 40 203 29 144 b 307 -12 88 60 165 -12 b 607 179 472 -12 590 57 b 215 589 644 461 215 435 z m 328 790 l 335 790 l 489 944 l 364 944 z "},"š":{"ha":651,"x_min":0,"x_max":0,"o":"m 215 589 b 331 693 215 657 260 693 b 465 647 390 693 440 674 b 451 542 499 610 456 582 b 526 488 449 501 490 474 b 543 603 567 501 574 557 b 303 700 517 642 438 700 b 57 519 175 700 64 643 b 458 108 42 249 468 294 b 297 -7 454 35 388 -7 b 135 51 222 -7 161 21 b 151 160 99 90 149 119 b 76 215 154 197 121 229 b 61 99 40 203 29 144 b 307 -12 88 60 165 -12 b 607 179 472 -12 590 57 b 215 589 644 461 215 435 z m 511 935 l 504 935 l 339 858 l 175 935 l 168 935 l 299 781 l 379 781 z "},"ŝ":{"ha":651,"x_min":0,"x_max":0,"o":"m 215 589 b 331 693 215 657 260 693 b 465 647 390 693 440 674 b 451 542 499 610 456 582 b 526 488 449 501 490 474 b 543 603 567 501 574 557 b 303 700 517 642 438 700 b 57 519 175 700 64 643 b 458 108 42 249 468 294 b 297 -7 454 35 388 -7 b 135 51 222 -7 161 21 b 151 160 99 90 149 119 b 76 215 154 197 121 229 b 61 99 40 203 29 144 b 307 -12 88 60 165 -12 b 607 179 472 -12 590 57 b 215 589 644 461 215 435 z m 379 944 l 299 944 l 168 790 l 175 790 l 339 867 l 504 790 l 511 790 z "},"ș":{"ha":651,"x_min":0,"x_max":0,"o":"m 215 589 b 331 693 215 657 260 693 b 465 647 390 693 440 674 b 451 542 499 610 456 582 b 526 488 449 501 490 474 b 543 603 567 501 574 557 b 303 700 517 642 438 700 b 57 519 175 700 64 643 b 458 108 42 249 468 294 b 297 -7 454 35 388 -7 b 135 51 222 -7 161 21 b 151 160 99 90 149 119 b 76 215 154 197 121 229 b 61 99 40 203 29 144 b 307 -12 88 60 165 -12 b 607 179 472 -12 590 57 b 215 589 644 461 215 435 z m 385 -211 b 324 -150 382 -176 357 -150 b 263 -211 290 -150 263 -178 b 324 -271 263 -244 290 -271 b 378 -239 347 -271 367 -258 b 290 -343 378 -271 361 -349 l 290 -347 b 385 -211 369 -351 388 -271 z "},"ť":{"ha":618,"x_min":0,"x_max":0,"o":"m 374 -3 b 300 178 307 -3 300 85 l 300 679 l 424 679 l 424 686 l 300 686 l 300 856 l 296 856 l 293 856 b 92 738 267 768 165 738 b 92 686 92 731 92 686 b 28 686 92 686 50 686 l 28 679 l 92 679 b 92 206 92 558 92 206 b 347 -14 92 0 253 -14 b 435 4 388 -14 414 -7 l 435 11 b 374 -3 425 7 401 -3 z m 596 783 b 535 844 593 818 568 844 b 474 783 501 844 474 817 b 535 724 474 750 501 724 b 589 756 558 724 578 736 b 501 651 589 724 572 646 l 501 647 b 596 783 581 643 599 724 z "},"ţ":{"ha":456,"x_min":0,"x_max":0,"o":"m 374 -3 b 300 178 307 -3 300 85 l 300 679 l 424 679 l 424 686 l 300 686 l 300 856 l 296 856 l 293 856 b 92 738 267 768 165 738 b 92 686 92 731 92 686 b 28 686 92 686 50 686 l 28 679 l 92 679 b 92 206 92 558 92 206 b 347 -14 92 0 253 -14 b 435 4 388 -14 414 -7 l 435 11 b 374 -3 425 7 401 -3 z m 346 -211 b 285 -150 343 -176 318 -150 b 224 -211 251 -150 224 -178 b 285 -271 224 -244 251 -271 b 339 -239 308 -271 328 -258 b 251 -343 339 -271 322 -349 l 251 -347 b 346 -211 331 -351 349 -271 z "},"ú":{"ha":888,"x_min":0,"x_max":0,"o":"m 772 160 l 772 160 l 772 471 b 796 679 772 611 782 672 l 796 686 l 475 686 l 475 679 b 563 528 550 679 563 642 l 563 215 b 560 104 563 171 563 133 b 411 0 528 40 467 0 b 318 215 311 0 318 121 l 318 471 b 342 679 318 611 328 672 l 342 686 l 21 686 l 21 679 b 108 528 96 679 108 642 l 108 243 b 354 -14 108 64 207 -14 b 560 90 464 -14 517 25 b 540 7 556 38 549 11 l 540 0 l 860 0 l 860 7 b 772 158 785 7 772 46 z m 429 790 l 436 790 l 590 944 l 465 944 z "},"ŭ":{"ha":888,"x_min":0,"x_max":0,"o":"m 772 160 l 772 160 l 772 471 b 796 679 772 611 782 672 l 796 686 l 475 686 l 475 679 b 563 528 550 679 563 642 l 563 215 b 560 104 563 171 563 133 b 411 0 528 40 467 0 b 318 215 311 0 318 121 l 318 471 b 342 679 318 611 328 672 l 342 686 l 21 686 l 21 679 b 108 528 96 679 108 642 l 108 243 b 354 -14 108 64 207 -14 b 560 90 464 -14 517 25 b 540 7 556 38 549 11 l 540 0 l 860 0 l 860 7 b 772 158 785 7 772 46 z m 485 903 b 440 781 478 832 471 781 b 396 903 410 781 401 832 l 303 903 b 440 776 311 811 383 776 b 578 903 497 776 569 811 z "},"û":{"ha":888,"x_min":0,"x_max":0,"o":"m 772 160 l 772 160 l 772 471 b 796 679 772 611 782 672 l 796 686 l 475 686 l 475 679 b 563 528 550 679 563 642 l 563 215 b 560 104 563 171 563 133 b 411 0 528 40 467 0 b 318 215 311 0 318 121 l 318 471 b 342 679 318 611 328 672 l 342 686 l 21 686 l 21 679 b 108 528 96 679 108 642 l 108 243 b 354 -14 108 64 207 -14 b 560 90 464 -14 517 25 b 540 7 556 38 549 11 l 540 0 l 860 0 l 860 7 b 772 158 785 7 772 46 z m 479 944 l 399 944 l 268 790 l 275 790 l 439 867 l 604 790 l 611 790 z "},"ü":{"ha":888,"x_min":0,"x_max":0,"o":"m 772 160 l 772 160 l 772 471 b 796 679 772 611 782 672 l 796 686 l 475 686 l 475 679 b 563 528 550 679 563 642 l 563 215 b 560 104 563 171 563 133 b 411 0 528 40 467 0 b 318 215 311 0 318 121 l 318 471 b 342 679 318 611 328 672 l 342 686 l 21 686 l 21 679 b 108 528 96 679 108 642 l 108 243 b 354 -14 108 64 207 -14 b 560 90 464 -14 517 25 b 540 7 556 38 549 11 l 540 0 l 860 0 l 860 7 b 772 158 785 7 772 46 z m 371 933 b 313 876 339 933 313 907 b 371 818 313 844 339 818 b 428 876 401 818 428 844 b 371 933 428 907 401 933 z m 511 933 b 454 876 481 933 454 907 b 511 818 454 844 481 818 b 568 876 543 818 568 844 b 511 933 568 907 543 933 z "},"ű":{"ha":888,"x_min":0,"x_max":0,"o":"m 772 160 l 772 160 l 772 471 b 796 679 772 611 782 672 l 796 686 l 475 686 l 475 679 b 563 528 550 679 563 642 l 563 215 b 560 104 563 171 563 133 b 411 0 528 40 467 0 b 318 215 311 0 318 121 l 318 471 b 342 679 318 611 328 672 l 342 686 l 21 686 l 21 679 b 108 528 96 679 108 642 l 108 243 b 354 -14 108 64 207 -14 b 560 90 464 -14 517 25 b 540 7 556 38 549 11 l 540 0 l 860 0 l 860 7 b 772 158 785 7 772 46 z m 501 790 l 508 790 l 664 944 l 539 944 z m 354 790 l 361 790 l 515 944 l 392 944 z "},"ù":{"ha":888,"x_min":0,"x_max":0,"o":"m 772 160 l 772 160 l 772 471 b 796 679 772 611 782 672 l 796 686 l 475 686 l 475 679 b 563 528 550 679 563 642 l 563 215 b 560 104 563 171 563 133 b 411 0 528 40 467 0 b 318 215 311 0 318 121 l 318 471 b 342 679 318 611 328 672 l 342 686 l 21 686 l 21 679 b 108 528 96 679 108 642 l 108 243 b 354 -14 108 64 207 -14 b 560 90 464 -14 517 25 b 540 7 556 38 549 11 l 540 0 l 860 0 l 860 7 b 772 158 785 7 772 46 z m 442 944 l 318 944 l 472 790 l 479 790 z "},"ū":{"ha":888,"x_min":0,"x_max":0,"o":"m 772 160 l 772 160 l 772 471 b 796 679 772 611 782 672 l 796 686 l 475 686 l 475 679 b 563 528 550 679 563 642 l 563 215 b 560 104 563 171 563 133 b 411 0 528 40 467 0 b 318 215 311 0 318 121 l 318 471 b 342 679 318 611 328 672 l 342 686 l 21 686 l 21 679 b 108 528 96 679 108 642 l 108 243 b 354 -14 108 64 207 -14 b 560 90 464 -14 517 25 b 540 7 556 38 549 11 l 540 0 l 860 0 l 860 7 b 772 158 785 7 772 46 z m 306 871 l 306 864 l 547 864 l 547 871 z "},"ů":{"ha":888,"x_min":0,"x_max":0,"o":"m 772 160 l 772 160 l 772 471 b 796 679 772 611 782 672 l 796 686 l 475 686 l 475 679 b 563 528 550 679 563 642 l 563 215 b 560 104 563 171 563 133 b 411 0 528 40 467 0 b 318 215 311 0 318 121 l 318 471 b 342 679 318 611 328 672 l 342 686 l 21 686 l 21 679 b 108 528 96 679 108 642 l 108 243 b 354 -14 108 64 207 -14 b 560 90 464 -14 517 25 b 540 7 556 38 549 11 l 540 0 l 860 0 l 860 7 b 772 158 785 7 772 46 z m 421 774 b 501 854 465 774 501 810 b 421 935 501 899 465 935 b 340 854 376 935 340 899 b 421 774 340 810 376 774 z m 421 928 b 494 854 461 928 494 894 b 421 781 494 813 461 781 b 346 854 379 781 346 813 b 421 928 346 894 379 928 z "},"ũ":{"ha":888,"x_min":0,"x_max":0,"o":"m 772 160 l 772 160 l 772 471 b 796 679 772 611 782 672 l 796 686 l 475 686 l 475 679 b 563 528 550 679 563 642 l 563 215 b 560 104 563 171 563 133 b 411 0 528 40 467 0 b 318 215 311 0 318 121 l 318 471 b 342 679 318 611 328 672 l 342 686 l 21 686 l 21 679 b 108 528 96 679 108 642 l 108 243 b 354 -14 108 64 207 -14 b 560 90 464 -14 517 25 b 540 7 556 38 549 11 l 540 0 l 860 0 l 860 7 b 772 158 785 7 772 46 z m 493 818 b 553 928 546 815 557 894 l 546 928 b 493 906 540 906 529 900 b 357 933 469 910 389 936 b 294 826 304 926 297 861 l 301 826 b 357 849 307 839 325 853 b 493 818 392 846 449 821 z "},"ẃ":{"ha":1099,"x_min":0,"x_max":0,"o":"m 875 686 l 875 679 b 922 493 942 679 949 565 b 831 213 917 476 871 339 l 636 686 l 610 686 l 467 231 b 318 586 451 267 351 508 b 340 679 289 656 293 679 l 340 686 l 14 686 l 14 679 b 128 549 75 679 100 611 b 369 0 165 464 369 0 l 399 0 l 540 451 l 736 0 l 765 0 b 942 529 765 0 908 443 b 1085 679 975 614 1022 667 l 1085 686 z m 635 790 l 642 790 l 796 944 l 671 944 z "},"ŵ":{"ha":1099,"x_min":0,"x_max":0,"o":"m 875 686 l 875 679 b 922 493 942 679 949 565 b 831 213 917 476 871 339 l 636 686 l 610 686 l 467 231 b 318 586 451 267 351 508 b 340 679 289 656 293 679 l 340 686 l 14 686 l 14 679 b 128 549 75 679 100 611 b 369 0 165 464 369 0 l 399 0 l 540 451 l 736 0 l 765 0 b 942 529 765 0 908 443 b 1085 679 975 614 1022 667 l 1085 686 z m 661 944 l 581 944 l 450 790 l 457 790 l 621 867 l 786 790 l 793 790 z "},"ẅ":{"ha":1099,"x_min":0,"x_max":0,"o":"m 875 686 l 875 679 b 922 493 942 679 949 565 b 831 213 917 476 871 339 l 636 686 l 610 686 l 467 231 b 318 586 451 267 351 508 b 340 679 289 656 293 679 l 340 686 l 14 686 l 14 679 b 128 549 75 679 100 611 b 369 0 165 464 369 0 l 399 0 l 540 451 l 736 0 l 765 0 b 942 529 765 0 908 443 b 1085 679 975 614 1022 667 l 1085 686 z m 553 933 b 494 876 521 933 494 907 b 553 818 494 844 521 818 b 610 876 583 818 610 844 b 553 933 610 907 583 933 z m 693 933 b 636 876 663 933 636 907 b 693 818 636 844 663 818 b 750 876 725 818 750 844 b 693 933 750 907 725 933 z "},"ẁ":{"ha":1099,"x_min":0,"x_max":0,"o":"m 875 686 l 875 679 b 922 493 942 679 949 565 b 831 213 917 476 871 339 l 636 686 l 610 686 l 467 231 b 318 586 451 267 351 508 b 340 679 289 656 293 679 l 340 686 l 14 686 l 14 679 b 128 549 75 679 100 611 b 369 0 165 464 369 0 l 399 0 l 540 451 l 736 0 l 765 0 b 942 529 765 0 908 443 b 1085 679 975 614 1022 667 l 1085 686 z m 568 944 l 444 944 l 599 790 l 606 790 z "},"ý":{"ha":756,"x_min":0,"x_max":0,"o":"m 533 686 l 533 679 b 581 493 599 679 607 565 b 475 206 574 475 535 369 b 313 586 458 247 339 521 b 335 679 283 657 288 679 l 335 686 l 14 686 l 14 679 b 129 549 76 679 101 611 b 379 0 160 482 379 0 l 401 0 b 250 -260 361 -118 300 -218 b 163 -175 189 -308 196 -201 b 61 -225 119 -140 56 -175 b 168 -301 69 -279 121 -304 b 408 0 257 -296 340 -185 b 599 529 429 54 579 476 b 742 679 632 614 679 667 l 742 686 z m 436 790 l 443 790 l 597 944 l 472 944 z "},"ŷ":{"ha":756,"x_min":0,"x_max":0,"o":"m 533 686 l 533 679 b 581 493 599 679 607 565 b 475 206 574 475 535 369 b 313 586 458 247 339 521 b 335 679 283 657 288 679 l 335 686 l 14 686 l 14 679 b 129 549 76 679 101 611 b 379 0 160 482 379 0 l 401 0 b 250 -260 361 -118 300 -218 b 163 -175 189 -308 196 -201 b 61 -225 119 -140 56 -175 b 168 -301 69 -279 121 -304 b 408 0 257 -296 340 -185 b 599 529 429 54 579 476 b 742 679 632 614 679 667 l 742 686 z m 486 944 l 406 944 l 275 790 l 282 790 l 446 867 l 611 790 l 618 790 z "},"ÿ":{"ha":756,"x_min":0,"x_max":0,"o":"m 533 686 l 533 679 b 581 493 599 679 607 565 b 475 206 574 475 535 369 b 313 586 458 247 339 521 b 335 679 283 657 288 679 l 335 686 l 14 686 l 14 679 b 129 549 76 679 101 611 b 379 0 160 482 379 0 l 401 0 b 250 -260 361 -118 300 -218 b 163 -175 189 -308 196 -201 b 61 -225 119 -140 56 -175 b 168 -301 69 -279 121 -304 b 408 0 257 -296 340 -185 b 599 529 429 54 579 476 b 742 679 632 614 679 667 l 742 686 z m 378 933 b 319 876 346 933 319 907 b 378 818 319 844 346 818 b 435 876 408 818 435 844 b 378 933 435 907 408 933 z m 518 933 b 461 876 488 933 461 907 b 518 818 461 844 488 818 b 575 876 550 818 575 844 b 518 933 575 907 550 933 z "},"ỳ":{"ha":756,"x_min":0,"x_max":0,"o":"m 533 686 l 533 679 b 581 493 599 679 607 565 b 475 206 574 475 535 369 b 313 586 458 247 339 521 b 335 679 283 657 288 679 l 335 686 l 14 686 l 14 679 b 129 549 76 679 101 611 b 379 0 160 482 379 0 l 401 0 b 250 -260 361 -118 300 -218 b 163 -175 189 -308 196 -201 b 61 -225 119 -140 56 -175 b 168 -301 69 -279 121 -304 b 408 0 257 -296 340 -185 b 599 529 429 54 579 476 b 742 679 632 614 679 667 l 742 686 z m 407 944 l 283 944 l 438 790 l 444 790 z "},"ź":{"ha":633,"x_min":0,"x_max":0,"o":"m 592 686 l 115 686 l 75 535 l 81 535 b 269 679 108 599 171 679 l 390 679 l 42 7 l 42 0 l 542 0 l 585 153 l 579 153 b 386 7 551 88 485 7 l 242 7 l 592 679 z m 347 790 l 354 790 l 508 944 l 383 944 z "},"ž":{"ha":633,"x_min":0,"x_max":0,"o":"m 592 686 l 115 686 l 75 535 l 81 535 b 269 679 108 599 171 679 l 390 679 l 42 7 l 42 0 l 542 0 l 585 153 l 579 153 b 386 7 551 88 485 7 l 242 7 l 592 679 z m 557 935 l 550 935 l 385 858 l 221 935 l 214 935 l 344 781 l 425 781 z "},"ż":{"ha":633,"x_min":0,"x_max":0,"o":"m 592 686 l 115 686 l 75 535 l 81 535 b 269 679 108 599 171 679 l 390 679 l 42 7 l 42 0 l 542 0 l 585 153 l 579 153 b 386 7 551 88 485 7 l 242 7 l 592 679 z m 386 933 b 328 876 354 933 328 907 b 386 818 328 844 354 818 b 443 876 417 818 443 844 b 386 933 443 907 417 933 z "},"/":{"ha":292,"x_min":0,"x_max":0,"o":"m 243 986 l 42 0 l 49 0 l 250 986 z "},"•":{"ha":242,"x_min":0,"x_max":0,"o":"m 121 607 b 42 528 78 607 42 571 b 121 449 42 483 78 449 b 200 528 165 449 200 483 b 121 607 200 571 165 607 z "},"H":{"ha":1068,"x_min":0,"x_max":0,"o":"m 939 813 b 1026 965 940 914 947 965 l 1026 972 l 636 972 l 636 965 b 724 813 715 965 724 914 l 724 489 l 344 489 l 344 813 b 431 965 344 914 353 965 l 431 972 l 42 972 l 42 965 b 129 813 121 965 128 914 l 129 160 b 42 7 128 58 121 7 l 42 0 l 431 0 l 431 7 b 344 160 353 7 344 58 l 344 482 l 724 482 l 724 160 b 636 7 724 58 715 7 l 636 0 l 1026 0 l 1026 7 b 939 160 947 7 940 58 l 939 814 z "}}}
